{
.appVersion = "3436";
.formatVersion = 3;
DisplayStrings = (
"ABCDEFGHIJKLMNOPQRSTUVWXYZ
abcdefghijk/k.ss01 lmnopqr/r.ss01 st/t.ss01 uvwxyz

the quick brown riot",
"Misallying Serpigines Ensheathed SelfParody Preambulatory Falculas Seasoners BackPedalling Antilopine CussWord Unlay Pigeonholing Kails Indulgently Sodger Epithelium Bod Dreamers Correspondents Religionising Tautologising Disoperation Stela Shaped Mathematics Studios Generalised Beech Cladists Splendidious Scarabs Pupillages Exfoliation Veto Dogbolts Borgo PanSlavism Polarization Slimier Purrings Bacilli Truncal Bustler Maquiladora Highermost Shikaris Hopelessness Cattery Unsurpassable Acrimoniousness"
);
date = "2026-05-04 03:52:00 +0000";
familyName = "New Font";
fontMaster = (
{
id = m01;
metricValues = (
{
over = 16;
pos = 800;
},
{
over = 16;
pos = 700;
},
{
over = 16;
pos = 500;
},
{
over = -16;
},
{
over = -16;
pos = -200;
}
);
name = Regular;
}
);
glyphs = (
{
glyphname = A;
lastChange = "2026-05-04 04:32:26 +0000";
layers = (
{
layerId = m01;
shapes = (
{
closed = 1;
nodes = (
(323,-50,o),
(320,-40,o),
(320,-37,c),
(320,-33,o),
(316,-16,o),
(314,5,c),
(304,56,o),
(298,101,o),
(294,166,c),
(287,242,o),
(285,249,o),
(282,249,c),
(278,249,o),
(269,245,o),
(255,245,c),
(242,245,o),
(233,242,o),
(233,242,c),
(226,235,o),
(206,139,o),
(197,60,c),
(194,36,o),
(194,36,o),
(194,80,c),
(194,125,o),
(194,125,o),
(191,111,c),
(188,104,o),
(181,80,o),
(175,60,c),
(168,42,o),
(161,22,o),
(161,18,c),
(161,15,o),
(161,8,o),
(159,1,c),
(159,-6,o),
(159,-6,o),
(136,-9,c),
(113,-9,o),
(65,-9,o),
(58,-6,c),
(51,-2,o),
(49,-2,o),
(46,-2,c),
(39,-2,o),
(35,1,o),
(33,12,c),
(26,22,o),
(26,22,o),
(29,39,c),
(29,49,o),
(46,111,o),
(65,177,c),
(80,242,o),
(94,297,o),
(94,297,c),
(94,297,o),
(87,283,o),
(78,262,c),
(68,242,o),
(58,228,o),
(58,228,c),
(58,232,o),
(84,317,o),
(129,445,c),
(145,493,o),
(168,565,o),
(191,637,c),
(194,654,o),
(201,672,o),
(201,672,c),
(204,675,o),
(204,678,o),
(201,685,c),
(201,692,o),
(197,696,o),
(201,696,c),
(204,699,o),
(217,703,o),
(220,699,c),
(220,699,o),
(246,696,o),
(278,696,c),
(327,696,o),
(336,699,o),
(346,703,c),
(359,706,o),
(359,706,o),
(365,703,c),
(372,699,o),
(372,696,o),
(375,682,c),
(375,675,o),
(379,661,o),
(381,654,c),
(381,648,o),
(385,637,o),
(385,627,c),
(388,586,o),
(413,383,o),
(433,245,c),
(437,225,o),
(437,228,o),
(437,300,c),
(437,342,o),
(440,376,o),
(440,376,c),
(440,376,o),
(442,376,o),
(442,376,c),
(442,376,o),
(446,328,o),
(453,266,c),
(462,122,o),
(469,84,o),
(482,22,c),
(485,5,o),
(485,5,o),
(491,5,c),
(505,5,o),
(501,-2,o),
(485,-9,c),
(449,-23,o),
(420,-33,o),
(404,-37,c),
(379,-43,o),
(349,-54,o),
(343,-61,c),
(333,-64,o),
(333,-64,o),
(327,-54,c)
);
},
{
closed = 1;
nodes = (
(372,22,o),
(362,29,o),
(365,5,c),
(365,-6,o),
(365,-13,o),
(362,-13,c),
(362,-16,o),
(362,-16,o),
(368,-16,c),
(375,-13,o),
(375,-13,o),
(375,-2,c)
);
},
{
closed = 1;
nodes = (
(433,1,o),
(433,12,o),
(430,18,c),
(427,22,o),
(427,22,o),
(427,18,c),
(427,12,o),
(424,5,o),
(417,8,c),
(417,8,o),
(413,8,o),
(413,5,c),
(413,-2,o),
(420,-2,o),
(427,1,c)
);
},
{
closed = 1;
nodes = (
(459,5,o),
(459,8,o),
(456,18,c),
(449,32,o),
(446,32,o),
(446,12,c),
(446,1,o),
(446,1,o),
(449,1,c),
(453,1,o),
(456,5,o),
(456,5,c)
);
},
{
closed = 1;
nodes = (
(343,18,o),
(343,25,o),
(346,29,c),
(346,36,o),
(346,36,o),
(343,36,c),
(339,36,o),
(336,39,o),
(333,46,c),
(330,56,o),
(330,53,o),
(333,25,c),
(336,15,o),
(339,8,o),
(339,8,c),
(339,12,o),
(339,15,o),
(343,18,c)
);
},
{
closed = 1;
nodes = (
(49,25,o),
(49,25,o),
(46,32,c),
(42,39,o),
(39,36,o),
(39,25,c),
(39,22,o),
(39,22,o),
(46,22,c)
);
},
{
closed = 1;
nodes = (
(129,53,o),
(129,53,o),
(129,56,c),
(129,56,o),
(132,63,o),
(132,63,c),
(132,67,o),
(132,67,o),
(129,67,c),
(127,67,o),
(123,67,o),
(123,67,c),
(120,70,o),
(120,67,o),
(113,60,c),
(110,49,o),
(110,46,o),
(113,49,c),
(116,53,o),
(120,53,o),
(127,53,c)
);
},
{
closed = 1;
nodes = (
(65,77,o),
(62,80,o),
(55,70,c),
(51,67,o),
(49,63,o),
(49,63,c),
(49,60,o),
(51,63,o),
(58,70,c)
);
},
{
closed = 1;
nodes = (
(424,128,l),
(427,108,l),
(427,73,o),
(427,77,o),
(430,80,c),
(433,87,o),
(433,87,o),
(430,108,c)
);
},
{
closed = 1;
nodes = (
(75,146,o),
(75,152,o),
(75,156,c),
(75,156,o),
(71,152,o),
(68,142,c),
(68,132,o),
(65,125,o),
(65,122,c),
(62,122,o),
(62,118,o),
(65,118,c),
(65,118,o),
(68,128,o),
(71,135,c)
);
},
{
closed = 1;
nodes = (
(391,376,o),
(388,390,o),
(388,393,c),
(385,400,o),
(385,359,o),
(388,331,c),
(388,317,o),
(391,297,o),
(391,280,c),
(395,249,o),
(395,249,o),
(395,293,c),
(395,317,o),
(395,348,o),
(391,362,c)
);
},
{
closed = 1;
nodes = (
(282,276,o),
(282,280,o),
(285,280,c),
(285,280,o),
(285,280,o),
(285,280,c),
(285,283,o),
(275,276,o),
(271,273,c),
(271,269,o),
(271,269,o),
(275,269,c),
(278,269,o),
(282,269,o),
(282,273,c)
);
},
{
closed = 1;
nodes = (
(197,314,o),
(194,307,o),
(191,297,c),
(181,273,o),
(181,269,o),
(191,290,c),
(194,300,o),
(197,311,o),
(197,314,c)
);
},
{
closed = 1;
nodes = (
(271,324,o),
(271,324,o),
(271,321,c),
(269,317,o),
(269,317,o),
(271,321,c),
(275,321,o),
(275,324,o),
(275,324,c)
);
},
{
closed = 1;
nodes = (
(249,596,o),
(249,596,o),
(246,593,c),
(246,593,o),
(246,589,o),
(246,586,c),
(246,586,o),
(246,586,o),
(246,589,c),
(249,589,o),
(249,593,o),
(249,596,c)
);
},
{
closed = 1;
nodes = (
(253,606,o),
(253,606,o),
(253,606,c),
(253,603,o),
(249,603,o),
(249,603,c),
(249,596,o),
(253,599,o),
(253,603,c)
);
},
{
closed = 1;
nodes = (
(333,661,o),
(333,665,o),
(330,665,c),
(330,665,o),
(327,661,o),
(330,658,c),
(330,658,o),
(330,654,o),
(333,654,c),
(333,654,o),
(333,658,o),
(333,658,c)
);
},
{
closed = 1;
nodes = (
(269,665,o),
(269,665,o),
(265,665,c),
(262,665,o),
(262,665,o),
(262,665,c),
(265,661,o),
(265,661,o),
(265,661,c),
(265,661,o),
(269,661,o),
(269,665,c)
);
},
{
closed = 1;
nodes = (
(255,668,o),
(255,668,o),
(253,668,c),
(249,668,o),
(246,668,o),
(246,665,c),
(246,665,o),
(249,665,o),
(253,665,c),
(255,665,o),
(255,668,o),
(255,668,c)
);
},
{
closed = 1;
nodes = (
(213,678,o),
(213,675,o),
(213,672,c),
(217,672,o),
(217,668,o),
(217,668,c),
(220,672,o),
(217,672,o),
(217,675,c)
);
},
{
closed = 1;
nodes = (
(339,675,o),
(336,675,o),
(327,675,c),
(316,675,o),
(316,675,o),
(323,672,c),
(336,668,o),
(339,668,o),
(339,672,c)
);
},
{
closed = 1;
nodes = (
);
}
);
width = 520;
}
);
unicode = 65;
},
{
glyphname = B;
lastChange = "2026-05-04 04:32:37 +0000";
layers = (
{
layerId = m01;
shapes = (
{
closed = 1;
nodes = (
(135,-13,o),
(187,1,o),
(219,8,c),
(222,11,o),
(219,11,o),
(216,11,c),
(206,11,o),
(210,11,o),
(226,15,c),
(257,22,o),
(280,32,o),
(303,42,c),
(322,52,o),
(322,52,o),
(322,52,c),
(322,52,o),
(306,52,o),
(290,46,c),
(232,28,o),
(216,25,o),
(180,18,c),
(147,15,o),
(138,15,o),
(96,15,c),
(51,15,o),
(51,15,o),
(48,22,c),
(48,25,o),
(48,25,o),
(44,15,c),
(41,-3,o),
(37,1,o),
(37,18,c),
(37,25,o),
(37,32,o),
(35,35,c),
(32,35,o),
(32,39,o),
(32,42,c),
(32,42,o),
(32,46,o),
(35,46,c),
(37,46,o),
(37,52,o),
(37,70,c),
(37,80,o),
(41,118,o),
(44,156,c),
(48,193,o),
(48,224,o),
(48,224,c),
(44,228,o),
(44,214,o),
(37,169,c),
(37,142,o),
(35,121,o),
(35,121,c),
(32,121,o),
(32,125,o),
(35,207,c),
(35,283,o),
(41,382,o),
(44,420,c),
(51,462,o),
(48,468,o),
(41,437,c),
(28,376,o),
(15,327,o),
(15,345,c),
(15,352,o),
(28,455,o),
(37,517,c),
(41,551,o),
(44,585,o),
(44,596,c),
(44,637,o),
(44,644,o),
(48,647,c),
(51,647,o),
(51,651,o),
(48,651,c),
(44,654,o),
(44,664,o),
(48,664,c),
(51,664,o),
(51,668,o),
(51,678,c),
(48,692,o),
(48,692,o),
(90,692,c),
(113,692,o),
(154,695,o),
(180,695,c),
(248,699,o),
(293,695,o),
(338,675,c),
(400,651,o),
(442,592,o),
(442,530,c),
(442,506,o),
(439,492,o),
(429,472,c),
(423,455,l),
(439,468,l),
(448,475,o),
(458,486,o),
(464,489,c),
(468,492,o),
(475,496,o),
(475,496,c),
(475,492,o),
(442,451,o),
(419,427,c),
(397,407,o),
(377,389,o),
(358,376,c),
(345,369,o),
(345,369,o),
(367,365,c),
(400,358,o),
(419,341,o),
(442,307,c),
(458,276,o),
(464,259,o),
(471,224,c),
(480,173,o),
(471,132,o),
(446,94,c),
(419,56,o),
(352,18,o),
(300,11,c),
(287,8,o),
(280,8,o),
(277,8,c),
(273,4,o),
(203,-9,o),
(174,-13,c),
(138,-20,o),
(129,-20,o),
(131,-16,c)
);
},
{
closed = 1;
nodes = (
(257,18,o),
(257,18,o),
(251,18,c),
(248,18,o),
(242,18,o),
(239,15,c),
(239,15,o),
(239,15,o),
(242,15,c),
(245,15,o),
(248,15,o),
(251,15,c)
);
},
{
closed = 1;
nodes = (
(287,28,o),
(287,28,o),
(284,28,c),
(280,28,o),
(273,28,o),
(273,25,c),
(268,25,o),
(268,25,o),
(273,25,c),
(273,25,o),
(280,25,o),
(284,25,c)
);
},
{
closed = 1;
nodes = (
(161,35,o),
(102,35,o),
(100,32,c),
(100,32,o),
(113,32,o),
(131,32,c),
(151,32,o),
(164,32,o),
(164,32,c)
);
},
{
closed = 1;
nodes = (
(64,56,o),
(67,59,o),
(70,59,c),
(70,59,o),
(73,63,o),
(70,66,c),
(70,70,o),
(70,70,o),
(67,70,c),
(64,66,o),
(61,66,o),
(57,66,c),
(54,66,o),
(54,63,o),
(54,63,c),
(54,59,o),
(51,56,o),
(51,52,c),
(51,46,o),
(61,49,o),
(64,56,c)
);
},
{
closed = 1;
nodes = (
(406,90,o),
(406,90,o),
(403,87,c),
(403,83,o),
(400,83,o),
(400,80,c),
(400,80,o),
(403,80,o),
(406,83,c)
);
},
{
closed = 1;
nodes = (
(446,138,o),
(446,138,o),
(435,125,c),
(429,114,o),
(423,107,o),
(419,107,c),
(413,104,o),
(413,104,o),
(413,101,c),
(416,97,o),
(416,97,o),
(413,94,c),
(410,90,o),
(413,94,o),
(423,101,c),
(429,107,o),
(435,118,o),
(439,125,c)
);
},
{
closed = 1;
nodes = (
(397,125,o),
(397,125,o),
(394,128,c),
(387,128,o),
(381,125,o),
(377,121,c),
(371,118,o),
(371,118,o),
(374,118,c),
(377,118,o),
(383,121,o),
(390,125,c)
);
},
{
closed = 1;
nodes = (
(86,193,o),
(84,193,o),
(80,193,c),
(73,190,o),
(73,190,o),
(70,180,c),
(67,159,o),
(70,159,o),
(80,176,c),
(84,183,o),
(86,190,o),
(86,193,c)
);
},
{
closed = 1;
nodes = (
(361,187,o),
(358,187,o),
(342,183,c),
(332,180,o),
(329,180,o),
(329,176,c),
(329,173,o),
(329,173,o),
(332,176,c),
(336,176,o),
(342,180,o),
(349,183,c)
);
},
{
closed = 1;
nodes = (
(203,187,o),
(206,190,o),
(206,190,c),
(210,197,o),
(210,197,o),
(194,193,c),
(180,187,o),
(174,180,o),
(187,183,c),
(190,183,o),
(196,183,o),
(199,187,c)
);
},
{
closed = 1;
nodes = (
(367,190,o),
(365,190,o),
(365,187,c),
(361,187,o),
(361,187,o),
(365,187,c),
(367,187,o),
(367,187,o),
(367,187,c)
);
},
{
closed = 1;
nodes = (
(284,197,o),
(284,197,o),
(277,197,c),
(273,193,o),
(271,193,o),
(271,193,c),
(268,193,o),
(268,193,o),
(268,190,c),
(268,187,o),
(271,187,o),
(277,193,c)
);
},
{
closed = 1;
nodes = (
(51,272,o),
(48,272,o),
(48,252,c),
(48,242,o),
(48,235,o),
(48,238,c),
(51,238,o),
(51,248,o),
(51,255,c)
);
},
{
closed = 1;
nodes = (
(239,255,o),
(235,255,o),
(232,252,c),
(228,248,o),
(228,248,o),
(239,252,c),
(245,252,o),
(245,255,o),
(242,255,c)
);
},
{
closed = 1;
nodes = (
(280,269,o),
(287,272,o),
(284,272,c),
(277,272,o),
(251,266,o),
(248,262,c),
(245,255,o),
(255,259,o),
(273,266,c)
);
},
{
closed = 1;
nodes = (
(354,345,o),
(352,345,o),
(349,345,c),
(345,345,o),
(345,345,o),
(345,345,c),
(345,341,o),
(349,341,o),
(349,341,c),
(352,341,o),
(352,341,o),
(352,345,c)
);
},
{
closed = 1;
nodes = (
(96,427,o),
(96,431,o),
(93,431,c),
(90,434,o),
(86,434,o),
(86,427,c),
(84,420,o),
(84,420,o),
(90,424,c)
);
},
{
closed = 1;
nodes = (
(309,462,o),
(309,462,o),
(306,458,c),
(303,458,o),
(306,458,o),
(309,458,c),
(309,458,o),
(313,462,o),
(313,462,c)
);
},
{
closed = 1;
nodes = (
(342,468,o),
(342,468,o),
(332,468,c),
(329,468,o),
(322,465,o),
(322,465,c),
(316,462,o),
(316,462,o),
(322,462,c),
(325,462,o),
(332,465,o),
(336,465,c)
);
},
{
closed = 1;
nodes = (
(51,479,o),
(48,479,o),
(48,472,c),
(48,468,o),
(48,468,o),
(51,468,c),
(51,472,o),
(51,475,o),
(51,475,c)
);
},
{
closed = 1;
nodes = (
(77,486,o),
(77,486,o),
(73,479,c),
(73,472,o),
(77,468,o),
(77,472,c),
(80,472,o),
(80,475,o),
(77,479,c)
);
},
{
closed = 1;
nodes = (
(358,496,o),
(365,506,o),
(365,510,c),
(365,510,o),
(361,506,o),
(358,503,c),
(345,496,o),
(342,492,o),
(349,492,c),
(349,496,o),
(352,496,o),
(354,496,c)
);
},
{
closed = 1;
nodes = (
(342,568,o),
(342,572,o),
(338,572,c),
(332,572,o),
(329,568,o),
(322,558,c),
(320,554,o),
(320,554,o),
(329,561,c),
(332,565,o),
(338,568,o),
(342,568,c)
);
},
{
closed = 1;
nodes = (
(303,596,o),
(306,603,o),
(300,599,c),
(293,599,o),
(277,582,o),
(284,582,c),
(284,582,o),
(290,585,o),
(293,589,c)
);
},
{
closed = 1;
nodes = (
(145,613,o),
(145,613,o),
(145,616,c),
(142,616,o),
(138,613,o),
(129,599,c),
(122,592,o),
(122,592,o),
(129,599,c),
(135,599,o),
(138,606,o),
(142,609,c)
);
},
{
closed = 1;
nodes = (
(183,675,o),
(183,675,o),
(180,675,c),
(177,675,o),
(174,675,o),
(174,675,c),
(174,671,o),
(177,671,o),
(180,675,c)
);
}
);
width = 489;
}
);
unicode = 66;
},
{
glyphname = C;
lastChange = "2026-05-04 04:37:45 +0000";
layers = (
{
layerId = m01;
shapes = (
{
closed = 1;
nodes = (
(234,7,o),
(176,34,o),
(150,57,c),
(124,76,o),
(76,134,o),
(67,156,c),
(47,199,o),
(31,249,o),
(31,279,c),
(31,291,o),
(31,298,o),
(31,298,c),
(27,298,o),
(27,291,o),
(27,276,c),
(27,263,o),
(27,249,o),
(24,244,c),
(20,230,o),
(18,263,o),
(18,313,c),
(18,364,o),
(24,394,o),
(37,444,c),
(63,543,o),
(128,635,o),
(195,678,c),
(211,689,o),
(211,686,o),
(195,673,c),
(134,616,o),
(92,547,o),
(69,478,c),
(63,452,o),
(67,447,o),
(72,475,c),
(95,540,o),
(130,598,o),
(179,643,c),
(205,670,o),
(224,681,o),
(251,693,c),
(270,700,o),
(273,700,o),
(308,700,c),
(341,700,o),
(344,700,o),
(373,689,c),
(402,678,o),
(425,665,o),
(458,639,c),
(476,624,o),
(483,620,o),
(490,620,c),
(496,620,o),
(490,604,o),
(463,566,c),
(429,521,o),
(396,467,o),
(399,471,c),
(402,471,o),
(418,486,o),
(434,505,c),
(476,551,o),
(525,598,o),
(528,598,c),
(528,598,o),
(486,547,o),
(431,486,c),
(380,420,o),
(331,364,o),
(325,356,c),
(315,340,l),
(328,329,l),
(337,313,o),
(373,279,o),
(422,233,c),
(434,222,o),
(467,191,o),
(490,169,c),
(512,145,o),
(532,126,o),
(532,126,c),
(538,122,o),
(561,92,o),
(557,92,c),
(557,92,o),
(555,92,o),
(551,95,c),
(544,100,o),
(544,100,o),
(528,87,c),
(509,76,o),
(460,42,o),
(434,31,c),
(415,23,o),
(422,23,o),
(467,34,c),
(486,38,o),
(506,42,o),
(506,42,c),
(509,38,o),
(474,23,o),
(458,18,c),
(431,7,o),
(402,4,o),
(357,-1,c),
(308,-4,o),
(305,-4,o),
(273,4,c)
);
},
{
closed = 1;
nodes = (
(512,114,o),
(509,114,o),
(503,119,c),
(496,119,o),
(496,119,o),
(503,114,c),
(509,107,o),
(519,107,o),
(512,114,c)
);
},
{
closed = 1;
nodes = (
(476,153,o),
(474,161,o),
(467,164,c),
(460,172,o),
(458,172,o),
(458,169,c),
(458,164,o),
(460,161,o),
(467,161,c),
(476,153,o),
(476,153,o),
(476,153,c)
);
},
{
closed = 1;
nodes = (
(121,210,o),
(118,210,o),
(112,207,c),
(105,207,o),
(105,207,o),
(112,195,c),
(121,183,o),
(121,183,o),
(121,195,c),
(121,202,o),
(121,210,o),
(121,210,c)
);
},
{
closed = 1;
nodes = (
(276,191,o),
(273,191,o),
(270,191,c),
(267,191,o),
(270,183,o),
(276,183,c),
(279,183,o),
(279,188,o),
(276,188,c)
);
},
{
closed = 1;
nodes = (
(63,268,o),
(63,276,o),
(63,268,c),
(63,257,o),
(72,214,o),
(76,218,c),
(76,218,o),
(72,233,o),
(69,249,c)
);
},
{
closed = 1;
nodes = (
(92,260,o),
(89,263,o),
(89,268,c),
(85,271,o),
(83,276,o),
(83,283,c),
(83,291,o),
(83,295,o),
(83,298,c),
(79,302,o),
(79,298,o),
(79,291,c),
(83,268,o),
(85,257,o),
(89,260,c),
(92,260,o),
(92,260,o),
(92,260,c)
);
},
{
closed = 1;
nodes = (
(60,298,o),
(60,298,o),
(60,295,c),
(60,291,o),
(60,291,o),
(60,291,c),
(60,295,o),
(60,295,o),
(60,298,c)
);
},
{
closed = 1;
nodes = (
(79,318,o),
(79,313,o),
(79,310,c),
(79,306,o),
(79,306,o),
(79,306,c),
(79,310,o),
(79,313,o),
(79,313,c)
);
},
{
closed = 1;
nodes = (
(224,345,o),
(222,345,o),
(222,345,c),
(218,340,o),
(215,340,o),
(215,337,c),
(215,337,o),
(218,337,o),
(222,337,c),
(222,337,o),
(224,340,o),
(224,340,c)
);
},
{
closed = 1;
nodes = (
(286,352,o),
(286,352,o),
(283,348,c),
(279,345,o),
(279,340,o),
(283,340,c),
(286,340,o),
(286,345,o),
(286,345,c)
);
},
{
closed = 1;
nodes = (
(144,352,o),
(144,356,o),
(141,356,c),
(137,356,o),
(137,352,o),
(134,352,c),
(134,348,o),
(134,348,o),
(137,348,c),
(141,348,o),
(141,348,o),
(144,352,c)
);
},
{
closed = 1;
nodes = (
(315,359,o),
(315,359,o),
(308,356,c),
(308,356,o),
(305,352,o),
(305,352,c),
(305,352,o),
(308,352,o),
(312,356,c)
);
},
{
closed = 1;
nodes = (
(337,398,o),
(335,394,o),
(321,375,c),
(319,367,o),
(315,364,o),
(315,367,c),
(319,367,o),
(325,375,o),
(328,379,c)
);
},
{
closed = 1;
nodes = (
(325,433,o),
(325,433,o),
(321,425,c),
(321,420,o),
(315,409,o),
(308,394,c),
(303,383,o),
(296,371,o),
(299,367,c),
(299,367,o),
(305,379,o),
(315,394,c),
(331,417,o),
(331,425,o),
(331,428,c)
);
},
{
closed = 1;
nodes = (
(95,420,o),
(99,428,o),
(95,425,c),
(92,420,o),
(79,379,o),
(79,375,c),
(83,371,o),
(83,375,o),
(92,406,c)
);
},
{
closed = 1;
nodes = (
(211,433,o),
(209,425,o),
(209,417,c),
(209,409,o),
(209,409,o),
(211,417,c),
(215,425,o),
(215,428,o),
(215,428,c)
);
},
{
closed = 1;
nodes = (
(89,471,o),
(92,486,o),
(89,486,c),
(89,486,o),
(72,440,o),
(72,428,c),
(69,409,o),
(76,420,o),
(83,444,c)
);
},
{
closed = 1;
nodes = (
(292,467,o),
(299,482,o),
(299,482,c),
(296,482,o),
(279,452,o),
(273,433,c),
(267,420,o),
(267,420,o),
(270,420,c),
(273,420,o),
(276,428,o),
(286,452,c)
);
},
{
closed = 1;
nodes = (
(157,436,o),
(160,436,o),
(157,436,c),
(153,440,o),
(153,440,o),
(146,436,c),
(144,433,o),
(144,433,o),
(146,433,c),
(150,433,o),
(153,436,o),
(157,436,c)
);
},
{
closed = 1;
nodes = (
(130,471,o),
(130,467,o),
(124,455,c),
(121,444,o),
(121,444,o),
(128,447,c),
(130,447,o),
(130,452,o),
(130,459,c)
);
},
{
closed = 1;
nodes = (
(108,475,o),
(105,463,o),
(101,452,c),
(99,447,o),
(101,447,o),
(105,455,c),
(108,463,o),
(112,467,o),
(112,471,c)
);
},
{
closed = 1;
nodes = (
(199,475,o),
(199,475,o),
(186,467,c),
(176,459,o),
(176,455,o),
(182,455,c),
(189,455,o),
(193,455,o),
(195,463,c)
);
},
{
closed = 1;
nodes = (
(256,505,o),
(256,508,o),
(240,482,c),
(227,463,o),
(222,455,o),
(224,455,c),
(227,455,o),
(234,463,o),
(238,475,c)
);
},
{
closed = 1;
nodes = (
(118,524,o),
(118,528,o),
(118,528,c),
(118,528,o),
(114,524,o),
(114,521,c),
(112,516,o),
(112,513,o),
(112,513,c),
(112,513,o),
(114,516,o),
(114,521,c)
);
},
{
closed = 1;
nodes = (
(157,585,o),
(163,593,o),
(170,601,c),
(179,612,o),
(176,612,o),
(160,598,c),
(150,585,o),
(146,582,o),
(146,574,c),
(146,571,o),
(146,563,o),
(146,563,c),
(146,563,o),
(150,571,o),
(153,577,c)
);
},
{
closed = 1;
nodes = (
(451,601,o),
(451,604,o),
(445,609,c),
(434,612,o),
(434,616,o),
(434,612,c),
(434,609,o),
(441,598,o),
(445,598,c),
(445,598,o),
(447,598,o),
(447,601,c)
);
},
{
closed = 1;
nodes = (
(399,624,o),
(399,624,o),
(396,624,c),
(396,624,o),
(396,624,o),
(396,620,c),
(393,616,o),
(396,616,o),
(396,616,c),
(396,616,o),
(399,616,o),
(399,620,c)
);
},
{
closed = 1;
nodes = (
(415,632,o),
(412,632,o),
(412,624,c),
(415,616,o),
(415,616,o),
(418,620,c),
(422,620,o),
(422,624,o),
(418,628,c)
);
},
{
closed = 1;
nodes = (
(344,639,o),
(344,639,o),
(344,639,c),
(341,639,o),
(341,639,o),
(337,635,c),
(337,635,o),
(337,632,o),
(341,632,c),
(341,632,o),
(344,635,o),
(344,635,c)
);
}
);
width = 560;
}
);
unicode = 67;
},
{
glyphname = D;
lastChange = "2026-05-04 04:37:59 +0000";
layers = (
{
layerId = m01;
shapes = (
{
closed = 1;
nodes = (
(75,11,o),
(75,11,o),
(71,8,c),
(64,-3,o),
(51,11,o),
(51,25,c),
(51,28,o),
(48,35,o),
(48,35,c),
(45,38,o),
(42,45,o),
(42,66,c),
(42,90,l),
(39,63,l),
(35,45,o),
(32,32,o),
(32,32,c),
(28,28,o),
(28,38,o),
(28,87,c),
(28,142,o),
(32,190,o),
(42,289,c),
(45,313,o),
(48,338,o),
(48,348,c),
(48,365,o),
(48,365,o),
(35,320,c),
(23,269,o),
(23,272,o),
(19,272,c),
(19,276,o),
(28,334,o),
(45,427,c),
(51,454,o),
(55,482,o),
(55,520,c),
(58,551,o),
(58,592,o),
(61,613,c),
(61,637,o),
(64,664,o),
(64,674,c),
(64,681,o),
(64,692,o),
(68,692,c),
(71,699,o),
(136,705,o),
(181,705,c),
(248,705,o),
(297,695,o),
(356,668,c),
(404,647,o),
(401,644,o),
(345,657,c),
(327,664,o),
(307,668,o),
(307,668,c),
(307,664,o),
(313,661,o),
(320,657,c),
(352,637,o),
(378,606,o),
(390,575,c),
(401,554,o),
(410,520,o),
(410,509,c),
(410,506,o),
(414,492,o),
(417,478,c),
(423,444,o),
(430,389,o),
(430,365,c),
(430,303,o),
(414,231,o),
(381,159,c),
(365,121,o),
(329,52,o),
(327,52,c),
(323,52,o),
(327,56,o),
(342,97,c),
(356,131,l),
(333,104,l),
(284,52,o),
(230,18,o),
(171,4,c),
(145,1,o),
(113,1,o),
(91,8,c)
);
},
{
closed = 1;
nodes = (
(75,138,o),
(75,148,o),
(71,152,c),
(68,159,o),
(68,159,o),
(68,145,c),
(64,111,o),
(61,76,o),
(64,59,c),
(64,42,o),
(64,42,o),
(68,56,c),
(68,63,o),
(71,87,o),
(71,107,c)
);
},
{
closed = 1;
nodes = (
(113,52,o),
(116,66,o),
(122,80,c),
(129,93,o),
(132,104,o),
(132,104,c),
(129,107,o),
(122,93,o),
(116,73,c),
(106,45,o),
(106,42,o),
(113,42,c),
(113,42,o),
(116,45,o),
(113,49,c)
);
},
{
closed = 1;
nodes = (
(235,69,o),
(230,66,o),
(226,63,c),
(223,56,o),
(223,56,o),
(230,59,c),
(232,59,o),
(235,63,o),
(235,63,c)
);
},
{
closed = 1;
nodes = (
(255,80,o),
(255,80,o),
(248,73,c),
(246,69,o),
(246,69,o),
(252,73,c),
(255,73,o),
(255,76,o),
(255,76,c)
);
},
{
closed = 1;
nodes = (
(168,135,o),
(165,135,o),
(158,121,c),
(154,111,o),
(152,100,o),
(149,97,c),
(145,87,o),
(145,87,o),
(154,97,c),
(165,107,o),
(168,114,o),
(168,121,c)
);
},
{
closed = 1;
nodes = (
(103,104,o),
(103,104,o),
(100,100,c),
(97,97,o),
(100,93,o),
(103,97,c),
(103,100,o),
(106,100,o),
(103,104,c)
);
},
{
closed = 1;
nodes = (
(168,214,o),
(184,245,o),
(190,258,c),
(203,283,o),
(201,286,o),
(190,265,c),
(181,248,o),
(132,148,o),
(132,145,c),
(136,142,o),
(138,145,o),
(158,190,c)
);
},
{
closed = 1;
nodes = (
(103,252,o),
(106,252,o),
(100,252,c),
(97,252,o),
(91,231,o),
(91,214,c),
(91,203,o),
(91,197,o),
(91,197,c),
(91,200,o),
(93,210,o),
(97,224,c)
);
},
{
closed = 1;
nodes = (
(242,221,o),
(246,228,o),
(242,224,c),
(242,224,o),
(235,217,o),
(232,210,c),
(230,203,o),
(226,200,o),
(226,200,c),
(230,203,o),
(232,207,o),
(235,214,c)
);
},
{
closed = 1;
nodes = (
(71,300,o),
(71,300,o),
(71,269,c),
(71,252,o),
(71,241,o),
(71,248,c),
(75,252,o),
(75,265,o),
(71,276,c)
);
},
{
closed = 1;
nodes = (
(129,272,o),
(129,276,o),
(129,272,c),
(126,272,o),
(126,272,o),
(126,269,c),
(126,262,o),
(126,265,o),
(129,269,c)
);
},
{
closed = 1;
nodes = (
(365,351,o),
(365,358,o),
(365,358,c),
(365,358,o),
(358,348,o),
(352,338,c),
(349,327,o),
(342,317,o),
(339,313,c),
(336,310,o),
(342,313,o),
(349,320,c),
(358,331,o),
(362,338,o),
(365,344,c)
);
},
{
closed = 1;
nodes = (
(132,334,o),
(129,334,o),
(126,331,c),
(122,324,o),
(122,324,o),
(126,324,c),
(129,324,o),
(129,327,o),
(132,327,c)
);
},
{
closed = 1;
nodes = (
(100,358,o),
(97,358,o),
(97,355,c),
(93,348,o),
(93,331,o),
(97,334,c),
(97,338,o),
(100,344,o),
(100,348,c)
);
},
{
closed = 1;
nodes = (
(316,420,o),
(320,423,o),
(316,420,c),
(311,413,o),
(291,375,o),
(294,382,c),
(297,382,o),
(304,396,o),
(311,406,c)
);
},
{
closed = 1;
nodes = (
(327,451,o),
(329,458,o),
(329,461,c),
(329,465,o),
(329,468,o),
(327,461,c),
(323,461,o),
(316,458,o),
(313,458,c),
(307,458,o),
(307,458,o),
(307,454,c),
(304,451,o),
(307,448,o),
(311,448,c),
(316,448,o),
(320,448,o),
(320,444,c),
(320,444,o),
(323,448,o),
(327,451,c)
);
},
{
closed = 1;
nodes = (
(388,461,o),
(388,461,o),
(388,458,c),
(388,454,o),
(388,454,o),
(388,454,c),
(390,454,o),
(390,458,o),
(388,458,c)
);
},
{
closed = 1;
nodes = (
(232,485,o),
(242,513,o),
(242,513,c),
(242,513,o),
(235,509,o),
(232,503,c),
(226,496,o),
(219,489,o),
(219,482,c),
(219,475,o),
(216,468,o),
(216,465,c),
(213,454,o),
(216,458,o),
(226,472,c)
);
},
{
closed = 1;
nodes = (
(281,509,o),
(291,527,o),
(291,527,c),
(287,527,o),
(268,499,o),
(262,482,c),
(259,468,o),
(255,461,o),
(255,461,c),
(255,461,o),
(262,472,o),
(268,482,c)
);
},
{
closed = 1;
nodes = (
(187,482,o),
(181,468,o),
(181,465,c),
(181,465,o),
(184,465,o),
(184,472,c),
(187,475,o),
(187,478,o),
(187,482,c)
);
},
{
closed = 1;
nodes = (
(381,513,o),
(381,513,o),
(385,496,c),
(385,472,o),
(388,465,o),
(390,482,c),
(390,492,o),
(388,499,o),
(388,506,c)
);
},
{
closed = 1;
nodes = (
(333,503,o),
(329,503,o),
(329,496,c),
(323,489,o),
(323,485,o),
(329,489,c),
(329,492,o),
(333,496,o),
(333,499,c)
);
},
{
closed = 1;
nodes = (
(352,530,o),
(352,527,o),
(352,523,c),
(352,520,o),
(352,516,o),
(352,520,c),
(352,520,o),
(352,523,o),
(352,527,c)
);
},
{
closed = 1;
nodes = (
(307,592,o),
(307,595,o),
(307,599,c),
(304,602,o),
(304,602,o),
(300,595,c),
(300,592,o),
(297,589,o),
(297,585,c),
(294,585,o),
(297,585,o),
(300,589,c),
(304,589,o),
(307,592,o),
(307,592,c)
);
},
{
closed = 1;
nodes = (
(313,616,o),
(307,616,o),
(307,616,c),
(307,613,o),
(307,613,o),
(311,613,c),
(311,613,o),
(313,613,o),
(313,616,c)
);
},
{
closed = 1;
nodes = (
(278,630,o),
(281,633,o),
(281,637,c),
(284,640,o),
(284,640,o),
(271,647,c),
(262,650,o),
(262,650,o),
(252,647,c),
(242,644,o),
(242,644,o),
(252,644,c),
(264,644,o),
(264,644,o),
(264,633,c),
(262,623,o),
(262,619,o),
(264,626,c),
(268,630,o),
(271,630,o),
(275,630,c)
);
},
{
closed = 1;
nodes = (
(80,630,o),
(80,630,o),
(80,626,c),
(80,623,o),
(80,623,o),
(80,623,c),
(80,626,o),
(80,626,o),
(80,630,c)
);
},
{
closed = 1;
nodes = (
(113,640,o),
(109,640,o),
(106,644,c),
(100,644,o),
(100,644,o),
(106,637,c),
(109,626,o),
(109,626,o),
(113,633,c),
(113,637,o),
(116,637,o),
(113,640,c)
);
}
);
width = 440;
}
);
unicode = 68;
},
{
glyphname = E;
lastChange = "2026-05-04 04:33:07 +0000";
layers = (
{
layerId = m01;
shapes = (
{
closed = 1;
nodes = (
(216,18,o),
(176,18,o),
(99,22,c),
(25,22,l),
(21,42,l),
(18,52,o),
(18,66,o),
(18,73,c),
(18,77,o),
(16,83,o),
(16,83,c),
(12,87,o),
(12,94,o),
(16,97,c),
(18,97,o),
(18,104,o),
(18,118,c),
(18,128,o),
(21,159,o),
(25,187,c),
(28,228,o),
(28,242,o),
(25,248,c),
(21,252,o),
(21,259,o),
(25,272,c),
(25,286,o),
(25,310,o),
(25,345,c),
(21,417,o),
(21,578,o),
(25,627,c),
(28,664,o),
(28,664,o),
(21,668,c),
(18,671,o),
(18,675,o),
(18,678,c),
(18,685,o),
(32,688,o),
(48,685,c),
(54,682,o),
(57,685,o),
(57,688,c),
(61,695,o),
(67,702,o),
(70,699,c),
(70,699,o),
(70,695,o),
(70,695,c),
(70,685,o),
(73,685,o),
(90,692,c),
(109,699,o),
(119,699,o),
(122,692,c),
(125,688,o),
(131,688,o),
(193,695,c),
(245,702,o),
(361,716,o),
(380,716,c),
(383,716,o),
(383,713,o),
(383,713,c),
(380,713,o),
(348,706,o),
(306,699,c),
(264,692,o),
(228,685,o),
(225,685,c),
(223,685,o),
(232,685,o),
(248,685,c),
(268,685,o),
(277,685,o),
(277,685,c),
(280,688,o),
(284,688,o),
(284,688,c),
(286,688,o),
(300,685,o),
(316,685,c),
(374,682,o),
(378,682,o),
(371,668,c),
(367,658,o),
(367,658,o),
(374,668,c),
(383,675,o),
(387,675,o),
(387,671,c),
(387,664,o),
(268,534,o),
(206,475,c),
(187,455,o),
(167,437,o),
(171,437,c),
(171,434,o),
(183,431,o),
(193,431,c),
(232,424,o),
(303,407,o),
(313,400,c),
(316,396,o),
(322,396,o),
(326,396,c),
(332,396,o),
(345,389,o),
(348,382,c),
(348,379,o),
(351,379,o),
(358,379,c),
(364,379,o),
(367,379,o),
(371,372,c),
(371,369,o),
(374,365,o),
(374,365,c),
(367,355,o),
(277,321,o),
(248,317,c),
(245,314,o),
(241,314,o),
(241,314,c),
(241,314,o),
(264,314,o),
(286,317,c),
(332,324,o),
(351,327,o),
(348,324,c),
(348,324,o),
(277,307,o),
(225,297,c),
(147,283,o),
(135,279,o),
(135,272,c),
(135,269,o),
(147,262,o),
(171,248,c),
(187,238,o),
(209,224,o),
(216,221,c),
(232,211,o),
(245,200,o),
(297,173,c),
(316,162,o),
(332,152,o),
(335,149,c),
(338,142,o),
(345,138,o),
(355,132,c),
(361,128,o),
(374,121,o),
(380,114,c),
(383,107,o),
(396,97,o),
(407,94,c),
(423,83,o),
(426,83,o),
(429,73,c),
(429,70,o),
(429,63,o),
(432,59,c),
(432,52,o),
(423,49,o),
(380,42,c),
(332,39,o),
(254,35,o),
(248,39,c),
(245,39,o),
(225,42,o),
(203,42,c),
(167,42,l),
(203,39,l),
(245,35,o),
(309,25,o),
(364,11,c),
(432,-3,o),
(426,-6,o),
(332,4,c)
);
},
{
closed = 1;
nodes = (
(57,104,o),
(57,111,o),
(57,111,c),
(57,114,o),
(54,118,o),
(54,118,c),
(54,118,o),
(50,111,o),
(50,107,c),
(50,97,o),
(50,97,o),
(54,97,c),
(57,97,o),
(57,97,o),
(57,101,c)
);
},
{
closed = 1;
nodes = (
(135,248,o),
(135,248,o),
(135,242,c),
(135,242,o),
(142,238,o),
(147,235,c),
(164,228,o),
(164,228,o),
(151,238,c)
);
},
{
closed = 1;
nodes = (
(142,317,o),
(135,317,o),
(135,310,c),
(135,307,o),
(135,310,o),
(147,314,c),
(160,317,o),
(160,317,o),
(154,317,c)
);
},
{
closed = 1;
nodes = (
(270,372,o),
(270,372,o),
(257,372,c),
(254,372,o),
(248,372,o),
(248,369,c),
(248,365,o),
(251,365,o),
(264,369,c)
);
},
{
closed = 1;
nodes = (
(329,372,o),
(329,376,o),
(326,376,c),
(326,376,o),
(322,372,o),
(322,372,c),
(322,369,o),
(326,369,o),
(326,369,c),
(326,369,o),
(329,369,o),
(329,372,c)
);
},
{
closed = 1;
nodes = (
(164,554,o),
(164,558,o),
(160,554,c),
(158,554,o),
(154,548,o),
(147,541,c),
(142,527,o),
(138,520,o),
(147,534,c),
(151,537,o),
(154,544,o),
(160,548,c)
);
},
{
closed = 1;
nodes = (
(142,575,o),
(135,572,o),
(135,568,c),
(135,565,o),
(138,568,o),
(142,568,c),
(144,572,o),
(144,575,o),
(144,575,c)
);
},
{
closed = 1;
nodes = (
(303,606,o),
(303,606,o),
(300,603,c),
(300,599,o),
(297,599,o),
(297,596,c),
(297,596,o),
(300,596,o),
(303,599,c)
);
},
{
closed = 1;
nodes = (
(261,651,o),
(264,654,o),
(254,654,c),
(248,654,o),
(245,651,o),
(238,644,c),
(232,630,o),
(232,630,o),
(248,640,c)
);
},
{
closed = 1;
nodes = (
(216,651,o),
(212,654,o),
(209,654,c),
(206,654,o),
(203,651,o),
(199,644,c),
(193,633,o),
(193,633,o),
(206,644,c),
(212,647,o),
(216,651,o),
(216,651,c)
);
},
{
closed = 1;
nodes = (
(48,647,o),
(48,647,o),
(48,647,c),
(41,644,o),
(41,640,o),
(44,640,c),
(48,640,o),
(48,640,o),
(48,644,c)
);
}
);
width = 450;
}
);
unicode = 69;
},
{
glyphname = F;
lastChange = "2026-05-04 04:38:26 +0000";
layers = (
{
layerId = m01;
shapes = (
{
closed = 1;
nodes = (
(168,4,o),
(170,11,o),
(173,15,c),
(178,22,o),
(178,25,o),
(164,28,c),
(150,32,o),
(150,32,o),
(150,28,c),
(150,25,o),
(147,25,o),
(147,25,c),
(144,25,o),
(142,22,o),
(142,18,c),
(142,15,o),
(138,15,o),
(135,15,c),
(126,18,o),
(106,25,o),
(86,25,c),
(65,25,o),
(65,25,o),
(62,18,c),
(57,8,o),
(54,8,o),
(36,32,c),
(33,35,o),
(31,42,o),
(33,42,c),
(33,49,o),
(45,49,o),
(51,46,c),
(51,46,o),
(54,46,o),
(54,46,c),
(54,46,o),
(54,49,o),
(51,52,c),
(43,59,o),
(43,63,o),
(45,87,c),
(48,107,o),
(48,114,o),
(45,118,c),
(43,121,o),
(43,132,o),
(39,138,c),
(36,162,o),
(33,245,o),
(33,283,c),
(36,317,o),
(36,317,o),
(33,290,c),
(22,204,o),
(17,159,o),
(17,162,c),
(13,162,o),
(13,173,o),
(17,187,c),
(17,200,o),
(17,235,o),
(18,262,c),
(18,293,o),
(25,362,o),
(28,420,c),
(33,496,o),
(36,544,o),
(36,603,c),
(39,675,o),
(39,678,o),
(33,682,c),
(25,692,o),
(31,699,o),
(48,699,c),
(57,702,o),
(65,702,o),
(65,702,c),
(69,702,o),
(69,702,o),
(71,699,c),
(71,695,o),
(77,695,o),
(138,695,c),
(205,695,o),
(205,695,o),
(211,702,c),
(216,713,o),
(223,713,o),
(229,702,c),
(231,699,o),
(231,699,o),
(301,699,c),
(365,702,o),
(371,702,o),
(374,699,c),
(376,695,o),
(376,692,o),
(376,688,c),
(376,685,o),
(380,685,o),
(388,688,c),
(406,692,o),
(443,688,o),
(449,685,c),
(461,675,o),
(461,675,o),
(409,620,c),
(388,599,o),
(365,575,o),
(357,568,c),
(330,541,o),
(289,503,o),
(289,506,c),
(289,510,o),
(303,527,o),
(318,544,c),
(336,568,o),
(342,578,o),
(336,575,c),
(333,572,o),
(307,554,o),
(284,541,c),
(231,506,o),
(199,486,o),
(199,482,c),
(199,479,o),
(263,455,o),
(292,448,c),
(301,444,o),
(310,441,o),
(312,437,c),
(315,434,o),
(324,431,o),
(336,427,c),
(344,420,o),
(371,410,o),
(391,400,c),
(414,389,o),
(435,379,o),
(441,379,c),
(449,376,o),
(453,376,o),
(457,369,c),
(464,358,o),
(464,352,o),
(455,345,c),
(443,338,o),
(435,338,o),
(328,327,c),
(281,321,l),
(318,317,l),
(365,314,o),
(423,307,o),
(428,303,c),
(435,303,o),
(420,303,o),
(391,303,c),
(368,303,o),
(312,307,o),
(272,307,c),
(199,307,o),
(194,307,o),
(194,303,c),
(190,297,o),
(199,245,o),
(205,214,c),
(208,200,o),
(211,190,o),
(208,190,c),
(208,190,o),
(205,197,o),
(199,207,c),
(196,217,o),
(194,224,o),
(194,221,c),
(194,211,o),
(196,121,o),
(199,101,c),
(199,63,o),
(196,87,o),
(194,128,c),
(187,169,l),
(187,111,l),
(187,56,o),
(187,52,o),
(194,49,c),
(196,49,o),
(196,49,o),
(196,46,c),
(199,32,o),
(196,28,o),
(194,25,c),
(187,22,o),
(187,22,o),
(190,11,c),
(190,-3,o),
(187,-6,o),
(182,4,c),
(176,11,o),
(176,11,o),
(173,4,c),
(170,-3,o),
(168,-3,o),
(168,1,c)
);
},
{
closed = 1;
nodes = (
(109,66,o),
(106,77,o),
(103,90,c),
(95,114,o),
(95,114,o),
(95,101,c),
(95,94,o),
(95,83,o),
(98,80,c),
(98,77,o),
(101,70,o),
(101,70,c),
(101,66,o),
(109,63,o),
(109,66,c)
);
},
{
closed = 1;
nodes = (
(98,207,o),
(98,200,o),
(98,187,c),
(101,173,l),
(101,187,l),
(101,197,o),
(101,204,o),
(101,204,c)
);
},
{
closed = 1;
nodes = (
(51,331,o),
(48,331,o),
(48,327,c),
(48,321,o),
(48,321,o),
(51,321,c),
(51,324,o),
(51,327,o),
(51,331,c)
);
},
{
closed = 1;
nodes = (
(214,389,o),
(211,389,o),
(208,389,c),
(205,393,o),
(199,393,o),
(199,393,c),
(196,396,o),
(194,393,o),
(194,389,c),
(194,386,o),
(196,386,o),
(205,386,c),
(211,386,o),
(216,386,o),
(216,386,c)
);
},
{
closed = 1;
nodes = (
(318,396,o),
(315,396,o),
(318,393,c),
(321,389,o),
(328,389,o),
(333,386,c),
(333,386,o),
(333,389,o),
(328,389,c)
);
},
{
closed = 1;
nodes = (
(48,496,o),
(48,492,o),
(48,489,c),
(48,482,o),
(48,479,o),
(48,482,c),
(48,486,o),
(48,489,o),
(48,492,c)
);
},
{
closed = 1;
nodes = (
(147,510,o),
(147,513,o),
(147,510,c),
(144,503,o),
(144,486,o),
(144,489,c),
(147,489,o),
(147,496,o),
(147,503,c)
);
},
{
closed = 1;
nodes = (
(216,530,o),
(214,530,o),
(208,527,c),
(205,523,o),
(202,523,o),
(202,520,c),
(202,520,o),
(205,520,o),
(208,523,c),
(214,527,o),
(216,530,o),
(216,530,c)
);
},
{
closed = 1;
nodes = (
(117,627,o),
(117,630,o),
(116,630,c),
(116,630,o),
(116,630,o),
(116,623,c),
(116,616,o),
(116,613,o),
(116,616,c),
(117,620,o),
(117,623,o),
(117,623,c)
);
},
{
closed = 1;
nodes = (
(89,654,o),
(89,654,o),
(86,633,c),
(86,616,l),
(89,633,l),
(95,644,o),
(95,651,o),
(91,651,c)
);
},
{
closed = 1;
nodes = (
(144,647,o),
(144,654,o),
(147,658,c),
(147,661,o),
(147,664,o),
(142,661,c),
(135,661,o),
(132,661,o),
(132,658,c),
(132,658,o),
(132,654,o),
(135,651,c),
(138,633,o),
(144,630,o),
(144,644,c)
);
},
{
closed = 1;
nodes = (
(190,654,o),
(190,661,o),
(190,661,c),
(194,664,o),
(190,664,o),
(187,664,c),
(182,664,o),
(182,664,o),
(182,661,c),
(185,658,o),
(185,651,o),
(185,647,c),
(187,640,o),
(190,640,o),
(190,651,c)
);
}
);
width = 471;
}
);
unicode = 70;
},
{
glyphname = G;
lastChange = "2026-05-04 04:38:36 +0000";
layers = (
{
layerId = m01;
shapes = (
{
closed = 1;
nodes = (
(252,7,o),
(234,11,o),
(209,19,c),
(172,36,o),
(139,57,o),
(108,90,c),
(98,101,o),
(93,104,o),
(89,104,c),
(82,104,o),
(74,115,o),
(65,140,c),
(59,154,o),
(49,179,o),
(43,194,c),
(27,223,o),
(21,248,o),
(16,283,c),
(9,316,o),
(9,380,o),
(16,412,c),
(24,480,o),
(52,537,o),
(93,584,c),
(101,599,o),
(108,605,o),
(104,605,c),
(101,602,o),
(82,592,o),
(67,580,c),
(52,570,o),
(37,562,o),
(37,562,c),
(37,567,o),
(34,562,o),
(61,592,c),
(108,634,o),
(147,659,o),
(197,681,c),
(241,699,o),
(268,702,o),
(305,702,c),
(345,702,o),
(364,699,o),
(410,677,c),
(441,662,o),
(441,662,o),
(438,649,c),
(434,642,o),
(431,642,o),
(427,642,c),
(427,642,o),
(426,637,o),
(426,637,c),
(426,637,o),
(422,630,o),
(419,627,c),
(416,627,o),
(394,599,o),
(372,567,c),
(351,537,o),
(318,491,o),
(299,466,c),
(280,441,o),
(262,420,o),
(259,416,c),
(252,405,o),
(252,405,o),
(357,405,c),
(416,405,o),
(459,405,o),
(462,405,c),
(466,401,o),
(468,401,o),
(471,405,c),
(484,408,o),
(484,405,o),
(484,376,c),
(484,362,o),
(484,355,o),
(487,351,c),
(489,351,o),
(489,351,o),
(487,351,c),
(484,351,o),
(484,351,o),
(481,355,c),
(481,355,o),
(481,341,o),
(477,319,c),
(477,298,o),
(474,273,o),
(474,266,c),
(474,251,o),
(474,251,o),
(481,280,c),
(487,294,o),
(489,311,o),
(493,319,c),
(496,330,o),
(499,337,o),
(499,326,c),
(499,323,o),
(487,219,o),
(481,176,c),
(474,144,o),
(468,82,o),
(468,69,c),
(468,61,o),
(468,61,o),
(505,82,c),
(524,94,o),
(539,101,o),
(539,101,c),
(539,94,o),
(493,54,o),
(474,44,c),
(434,22,o),
(391,7,o),
(348,4,c),
(339,4,o),
(323,4,o),
(318,4,c),
(311,0,o),
(295,4,o),
(284,4,c)
);
},
{
closed = 1;
nodes = (
(307,44,o),
(305,47,o),
(299,44,c),
(290,40,o),
(292,32,o),
(302,32,c),
(305,32,o),
(307,32,o),
(307,36,c)
);
},
{
closed = 1;
nodes = (
(342,44,o),
(339,44,o),
(333,40,c),
(323,36,o),
(323,36,o),
(333,36,c),
(336,36,o),
(339,36,o),
(342,40,c)
);
},
{
closed = 1;
nodes = (
(172,82,o),
(166,86,o),
(166,86,c),
(166,86,o),
(166,82,o),
(170,79,c),
(170,72,o),
(182,65,o),
(187,61,c),
(187,61,o),
(185,69,o),
(179,76,c)
);
},
{
closed = 1;
nodes = (
(305,79,o),
(305,79,o),
(286,72,c),
(284,69,o),
(277,65,o),
(277,65,c),
(277,61,o),
(280,61,o),
(292,72,c)
);
},
{
closed = 1;
nodes = (
(456,101,o),
(456,101,o),
(447,94,c),
(441,86,o),
(434,82,o),
(434,82,c),
(431,82,o),
(431,79,o),
(431,79,c),
(434,76,o),
(453,82,o),
(453,90,c)
);
},
{
closed = 1;
nodes = (
(262,108,o),
(246,97,o),
(246,94,c),
(246,94,o),
(252,94,o),
(256,97,c),
(262,101,o),
(264,104,o),
(264,104,c)
);
},
{
closed = 1;
nodes = (
(203,104,o),
(203,104,o),
(201,104,c),
(201,108,o),
(197,108,o),
(191,104,c),
(187,104,o),
(185,101,o),
(185,101,c),
(185,97,o),
(191,97,o),
(194,101,c),
(194,101,o),
(197,104,o),
(201,104,c)
);
},
{
closed = 1;
nodes = (
(397,104,o),
(394,104,o),
(394,108,c),
(391,111,o),
(388,108,o),
(385,104,c),
(379,97,o),
(379,97,o),
(388,101,c),
(391,101,o),
(397,104,o),
(397,104,c)
);
},
{
closed = 1;
nodes = (
(447,147,o),
(447,158,o),
(447,158,c),
(447,161,o),
(447,154,o),
(444,140,c),
(434,115,o),
(438,119,o),
(438,119,c),
(438,119,o),
(441,126,o),
(444,136,c)
);
},
{
closed = 1;
nodes = (
(449,172,o),
(449,172,o),
(447,169,c),
(447,166,o),
(449,166,o),
(449,166,c),
(449,166,o),
(449,169,o),
(449,169,c)
);
},
{
closed = 1;
nodes = (
(222,283,o),
(222,283,o),
(219,283,c),
(219,283,o),
(216,283,o),
(216,280,c),
(216,280,o),
(219,276,o),
(219,276,c),
(222,276,o),
(222,280,o),
(222,280,c)
);
},
{
closed = 1;
nodes = (
(37,316,o),
(37,323,o),
(34,323,c),
(34,323,o),
(34,311,o),
(37,301,c),
(37,294,o),
(37,286,o),
(37,286,c),
(40,286,o),
(40,294,o),
(37,305,c)
);
},
{
closed = 1;
nodes = (
(456,311,o),
(459,319,o),
(459,323,c),
(459,326,o),
(459,326,o),
(456,323,c),
(453,316,o),
(449,301,o),
(453,301,c),
(456,301,o),
(456,305,o),
(456,308,c)
);
},
{
closed = 1;
nodes = (
(34,348,o),
(34,344,o),
(34,341,c),
(34,333,o),
(34,333,o),
(34,333,c),
(34,337,o),
(34,341,o),
(34,344,c)
);
},
{
closed = 1;
nodes = (
(52,369,o),
(52,366,o),
(52,362,c),
(52,358,o),
(52,355,o),
(52,358,c),
(52,358,o),
(52,362,o),
(52,366,c)
);
},
{
closed = 1;
nodes = (
(123,373,o),
(123,376,o),
(123,380,c),
(121,383,o),
(121,380,o),
(121,376,c),
(121,369,o),
(121,366,o),
(123,373,c)
);
},
{
closed = 1;
nodes = (
(228,383,o),
(228,383,o),
(216,380,c),
(209,380,o),
(206,380,o),
(206,376,c),
(206,369,o),
(206,369,o),
(219,376,c)
);
},
{
closed = 1;
nodes = (
(462,373,o),
(466,376,o),
(466,380,c),
(466,383,o),
(462,383,o),
(453,383,c),
(447,383,o),
(441,380,o),
(444,380,c),
(444,380,o),
(447,376,o),
(447,376,c),
(447,373,o),
(447,373,o),
(449,373,c),
(453,373,o),
(456,376,o),
(459,373,c)
);
},
{
closed = 1;
nodes = (
(243,380,o),
(241,383,o),
(237,383,c),
(231,383,o),
(231,380,o),
(234,380,c),
(237,376,o),
(243,380,o),
(243,380,c)
);
},
{
closed = 1;
nodes = (
(268,380,o),
(264,383,o),
(262,383,c),
(262,383,o),
(259,380,o),
(259,380,c),
(259,380,o),
(262,376,o),
(262,380,c),
(264,380,o),
(268,380,o),
(268,380,c)
);
},
{
closed = 1;
nodes = (
(372,383,o),
(369,383,o),
(364,383,c),
(357,383,o),
(354,383,o),
(351,380,c),
(351,376,o),
(351,376,o),
(357,376,c),
(364,380,o),
(366,380,o),
(369,383,c)
);
},
{
closed = 1;
nodes = (
(422,383,o),
(422,383,o),
(419,383,c),
(419,383,o),
(419,383,o),
(422,383,c),
(426,383,o),
(426,383,o),
(426,383,c)
);
},
{
closed = 1;
nodes = (
(268,445,o),
(277,458,o),
(284,470,c),
(290,477,o),
(292,483,o),
(292,483,c),
(292,483,o),
(280,470,o),
(268,452,c),
(259,433,o),
(246,420,o),
(243,416,c),
(237,408,o),
(237,405,o),
(243,405,c),
(246,405,o),
(252,416,o),
(262,430,c)
);
},
{
closed = 1;
nodes = (
(43,433,o),
(43,430,o),
(40,423,c),
(40,416,o),
(40,416,o),
(40,416,c),
(43,416,o),
(43,420,o),
(43,423,c)
);
},
{
closed = 1;
nodes = (
(74,445,o),
(74,448,o),
(71,448,c),
(67,448,o),
(65,441,o),
(65,433,c),
(65,430,o),
(65,426,o),
(67,430,c),
(71,433,o),
(71,437,o),
(71,441,c)
);
},
{
closed = 1;
nodes = (
(82,487,o),
(80,487,o),
(74,473,c),
(67,462,o),
(67,462,o),
(74,466,c),
(74,470,o),
(80,473,o),
(80,477,c)
);
},
{
closed = 1;
nodes = (
(96,545,o),
(96,548,o),
(96,548,c),
(93,552,o),
(61,491,o),
(61,483,c),
(61,483,o),
(93,534,o),
(96,542,c)
);
},
{
closed = 1;
nodes = (
(108,516,o),
(104,512,o),
(101,509,c),
(98,505,o),
(96,498,o),
(96,498,c),
(96,495,o),
(96,498,o),
(98,502,c),
(101,505,o),
(104,509,o),
(104,512,c)
);
},
{
closed = 1;
nodes = (
(144,509,o),
(144,512,o),
(144,512,c),
(144,512,o),
(142,509,o),
(139,505,c),
(136,502,o),
(132,498,o),
(136,498,c),
(136,498,o),
(139,502,o),
(142,505,c)
);
},
{
closed = 1;
nodes = (
(348,567,o),
(354,577,o),
(354,577,c),
(354,577,o),
(345,567,o),
(333,555,c),
(318,534,o),
(314,530,o),
(318,530,c),
(321,530,o),
(326,537,o),
(339,555,c)
);
},
{
closed = 1;
nodes = (
(295,552,o),
(295,552,o),
(292,552,c),
(292,552,o),
(290,555,o),
(286,559,c),
(284,567,o),
(284,567,o),
(280,559,c),
(277,555,o),
(277,555,o),
(280,555,c),
(284,555,o),
(286,545,o),
(284,542,c),
(284,537,o),
(286,542,o),
(290,545,c),
(292,548,o),
(295,552,o),
(295,552,c)
);
},
{
closed = 1;
nodes = (
(191,555,o),
(187,555,o),
(185,552,c),
(182,545,o),
(182,542,o),
(187,548,c),
(191,552,o),
(191,555,o),
(191,555,c)
);
},
{
closed = 1;
nodes = (
(144,602,o),
(147,605,o),
(136,595,c),
(123,584,o),
(114,570,o),
(114,562,c),
(114,562,o),
(114,562,o),
(117,567,c),
(121,570,o),
(123,577,o),
(129,584,c)
);
},
{
closed = 1;
nodes = (
(216,577,o),
(213,577,o),
(213,577,c),
(213,577,o),
(209,573,o),
(209,573,c),
(209,570,o),
(213,570,o),
(213,570,c),
(213,573,o),
(216,573,o),
(216,577,c)
);
},
{
closed = 1;
nodes = (
(182,630,o),
(182,634,o),
(175,630,c),
(170,627,o),
(170,624,o),
(172,624,c),
(172,624,o),
(175,627,o),
(179,627,c)
);
},
{
closed = 1;
nodes = (
(410,649,o),
(407,652,o),
(407,652,c),
(407,652,o),
(404,652,o),
(404,649,c),
(404,645,o),
(407,645,o),
(407,649,c)
);
},
{
closed = 1;
nodes = (
(321,674,o),
(321,674,o),
(314,674,c),
(311,674,o),
(307,674,o),
(307,670,c),
(307,670,o),
(302,667,o),
(295,662,c),
(292,659,o),
(290,656,o),
(290,656,c),
(290,652,o),
(305,662,o),
(314,670,c)
);
},
{
closed = 1;
nodes = (
(252,667,o),
(243,662,o),
(241,659,c),
(241,656,o),
(241,656,o),
(246,659,c),
(249,662,o),
(252,667,o),
(252,667,c)
);
},
{
closed = 1;
nodes = (
(354,674,o),
(351,674,o),
(348,674,c),
(342,674,o),
(339,674,o),
(339,670,c),
(339,667,o),
(339,667,o),
(342,670,c),
(345,670,o),
(348,670,o),
(351,674,c)
);
}
);
width = 542;
}
);
unicode = 71;
},
{
glyphname = H;
lastChange = "2026-05-04 04:38:43 +0000";
layers = (
{
layerId = m01;
shapes = (
{
closed = 1;
nodes = (
(37,54,o),
(34,127,o),
(34,217,c),
(34,304,o),
(30,356,o),
(30,345,c),
(27,300,o),
(14,221,o),
(14,221,c),
(11,217,o),
(11,288,o),
(14,345,c),
(14,372,o),
(21,432,o),
(24,477,c),
(30,564,o),
(37,652,o),
(34,671,c),
(30,678,o),
(30,682,o),
(27,682,c),
(21,682,o),
(21,685,o),
(27,693,c),
(30,700,o),
(40,700,o),
(66,700,c),
(76,700,o),
(128,697,o),
(144,693,c),
(166,693,o),
(166,693,o),
(173,697,c),
(176,697,o),
(176,705,o),
(176,705,c),
(176,708,o),
(180,712,o),
(180,716,c),
(185,719,o),
(192,712,o),
(192,705,c),
(192,700,o),
(192,697,o),
(192,697,c),
(196,693,o),
(196,644,o),
(198,557,c),
(198,482,o),
(198,417,o),
(198,417,c),
(198,417,o),
(221,417,o),
(247,417,c),
(292,421,l),
(292,463,l),
(295,504,o),
(299,584,o),
(299,640,c),
(299,659,o),
(302,678,o),
(302,682,c),
(306,693,o),
(308,693,o),
(370,700,c),
(425,705,o),
(434,705,o),
(434,705,c),
(438,682,o),
(438,316,o),
(434,319,c),
(434,327,o),
(425,432,o),
(421,489,c),
(421,519,o),
(418,527,o),
(418,516,c),
(416,504,o),
(425,251,o),
(432,175,c),
(434,115,o),
(441,46,o),
(441,43,c),
(444,35,o),
(434,35,o),
(386,35,c),
(360,40,o),
(331,40,o),
(318,40,c),
(308,40,o),
(299,40,o),
(299,40,c),
(295,43,o),
(292,46,o),
(292,66,c),
(292,77,o),
(292,111,o),
(289,141,c),
(289,172,o),
(289,224,o),
(289,258,c),
(289,308,o),
(286,322,o),
(286,322,c),
(283,322,o),
(263,322,o),
(241,319,c),
(221,316,o),
(202,316,o),
(198,316,c),
(198,316,o),
(198,293,o),
(198,266,c),
(198,198,o),
(198,66,o),
(198,66,c),
(196,69,o),
(189,183,o),
(185,251,c),
(185,296,o),
(185,316,o),
(182,311,c),
(176,304,o),
(180,40,o),
(185,24,c),
(192,13,o),
(173,9,o),
(137,17,c),
(121,17,o),
(121,17,o),
(121,13,c),
(124,6,o),
(121,6,o),
(115,9,c),
(111,13,o),
(108,13,o),
(88,13,c),
(53,6,o),
(50,6,o),
(50,1,c),
(50,-2,o),
(47,-2,o),
(43,-2,c),
(43,-2,o),
(40,6,o),
(37,32,c)
);
},
{
closed = 1;
nodes = (
(137,54,o),
(134,74,o),
(131,93,c),
(124,134,o),
(124,127,o),
(128,77,c),
(131,54,o),
(131,46,o),
(134,46,c),
(137,46,o),
(137,46,o),
(137,51,c)
);
},
{
closed = 1;
nodes = (
(311,58,o),
(311,62,o),
(308,66,c),
(308,66,o),
(306,74,o),
(302,80,c),
(302,96,o),
(302,96,o),
(299,77,c),
(299,58,o),
(302,54,o),
(306,58,c),
(306,58,o),
(308,58,o),
(311,58,c)
);
},
{
closed = 1;
nodes = (
(409,66,o),
(409,69,o),
(409,80,c),
(405,88,o),
(405,93,o),
(405,93,c),
(402,93,o),
(399,88,o),
(399,85,c),
(396,80,o),
(389,77,o),
(389,77,c),
(386,77,o),
(380,69,o),
(376,66,c),
(376,62,o),
(399,62,o),
(405,62,c)
);
},
{
closed = 1;
nodes = (
(363,96,o),
(363,96,o),
(363,93,c),
(363,88,o),
(363,88,o),
(363,88,c),
(367,88,o),
(367,93,o),
(363,93,c)
);
},
{
closed = 1;
nodes = (
(344,111,o),
(335,119,o),
(331,119,c),
(328,119,o),
(335,100,o),
(335,96,c),
(338,93,o),
(344,100,o),
(344,107,c)
);
},
{
closed = 1;
nodes = (
(124,145,o),
(124,145,o),
(124,141,c),
(124,138,o),
(124,138,o),
(124,138,c),
(124,138,o),
(124,141,o),
(124,141,c)
);
},
{
closed = 1;
nodes = (
(376,258,o),
(376,258,o),
(373,251,c),
(367,240,o),
(363,217,o),
(367,209,c),
(370,198,o),
(373,209,o),
(373,232,c)
);
},
{
closed = 1;
nodes = (
(88,255,l),
(88,232,l),
(86,217,o),
(88,209,o),
(88,213,c),
(92,213,o),
(92,221,o),
(88,235,c)
);
},
{
closed = 1;
nodes = (
(131,330,o),
(131,330,o),
(131,327,c),
(131,322,o),
(131,322,o),
(131,322,c),
(134,327,o),
(134,327,o),
(131,330,c)
);
},
{
closed = 1;
nodes = (
(335,342,o),
(335,338,o),
(335,334,c),
(335,330,o),
(335,330,o),
(335,330,c),
(338,334,o),
(338,338,o),
(335,338,c)
);
},
{
closed = 1;
nodes = (
(131,353,o),
(131,353,o),
(131,349,c),
(131,345,o),
(131,345,o),
(131,345,c),
(134,349,o),
(134,349,o),
(131,353,c)
);
},
{
closed = 1;
nodes = (
(318,364,o),
(315,364,o),
(315,364,c),
(315,364,o),
(311,364,o),
(311,361,c),
(311,356,o),
(315,353,o),
(315,353,c),
(315,353,o),
(318,356,o),
(318,361,c)
);
},
{
closed = 1;
nodes = (
(59,387,o),
(59,402,o),
(56,409,c),
(56,429,l),
(56,409,l),
(56,398,o),
(53,383,o),
(53,376,c),
(53,364,o),
(53,364,o),
(56,364,c),
(59,364,o),
(59,368,o),
(59,379,c)
);
},
{
closed = 1;
nodes = (
(104,372,o),
(104,372,o),
(104,372,c),
(102,372,o),
(102,372,o),
(102,368,c),
(102,368,o),
(102,364,o),
(102,364,c),
(102,364,o),
(104,368,o),
(104,368,c)
);
},
{
closed = 1;
nodes = (
(34,387,o),
(34,387,o),
(34,383,c),
(34,379,o),
(34,379,o),
(34,379,c),
(37,383,o),
(37,383,o),
(34,387,c)
);
},
{
closed = 1;
nodes = (
(76,443,o),
(76,440,o),
(76,424,c),
(76,413,o),
(76,406,o),
(76,413,c),
(76,421,o),
(76,432,o),
(76,437,c)
);
},
{
closed = 1;
nodes = (
(185,482,o),
(185,500,o),
(185,500,c),
(185,500,o),
(182,482,o),
(182,459,c),
(182,424,o),
(182,413,o),
(182,413,c),
(185,413,o),
(185,429,o),
(185,459,c)
);
},
{
closed = 1;
nodes = (
(324,587,o),
(324,587,o),
(322,587,c),
(322,587,o),
(318,584,o),
(318,579,c),
(322,572,o),
(322,572,o),
(322,576,c),
(324,579,o),
(324,584,o),
(324,587,c)
);
},
{
closed = 1;
nodes = (
(102,621,o),
(99,629,o),
(99,629,c),
(99,629,o),
(95,624,o),
(95,618,c),
(95,602,o),
(99,602,o),
(99,618,c)
);
},
{
closed = 1;
nodes = (
(111,648,o),
(111,648,o),
(115,640,c),
(118,637,o),
(121,637,o),
(121,637,c),
(121,640,o),
(121,644,o),
(118,644,c)
);
},
{
closed = 1;
nodes = (
(392,663,o),
(396,666,o),
(399,666,c),
(402,666,o),
(405,671,o),
(405,671,c),
(405,674,o),
(402,674,o),
(399,674,c),
(396,674,o),
(389,671,o),
(383,671,c),
(373,671,o),
(373,666,o),
(376,659,c),
(380,652,o),
(383,652,o),
(389,659,c)
);
},
{
closed = 1;
nodes = (
(124,674,o),
(124,674,o),
(115,674,c),
(102,674,o),
(102,674,o),
(111,671,c),
(124,666,o),
(124,666,o),
(124,671,c)
);
},
{
closed = 1;
nodes = (
(318,674,o),
(318,674,o),
(318,674,c),
(315,674,o),
(315,674,o),
(315,671,c),
(318,666,o),
(318,666,o),
(318,666,c),
(318,666,o),
(318,666,o),
(318,671,c)
);
},
{
closed = 1;
nodes = (
(150,674,o),
(150,678,o),
(150,678,c),
(147,678,o),
(147,674,o),
(147,674,c),
(147,671,o),
(147,671,o),
(150,671,c),
(150,671,o),
(150,671,o),
(150,674,c)
);
}
);
width = 454;
}
);
unicode = 72;
},
{
glyphname = I;
lastChange = "2026-05-04 04:38:51 +0000";
layers = (
{
layerId = m01;
shapes = (
{
closed = 1;
nodes = (
(43,23,l),
(43,33,o),
(43,95,o),
(41,158,c),
(41,280,o),
(41,280,o),
(33,234,c),
(24,152,o),
(20,123,o),
(17,123,c),
(17,123,o),
(13,127,o),
(13,130,c),
(13,158,o),
(20,270,o),
(26,345,c),
(29,392,o),
(33,467,o),
(33,509,c),
(36,553,o),
(41,610,o),
(41,635,c),
(43,675,o),
(43,681,o),
(41,685,c),
(36,685,o),
(36,689,o),
(41,693,c),
(47,700,o),
(47,700,o),
(59,696,c),
(73,693,o),
(153,696,o),
(171,700,c),
(178,700,o),
(182,700,o),
(182,696,c),
(185,696,o),
(185,675,o),
(182,624,c),
(178,538,o),
(171,417,o),
(175,362,c),
(175,324,l),
(178,359,l),
(185,399,o),
(202,488,o),
(205,488,c),
(205,488,o),
(205,488,o),
(205,488,c),
(208,488,o),
(202,434,o),
(195,374,c),
(175,187,o),
(171,137,o),
(175,30,c),
(175,19,o),
(175,12,o),
(175,8,c),
(175,8,o),
(169,8,o),
(165,12,c),
(159,12,o),
(149,12,o),
(132,12,c),
(116,8,o),
(93,8,o),
(76,8,c),
(47,5,l)
);
},
{
closed = 1;
nodes = (
(159,33,o),
(159,37,o),
(155,33,c),
(155,30,o),
(153,30,o),
(146,30,c),
(138,33,o),
(132,26,o),
(142,23,c),
(155,23,o),
(159,23,o),
(159,30,c)
);
},
{
closed = 1;
nodes = (
(82,30,o),
(79,30,o),
(76,26,c),
(73,26,o),
(76,26,o),
(82,26,c),
(89,26,o),
(89,26,o),
(86,26,c)
);
},
{
closed = 1;
nodes = (
(116,115,l),
(112,98,l),
(112,80,o),
(112,76,o),
(116,73,c),
(116,70,o),
(119,65,o),
(119,65,c),
(119,62,o),
(119,65,o),
(119,70,c),
(122,73,o),
(119,87,o),
(119,95,c)
);
},
{
closed = 1;
nodes = (
(57,158,o),
(57,158,o),
(57,155,c),
(57,152,o),
(57,148,o),
(59,152,c),
(59,152,o),
(59,155,o),
(59,158,c)
);
},
{
closed = 1;
nodes = (
(129,177,o),
(129,173,o),
(129,170,c),
(129,165,o),
(129,165,o),
(129,165,c),
(132,170,o),
(132,173,o),
(129,173,c)
);
},
{
closed = 1;
nodes = (
(59,324,o),
(57,324,o),
(57,317,c),
(57,309,o),
(59,309,o),
(59,309,c),
(59,312,o),
(59,317,o),
(59,320,c)
);
},
{
closed = 1;
nodes = (
(59,399,o),
(59,392,o),
(59,374,c),
(59,356,o),
(59,349,o),
(59,356,c),
(63,367,o),
(63,381,o),
(59,392,c)
);
},
{
closed = 1;
nodes = (
(76,564,o),
(76,560,o),
(76,549,c),
(76,534,o),
(76,534,o),
(79,546,c),
(79,553,o),
(79,560,o),
(79,560,c)
);
},
{
closed = 1;
nodes = (
(135,624,o),
(135,624,o),
(132,621,c),
(132,618,o),
(135,618,o),
(135,618,c),
(135,618,o),
(135,621,o),
(135,621,c)
);
},
{
closed = 1;
nodes = (
(165,635,o),
(159,649,o),
(159,646,c),
(159,646,o),
(155,639,o),
(155,635,c),
(153,624,o),
(153,624,o),
(159,628,c),
(162,628,o),
(165,631,o),
(165,631,c)
);
},
{
closed = 1;
nodes = (
(142,675,o),
(142,671,o),
(142,664,c),
(146,656,o),
(146,656,o),
(149,664,c),
(149,668,o),
(149,668,o),
(149,671,c)
);
},
{
closed = 1;
nodes = (
(171,689,o),
(169,689,o),
(165,689,c),
(165,685,o),
(162,685,o),
(162,685,c),
(159,685,o),
(159,685,o),
(159,681,c),
(159,681,o),
(162,681,o),
(165,681,c),
(169,681,o),
(171,681,o),
(171,685,c)
);
},
{
closed = 1;
nodes = (
(36,12,o),
(41,12,o),
(41,12,c),
(43,8,o),
(41,8,o),
(36,8,c),
(33,8,o),
(33,8,o),
(33,12,c)
);
}
);
width = 216;
}
);
unicode = 73;
},
{
glyphname = J;
lastChange = "2026-05-04 04:34:07 +0000";
layers = (
{
layerId = m01;
shapes = (
{
closed = 1;
nodes = (
(93,19,o),
(81,22,o),
(74,26,c),
(71,29,o),
(64,32,o),
(61,32,c),
(52,32,o),
(48,36,o),
(45,43,c),
(42,46,o),
(39,50,o),
(32,53,c),
(26,53,o),
(19,60,o),
(16,63,c),
(12,70,o),
(12,70,o),
(19,101,c),
(23,118,o),
(26,142,o),
(26,156,c),
(29,180,o),
(29,180,o),
(35,184,c),
(39,187,o),
(42,187,o),
(45,184,c),
(64,177,o),
(100,167,o),
(120,167,c),
(133,167,o),
(138,173,o),
(152,201,c),
(168,235,o),
(174,259,o),
(178,301,c),
(178,321,o),
(178,338,o),
(178,338,c),
(178,338,o),
(174,321,o),
(168,297,c),
(165,277,o),
(161,259,o),
(158,259,c),
(158,259,o),
(158,263,o),
(158,270,c),
(158,273,o),
(161,294,o),
(165,314,c),
(165,335,o),
(171,376,o),
(174,407,c),
(184,476,o),
(187,500,o),
(187,517,c),
(184,528,o),
(184,528,o),
(133,531,c),
(104,531,o),
(77,531,o),
(74,531,c),
(68,531,o),
(68,528,o),
(68,521,c),
(68,517,o),
(68,514,o),
(64,514,c),
(58,507,o),
(45,517,o),
(39,528,c),
(35,538,o),
(35,545,o),
(39,548,c),
(45,552,o),
(42,572,o),
(35,576,c),
(32,579,o),
(32,579,o),
(35,593,c),
(39,603,o),
(42,617,o),
(42,638,c),
(39,679,o),
(42,675,o),
(16,686,c),
(-4,693,o),
(-13,696,o),
(-6,696,c),
(-4,696,o),
(10,696,o),
(29,693,c),
(45,689,o),
(64,686,o),
(68,686,c),
(74,686,o),
(77,686,o),
(77,686,c),
(77,679,o),
(106,675,o),
(133,675,c),
(149,675,o),
(178,675,o),
(194,672,c),
(210,672,o),
(246,672,o),
(271,668,c),
(297,668,o),
(320,668,o),
(320,668,c),
(326,662,o),
(326,634,o),
(320,589,c),
(317,565,o),
(313,528,o),
(310,510,c),
(310,490,o),
(307,435,o),
(304,387,c),
(304,335,o),
(300,283,o),
(300,270,c),
(300,256,o),
(297,242,o),
(297,242,c),
(300,242,o),
(304,259,o),
(307,280,c),
(313,304,o),
(320,321,o),
(320,321,c),
(320,321,o),
(323,318,o),
(320,311,c),
(320,307,o),
(317,290,o),
(317,273,c),
(304,170,o),
(265,77,o),
(216,39,c),
(184,12,o),
(145,5,o),
(104,15,c)
);
},
{
closed = 1;
nodes = (
(158,46,o),
(152,53,o),
(152,53,c),
(145,50,o),
(145,43,o),
(152,43,c),
(152,43,o),
(155,43,o),
(155,43,c)
);
},
{
closed = 1;
nodes = (
(100,60,o),
(97,60,o),
(93,60,c),
(93,57,o),
(87,57,o),
(84,57,c),
(77,53,o),
(77,53,o),
(90,50,c),
(109,43,o),
(109,43,o),
(104,53,c)
);
},
{
closed = 1;
nodes = (
(113,70,o),
(109,70,o),
(120,57,c),
(122,50,o),
(122,50,o),
(126,53,c),
(129,57,o),
(129,60,o),
(129,60,c)
);
},
{
closed = 1;
nodes = (
(187,60,o),
(187,60,o),
(187,63,c),
(184,67,o),
(184,63,o),
(184,60,c),
(181,53,o),
(181,53,o),
(184,53,c),
(187,57,o),
(187,57,o),
(187,57,c)
);
},
{
closed = 1;
nodes = (
(207,74,o),
(207,77,o),
(203,77,c),
(203,77,o),
(200,74,o),
(203,70,c),
(203,67,o),
(207,70,o),
(207,74,c)
);
},
{
closed = 1;
nodes = (
(145,122,o),
(149,122,o),
(152,122,c),
(158,118,o),
(161,122,o),
(165,129,c),
(168,139,o),
(168,139,o),
(158,139,c),
(126,136,o),
(129,136,o),
(129,115,c),
(129,94,o),
(129,94,o),
(133,105,c),
(133,108,o),
(138,115,o),
(142,118,c)
);
},
{
closed = 1;
nodes = (
(106,136,o),
(106,139,o),
(104,139,c),
(100,139,o),
(97,139,o),
(100,129,c),
(104,118,o),
(106,122,o),
(106,129,c)
);
},
{
closed = 1;
nodes = (
(214,153,o),
(214,156,o),
(210,153,c),
(210,153,o),
(207,149,o),
(207,146,c),
(207,139,o),
(210,139,o),
(210,149,c)
);
},
{
closed = 1;
nodes = (
(187,194,o),
(187,194,o),
(187,191,c),
(187,187,o),
(187,184,o),
(187,187,c),
(187,187,o),
(187,191,o),
(187,194,c)
);
},
{
closed = 1;
nodes = (
(216,194,o),
(216,197,o),
(216,197,c),
(214,197,o),
(214,197,o),
(214,194,c),
(214,191,o),
(214,187,o),
(216,187,c),
(216,187,o),
(216,191,o),
(216,194,c)
);
},
{
closed = 1;
nodes = (
(265,201,o),
(265,201,o),
(265,197,c),
(265,194,o),
(265,191,o),
(265,194,c),
(265,194,o),
(265,197,o),
(265,201,c)
);
},
{
closed = 1;
nodes = (
(242,273,o),
(242,321,o),
(242,325,c),
(239,328,o),
(236,321,o),
(236,290,c),
(232,273,o),
(232,256,o),
(232,252,c),
(230,252,o),
(232,194,o),
(232,194,c),
(232,194,o),
(236,215,o),
(239,235,c)
);
},
{
closed = 1;
nodes = (
(268,218,o),
(268,218,o),
(268,215,c),
(268,208,o),
(268,208,o),
(268,208,c),
(268,211,o),
(268,215,o),
(268,218,c)
);
},
{
closed = 1;
nodes = (
(271,235,o),
(268,232,o),
(268,228,c),
(268,225,o),
(268,222,o),
(271,225,c),
(271,225,o),
(271,228,o),
(271,232,c)
);
},
{
closed = 1;
nodes = (
(271,252,o),
(271,249,o),
(271,249,c),
(271,246,o),
(271,242,o),
(271,246,c),
(275,246,o),
(275,246,o),
(271,249,c)
);
},
{
closed = 1;
nodes = (
(181,352,o),
(181,352,o),
(178,349,c),
(178,345,o),
(181,345,o),
(181,345,c),
(181,345,o),
(181,349,o),
(181,349,c)
);
},
{
closed = 1;
nodes = (
(219,424,o),
(219,421,o),
(219,417,c),
(219,414,o),
(219,414,o),
(223,414,c),
(223,417,o),
(223,421,o),
(223,421,c)
);
},
{
closed = 1;
nodes = (
(226,438,o),
(226,442,o),
(226,442,c),
(223,442,o),
(223,438,o),
(223,435,c),
(223,424,o),
(223,424,o),
(226,431,c)
);
},
{
closed = 1;
nodes = (
(242,552,o),
(239,548,o),
(239,534,c),
(239,524,o),
(239,524,o),
(239,528,c),
(239,531,o),
(242,538,o),
(242,541,c)
);
},
{
closed = 1;
nodes = (
(310,648,o),
(310,644,o),
(307,644,c),
(307,644,o),
(294,583,o),
(294,572,c),
(294,562,o),
(297,572,o),
(304,603,c)
);
},
{
closed = 1;
nodes = (
(149,589,o),
(142,589,o),
(138,589,c),
(136,586,o),
(138,586,o),
(145,586,c),
(152,586,o),
(155,586,o),
(152,589,c)
);
},
{
closed = 1;
nodes = (
(252,620,o),
(252,624,o),
(252,624,c),
(252,624,o),
(248,624,o),
(248,620,c),
(248,613,o),
(252,613,o),
(252,617,c)
);
}
);
width = 338;
}
);
unicode = 74;
},
{
glyphname = K;
lastChange = "2026-05-04 04:34:17 +0000";
layers = (
{
layerId = m01;
shapes = (
{
closed = 1;
nodes = (
(53,12,o),
(53,12,o),
(43,12,c),
(34,12,o),
(34,12,o),
(30,9,c),
(30,2,o),
(30,2,o),
(27,9,c),
(27,12,o),
(24,12,o),
(21,16,c),
(14,16,o),
(11,16,o),
(14,23,c),
(14,30,o),
(14,30,o),
(21,30,c),
(27,33,o),
(27,33,o),
(27,105,c),
(27,147,o),
(27,202,o),
(30,226,c),
(30,277,o),
(27,593,o),
(24,635,c),
(21,679,o),
(21,686,o),
(14,686,c),
(8,690,o),
(8,700,o),
(17,700,c),
(21,700,o),
(46,700,o),
(75,697,c),
(108,697,o),
(140,693,o),
(147,697,c),
(163,697,o),
(176,693,o),
(179,686,c),
(179,683,o),
(179,669,o),
(179,655,c),
(176,624,o),
(169,501,o),
(169,487,c),
(172,477,o),
(172,477,o),
(260,542,c),
(356,618,o),
(399,648,o),
(444,676,c),
(493,703,o),
(496,707,o),
(506,703,c),
(515,700,o),
(515,697,o),
(502,669,c),
(496,648,o),
(496,645,o),
(499,638,c),
(499,635,o),
(502,631,o),
(502,628,c),
(502,628,o),
(493,614,o),
(483,604,c),
(473,590,o),
(464,580,o),
(464,580,c),
(464,576,o),
(464,573,o),
(464,569,c),
(464,566,o),
(460,563,o),
(457,563,c),
(457,559,o),
(454,556,o),
(454,556,c),
(460,552,o),
(450,535,o),
(434,511,c),
(421,497,o),
(402,463,o),
(389,439,c),
(376,415,o),
(360,391,o),
(356,380,c),
(351,370,o),
(347,363,o),
(347,360,c),
(351,353,o),
(347,346,o),
(334,332,c),
(324,318,l),
(347,284,l),
(425,181,o),
(489,85,o),
(506,54,c),
(511,43,o),
(515,33,o),
(522,30,c),
(528,19,o),
(531,12,o),
(531,6,c),
(528,-1,o),
(528,-1,o),
(518,2,c),
(511,2,o),
(496,6,o),
(486,9,c),
(437,30,o),
(279,105,o),
(228,133,c),
(196,150,o),
(169,164,o),
(169,164,c),
(169,160,o),
(166,129,o),
(166,92,c),
(166,54,o),
(166,19,o),
(163,19,c),
(163,19,o),
(163,16,o),
(163,12,c),
(163,6,o),
(163,6,o),
(160,12,c),
(156,16,o),
(156,16,o),
(153,12,c),
(150,12,o),
(131,9,o),
(104,12,c),
(63,12,o),
(63,12,o),
(63,6,c),
(59,2,o),
(56,-1,o),
(53,-1,c),
(50,-1,o),
(50,-1,o),
(50,6,c)
);
},
{
closed = 1;
nodes = (
(40,33,o),
(37,40,o),
(43,47,c),
(43,47,o),
(43,54,o),
(43,64,c),
(40,78,o),
(40,78,o),
(40,61,c),
(37,54,o),
(37,43,o),
(37,40,c),
(34,33,o),
(34,30,o),
(40,33,c),
(46,33,o),
(46,33,o),
(43,33,c)
);
},
{
closed = 1;
nodes = (
(496,50,o),
(486,54,o),
(486,50,c),
(486,47,o),
(502,33,o),
(509,33,c),
(509,30,o),
(506,37,o),
(502,40,c)
);
},
{
closed = 1;
nodes = (
(156,47,o),
(153,47,o),
(150,47,c),
(147,47,o),
(144,47,o),
(144,43,c),
(144,40,o),
(147,40,o),
(150,40,c),
(153,40,o),
(156,40,o),
(156,43,c)
);
},
{
closed = 1;
nodes = (
(102,81,o),
(102,81,o),
(98,74,c),
(98,71,o),
(95,67,o),
(95,67,c),
(95,67,o),
(92,64,o),
(92,61,c),
(92,54,o),
(92,50,o),
(102,50,c),
(108,50,o),
(108,50,o),
(104,64,c)
);
},
{
closed = 1;
nodes = (
(428,136,o),
(425,140,o),
(421,140,c),
(421,136,o),
(444,112,o),
(448,112,c),
(448,112,o),
(441,119,o),
(434,126,c)
);
},
{
closed = 1;
nodes = (
(102,160,o),
(102,160,o),
(102,153,c),
(102,147,o),
(102,133,o),
(104,136,c),
(104,136,o),
(104,143,o),
(102,150,c)
);
},
{
closed = 1;
nodes = (
(82,143,o),
(82,153,o),
(79,164,c),
(75,177,o),
(72,181,o),
(72,171,c),
(69,160,o),
(75,136,o),
(79,136,c),
(79,136,o),
(82,140,o),
(82,143,c)
);
},
{
closed = 1;
nodes = (
(347,150,o),
(340,157,o),
(331,164,c),
(318,174,o),
(315,177,o),
(322,181,c),
(324,184,o),
(315,195,o),
(305,202,c),
(302,202,o),
(299,202,o),
(295,202,c),
(295,198,o),
(292,198,o),
(292,202,c),
(292,205,o),
(292,202,o),
(289,198,c),
(286,191,o),
(286,191,o),
(289,184,c),
(292,181,o),
(305,171,o),
(322,164,c),
(347,150,o),
(347,150,o),
(347,150,c)
);
},
{
closed = 1;
nodes = (
(402,171,o),
(402,174,o),
(399,174,c),
(399,174,o),
(399,171,o),
(399,171,c),
(402,167,o),
(405,164,o),
(405,164,c),
(408,164,o),
(408,167,o),
(405,171,c)
);
},
{
closed = 1;
nodes = (
(198,212,o),
(201,215,o),
(201,215,c),
(201,215,o),
(198,212,o),
(196,208,c),
(192,205,o),
(189,202,o),
(192,202,c),
(192,202,o),
(196,205,o),
(196,208,c)
);
},
{
closed = 1;
nodes = (
(370,219,o),
(367,222,o),
(367,222,c),
(367,219,o),
(376,205,o),
(379,205,c),
(379,205,o),
(376,208,o),
(373,215,c)
);
},
{
closed = 1;
nodes = (
(75,270,o),
(72,287,o),
(72,287,c),
(69,284,o),
(69,219,o),
(72,215,c),
(75,212,o),
(75,212,o),
(79,212,c),
(79,212,o),
(79,229,o),
(75,250,c)
);
},
{
closed = 1;
nodes = (
(311,305,o),
(308,305,o),
(305,301,c),
(305,298,o),
(305,294,o),
(315,287,c),
(322,284,o),
(327,281,o),
(327,281,c),
(327,277,o),
(324,284,o),
(322,291,c)
);
},
{
closed = 1;
nodes = (
(182,294,o),
(182,291,o),
(179,287,c),
(176,284,o),
(176,284,o),
(182,287,c),
(182,291,o),
(185,291,o),
(185,294,c)
);
},
{
closed = 1;
nodes = (
(201,332,o),
(201,336,o),
(196,318,c),
(185,305,o),
(185,301,o),
(189,301,c),
(192,301,o),
(192,308,o),
(196,312,c)
);
},
{
closed = 1;
nodes = (
(182,346,o),
(179,346,o),
(176,342,c),
(176,342,o),
(172,342,o),
(169,342,c),
(169,342,o),
(169,339,o),
(169,329,c),
(169,315,l),
(176,329,l),
(179,336,o),
(182,342,o),
(182,342,c)
);
},
{
closed = 1;
nodes = (
(347,439,o),
(354,449,o),
(347,442,c),
(344,435,o),
(324,408,o),
(327,408,c),
(327,408,o),
(331,415,o),
(338,422,c)
);
},
{
closed = 1;
nodes = (
(289,473,l),
(270,452,l),
(260,442,o),
(250,428,o),
(250,428,c),
(250,425,o),
(250,422,o),
(250,425,c),
(250,425,o),
(260,435,o),
(270,449,c)
);
},
{
closed = 1;
nodes = (
(176,452,o),
(176,452,o),
(172,452,c),
(172,452,o),
(169,449,o),
(169,446,c),
(169,439,o),
(169,439,o),
(176,449,c)
);
},
{
closed = 1;
nodes = (
(228,487,o),
(228,487,o),
(218,480,c),
(212,477,o),
(205,473,o),
(205,470,c),
(205,466,o),
(208,466,o),
(218,477,c)
);
},
{
closed = 1;
nodes = (
(59,497,o),
(59,501,o),
(56,501,c),
(53,501,o),
(50,497,o),
(50,490,c),
(50,477,o),
(53,477,o),
(56,480,c),
(59,483,o),
(59,487,o),
(59,494,c)
);
},
{
closed = 1;
nodes = (
(418,593,o),
(425,593,o),
(432,590,c),
(437,590,o),
(437,590,o),
(444,597,c),
(450,604,o),
(473,652,o),
(473,652,c),
(473,652,o),
(444,624,o),
(412,587,c),
(379,552,o),
(363,535,o),
(379,549,c),
(392,563,o),
(405,576,o),
(408,583,c)
);
},
{
closed = 1;
nodes = (
(147,556,o),
(147,556,o),
(147,552,c),
(147,549,o),
(147,545,o),
(147,549,c),
(147,552,o),
(147,552,o),
(147,556,c)
);
},
{
closed = 1;
nodes = (
(59,604,o),
(59,600,o),
(59,597,c),
(59,590,o),
(59,590,o),
(59,590,c),
(59,593,o),
(59,597,o),
(59,600,c)
);
},
{
closed = 1;
nodes = (
(69,662,o),
(69,666,o),
(66,666,c),
(63,666,o),
(63,655,o),
(66,648,c),
(66,642,o),
(69,648,o),
(69,655,c)
);
},
{
closed = 1;
nodes = (
(156,673,o),
(156,676,o),
(156,676,c),
(153,676,o),
(153,673,o),
(156,669,c),
(156,666,o),
(156,662,o),
(156,662,c),
(156,662,o),
(156,666,o),
(156,669,c)
);
},
{
closed = 1;
nodes = (
(46,686,o),
(40,679,o),
(43,676,c),
(43,669,o),
(43,669,o),
(46,676,c),
(46,679,o),
(46,683,o),
(46,683,c)
);
},
{
closed = 1;
nodes = (
(489,690,o),
(489,690,o),
(486,690,c),
(483,686,o),
(483,686,o),
(486,686,c),
(486,686,o),
(489,686,o),
(489,690,c)
);
}
);
width = 543;
}
);
unicode = 75;
},
{
glyphname = L;
lastChange = "2026-05-04 04:34:22 +0000";
layers = (
{
layerId = m01;
shapes = (
{
closed = 1;
nodes = (
(27,9,o),
(27,16,o),
(24,19,c),
(24,19,o),
(24,23,o),
(27,26,c),
(27,26,o),
(27,43,o),
(27,61,c),
(24,81,o),
(24,122,o),
(27,174,c),
(27,243,o),
(27,263,o),
(24,312,c),
(21,363,o),
(21,404,o),
(14,514,c),
(14,532,o),
(14,545,o),
(18,542,c),
(18,542,o),
(24,480,o),
(30,425,c),
(30,415,o),
(34,525,o),
(34,621,c),
(36,690,o),
(36,693,o),
(40,697,c),
(47,703,o),
(53,703,o),
(50,700,c),
(47,697,o),
(50,697,o),
(95,686,c),
(117,683,o),
(144,679,o),
(153,676,c),
(166,676,o),
(173,676,o),
(176,676,c),
(179,679,o),
(179,676,o),
(182,673,c),
(185,673,o),
(189,669,o),
(195,666,c),
(209,666,o),
(209,659,o),
(195,659,c),
(185,659,o),
(185,659,o),
(185,583,c),
(182,494,o),
(185,418,o),
(192,336,c),
(195,287,o),
(202,195,o),
(202,177,c),
(202,157,o),
(185,236,o),
(179,294,c),
(179,305,o),
(176,287,o),
(176,226,c),
(176,136,o),
(176,136,o),
(182,136,c),
(192,136,o),
(225,147,o),
(257,160,c),
(305,177,o),
(340,191,o),
(340,188,c),
(340,184,o),
(299,160,o),
(292,157,c),
(288,157,o),
(286,153,o),
(286,153,c),
(286,153,o),
(299,153,o),
(312,157,c),
(335,164,o),
(344,164,o),
(344,157,c),
(344,143,o),
(344,16,o),
(344,12,c),
(340,9,o),
(337,6,o),
(335,2,c),
(328,-1,o),
(321,-1,o),
(266,2,c),
(202,2,o),
(144,6,o),
(144,9,c),
(144,12,o),
(117,12,o),
(88,12,c),
(34,9,o),
(34,9,o),
(34,6,c),
(34,-5,o),
(30,-5,o),
(27,6,c)
);
},
{
closed = 1;
nodes = (
(43,33,o),
(40,37,o),
(40,37,c),
(36,43,o),
(36,40,o),
(36,37,c),
(36,30,o),
(36,30,o),
(47,30,c),
(53,30,o),
(53,30,o),
(47,33,c)
);
},
{
closed = 1;
nodes = (
(115,33,o),
(108,37,o),
(101,33,c),
(92,33,o),
(92,33,o),
(105,33,c),
(115,30,o),
(117,33,o),
(117,33,c)
);
},
{
closed = 1;
nodes = (
(160,40,o),
(157,43,o),
(150,40,c),
(147,40,o),
(140,40,o),
(137,40,c),
(133,40,o),
(133,37,o),
(133,37,c),
(133,37,o),
(140,33,o),
(147,33,c),
(157,33,o),
(160,33,o),
(160,37,c)
);
},
{
closed = 1;
nodes = (
(153,88,o),
(153,92,o),
(153,92,c),
(150,92,o),
(128,85,o),
(128,85,c),
(128,85,o),
(133,81,o),
(140,81,c),
(147,81,o),
(153,85,o),
(153,88,c)
);
},
{
closed = 1;
nodes = (
(257,122,o),
(257,122,o),
(254,119,c),
(254,119,o),
(254,119,o),
(257,119,c),
(257,119,o),
(260,119,o),
(260,119,c)
);
},
{
closed = 1;
nodes = (
(137,140,o),
(133,143,o),
(131,143,c),
(131,147,o),
(128,153,o),
(124,157,c),
(121,171,o),
(121,171,o),
(121,160,c),
(124,153,o),
(124,143,o),
(124,140,c),
(124,129,o),
(124,129,o),
(131,129,c),
(137,129,o),
(137,129,o),
(137,136,c)
);
},
{
closed = 1;
nodes = (
(76,212,o),
(72,222,o),
(72,222,c),
(72,222,o),
(72,208,o),
(76,191,c),
(76,177,o),
(76,167,o),
(76,171,c),
(79,177,o),
(76,188,o),
(76,202,c)
);
},
{
closed = 1;
nodes = (
(99,380,o),
(99,391,o),
(95,391,c),
(95,384,o),
(95,308,o),
(99,308,c),
(99,308,o),
(99,329,o),
(99,353,c)
);
},
{
closed = 1;
nodes = (
(50,456,o),
(50,452,o),
(50,446,c),
(50,439,o),
(50,435,o),
(50,439,c),
(50,442,o),
(50,446,o),
(50,452,c)
);
},
{
closed = 1;
nodes = (
(128,483,o),
(128,483,o),
(128,480,c),
(128,477,o),
(128,473,o),
(128,477,c),
(128,480,o),
(128,480,o),
(128,483,c)
);
},
{
closed = 1;
nodes = (
(124,532,o),
(124,532,o),
(124,528,c),
(124,525,o),
(124,521,o),
(124,525,c),
(124,525,o),
(124,528,o),
(124,532,c)
);
},
{
closed = 1;
nodes = (
(53,628,o),
(50,618,o),
(50,593,c),
(50,569,l),
(53,590,l),
(56,600,o),
(56,614,o),
(56,614,c)
);
},
{
closed = 1;
nodes = (
(160,587,o),
(160,587,o),
(160,583,c),
(160,580,o),
(160,576,o),
(160,580,c),
(162,580,o),
(162,583,o),
(162,583,c)
);
},
{
closed = 1;
nodes = (
(169,631,o),
(169,635,o),
(166,628,c),
(162,611,o),
(162,590,o),
(162,597,c),
(166,600,o),
(166,611,o),
(169,621,c)
);
},
{
closed = 1;
nodes = (
(108,645,o),
(105,645,o),
(101,648,c),
(95,648,o),
(95,648,o),
(95,645,c),
(95,642,o),
(99,635,o),
(99,628,c),
(99,618,l),
(105,631,l),
(108,638,o),
(108,645,o),
(108,645,c)
);
},
{
closed = 1;
nodes = (
(169,659,o),
(169,659,o),
(166,659,c),
(166,659,o),
(166,659,o),
(166,655,c),
(166,652,o),
(169,648,o),
(169,648,c),
(169,648,o),
(169,652,o),
(169,655,c)
);
}
);
width = 356;
}
);
unicode = 76;
},
{
glyphname = M;
lastChange = "2026-05-04 04:34:35 +0000";
layers = (
{
layerId = m01;
shapes = (
{
closed = 1;
nodes = (
(360,-1,o),
(326,6,o),
(306,6,c),
(286,9,o),
(245,12,o),
(209,12,c),
(173,12,o),
(141,16,o),
(141,16,c),
(138,19,o),
(28,16,o),
(28,12,c),
(28,12,o),
(28,12,o),
(25,12,c),
(21,12,o),
(18,16,o),
(18,16,c),
(18,16,o),
(18,19,o),
(15,19,c),
(12,19,o),
(12,30,o),
(15,33,c),
(21,37,o),
(25,181,o),
(21,342,c),
(21,373,o),
(21,435,o),
(25,480,c),
(28,576,o),
(28,576,o),
(25,631,c),
(25,686,o),
(21,683,o),
(28,690,c),
(34,703,o),
(41,697,o),
(102,621,c),
(124,593,o),
(160,552,o),
(183,528,c),
(228,477,o),
(251,452,o),
(248,452,c),
(245,452,o),
(183,508,o),
(164,528,c),
(151,542,o),
(144,549,o),
(144,545,c),
(148,542,o),
(164,514,o),
(180,490,c),
(196,463,o),
(218,422,o),
(232,401,c),
(245,380,o),
(254,363,o),
(257,360,c),
(257,360,o),
(283,391,o),
(309,432,c),
(338,473,o),
(377,525,o),
(396,549,c),
(429,590,o),
(497,679,o),
(510,693,c),
(516,700,o),
(516,700,o),
(519,690,c),
(522,673,o),
(522,525,o),
(519,446,c),
(516,370,o),
(519,332,o),
(533,232,c),
(535,208,o),
(538,188,o),
(535,188,c),
(535,184,o),
(533,195,o),
(522,246,c),
(513,291,l),
(513,226,l),
(513,188,o),
(510,140,o),
(510,112,c),
(506,88,o),
(506,57,o),
(506,43,c),
(503,30,o),
(503,19,o),
(503,19,c),
(503,19,o),
(464,19,o),
(423,19,c),
(344,19,o),
(342,19,o),
(360,16,c),
(396,6,o),
(439,-5,o),
(439,-5,c),
(439,-8,o),
(439,-8,o),
(435,-8,c),
(435,-8,o),
(412,-5,o),
(387,-1,c)
);
},
{
closed = 1;
nodes = (
(400,37,o),
(396,37,o),
(374,37,c),
(360,37,o),
(344,37,o),
(344,33,c),
(338,30,o),
(371,30,o),
(390,33,c)
);
},
{
closed = 1;
nodes = (
(63,40,o),
(63,40,o),
(61,40,c),
(61,40,o),
(61,40,o),
(61,37,c),
(61,37,o),
(63,33,o),
(67,33,c),
(70,33,o),
(70,33,o),
(67,37,c)
);
},
{
closed = 1;
nodes = (
(435,37,o),
(432,40,o),
(425,40,c),
(423,40,o),
(416,37,o),
(416,37,c),
(416,33,o),
(419,33,o),
(425,33,c),
(435,33,o),
(439,33,o),
(439,37,c)
);
},
{
closed = 1;
nodes = (
(458,37,o),
(458,40,o),
(454,40,c),
(454,40,o),
(452,37,o),
(452,37,c),
(452,37,o),
(452,33,o),
(452,33,c),
(454,33,o),
(454,37,o),
(458,37,c)
);
},
{
closed = 1;
nodes = (
(490,37,o),
(490,40,o),
(490,43,c),
(490,47,o),
(490,47,o),
(486,47,c),
(484,43,o),
(481,43,o),
(477,43,c),
(474,40,o),
(470,40,o),
(470,37,c),
(470,33,o),
(474,33,o),
(484,37,c)
);
},
{
closed = 1;
nodes = (
(225,43,o),
(212,43,o),
(205,47,c),
(196,47,o),
(193,47,o),
(193,43,c),
(193,40,o),
(200,37,o),
(225,37,c),
(241,37,o),
(241,37,o),
(228,40,c)
);
},
{
closed = 1;
nodes = (
(61,78,o),
(61,78,o),
(61,71,c),
(61,64,o),
(61,61,o),
(63,61,c),
(63,61,o),
(63,64,o),
(63,71,c)
);
},
{
closed = 1;
nodes = (
(96,88,o),
(96,88,o),
(96,81,c),
(96,78,o),
(96,74,o),
(96,78,c),
(96,81,o),
(96,85,o),
(96,88,c)
);
},
{
closed = 1;
nodes = (
(248,81,o),
(248,85,o),
(248,92,c),
(254,102,o),
(251,109,o),
(245,102,c),
(241,102,o),
(238,98,o),
(238,88,c),
(238,78,o),
(241,74,o),
(245,74,c),
(248,74,o),
(248,78,o),
(248,78,c)
);
},
{
closed = 1;
nodes = (
(187,85,o),
(183,85,o),
(180,81,c),
(176,81,o),
(176,81,o),
(180,81,c),
(183,81,o),
(187,81,o),
(187,81,c)
);
},
{
closed = 1;
nodes = (
(342,105,o),
(342,105,o),
(335,98,c),
(331,92,o),
(331,92,o),
(335,95,c),
(338,98,o),
(342,102,o),
(342,102,c)
);
},
{
closed = 1;
nodes = (
(486,109,o),
(486,105,o),
(486,102,c),
(486,98,o),
(486,95,o),
(486,98,c),
(490,98,o),
(490,102,o),
(490,105,c)
);
},
{
closed = 1;
nodes = (
(358,109,o),
(358,112,o),
(355,109,c),
(351,105,o),
(355,102,o),
(360,102,c),
(364,105,o),
(364,105,o),
(360,109,c)
);
},
{
closed = 1;
nodes = (
(387,122,o),
(383,122,o),
(380,119,c),
(380,116,o),
(380,116,o),
(383,116,c),
(387,116,o),
(387,119,o),
(387,119,c)
);
},
{
closed = 1;
nodes = (
(486,195,o),
(486,184,o),
(486,160,c),
(486,136,o),
(486,126,o),
(486,136,c),
(486,150,o),
(486,171,o),
(486,184,c)
);
},
{
closed = 1;
nodes = (
(380,191,o),
(364,167,o),
(364,160,c),
(364,157,o),
(367,164,o),
(374,171,c),
(377,181,o),
(383,188,o),
(383,188,c)
);
},
{
closed = 1;
nodes = (
(267,181,o),
(267,181,o),
(267,181,c),
(264,177,o),
(264,177,o),
(264,174,c),
(264,171,o),
(264,171,o),
(267,171,c),
(267,174,o),
(267,174,o),
(267,177,c)
);
},
{
closed = 1;
nodes = (
(270,208,o),
(270,212,o),
(270,212,c),
(270,212,o),
(267,208,o),
(264,205,c),
(264,205,o),
(261,202,o),
(261,202,c),
(264,202,o),
(264,205,o),
(267,205,c)
);
},
{
closed = 1;
nodes = (
(57,257,o),
(54,263,o),
(54,243,c),
(54,232,o),
(57,212,o),
(61,215,c),
(61,215,o),
(61,226,o),
(61,236,c)
);
},
{
closed = 1;
nodes = (
(306,284,o),
(306,284,o),
(299,277,c),
(293,270,o),
(293,267,o),
(299,267,c),
(299,267,o),
(303,270,o),
(303,274,c)
);
},
{
closed = 1;
nodes = (
(257,332,o),
(254,332,o),
(251,332,c),
(248,336,o),
(248,332,o),
(251,325,c),
(254,322,o),
(261,325,o),
(257,329,c)
);
},
{
closed = 1;
nodes = (
(293,373,o),
(297,377,o),
(293,377,c),
(277,353,o),
(267,342,o),
(267,339,c),
(270,336,o),
(283,353,o),
(290,367,c)
);
},
{
closed = 1;
nodes = (
(241,353,o),
(238,360,o),
(232,363,c),
(225,373,o),
(225,373,o),
(232,360,c),
(238,353,o),
(241,346,o),
(241,346,c),
(245,346,o),
(245,349,o),
(241,349,c)
);
},
{
closed = 1;
nodes = (
(403,425,o),
(409,432,o),
(412,439,c),
(416,442,o),
(416,446,o),
(416,446,c),
(416,446,o),
(409,439,o),
(403,428,c),
(396,418,o),
(393,411,o),
(393,411,c),
(396,411,o),
(400,415,o),
(403,422,c)
);
},
{
closed = 1;
nodes = (
(396,480,o),
(400,483,o),
(400,483,c),
(396,483,o),
(377,459,o),
(377,452,c),
(377,449,o),
(380,452,o),
(393,477,c)
);
},
{
closed = 1;
nodes = (
(144,504,o),
(141,508,o),
(144,494,c),
(148,490,o),
(157,477,o),
(157,477,c),
(160,477,o),
(157,483,o),
(151,490,c)
);
},
{
closed = 1;
nodes = (
(470,542,o),
(468,545,o),
(468,542,c),
(468,542,o),
(464,542,o),
(464,538,c),
(464,538,o),
(468,538,o),
(468,538,c),
(468,538,o),
(470,542,o),
(470,542,c)
);
},
{
closed = 1;
nodes = (
(441,576,o),
(423,556,o),
(425,552,c),
(429,549,o),
(432,552,o),
(439,559,c),
(445,566,o),
(445,573,o),
(445,573,c)
);
},
{
closed = 1;
nodes = (
(490,563,o),
(490,563,o),
(490,559,c),
(490,556,o),
(490,556,o),
(490,556,c),
(490,556,o),
(490,559,o),
(490,559,c)
);
},
{
closed = 1;
nodes = (
(493,576,o),
(493,576,o),
(493,573,c),
(493,569,o),
(493,566,o),
(493,569,c),
(493,569,o),
(493,573,o),
(493,573,c)
);
}
);
width = 550;
}
);
unicode = 77;
},
{
glyphname = N;
lastChange = "2026-05-04 04:34:50 +0000";
layers = (
{
layerId = m01;
shapes = (
{
closed = 1;
nodes = (
(466,12,o),
(441,37,o),
(425,50,c),
(376,102,o),
(380,102,o),
(402,64,c),
(411,43,o),
(421,26,o),
(421,26,c),
(418,26,o),
(425,19,o),
(360,105,c),
(317,160,o),
(288,198,o),
(250,239,c),
(221,274,o),
(195,298,o),
(195,298,c),
(195,298,o),
(198,215,o),
(205,171,c),
(211,81,o),
(214,50,o),
(214,50,c),
(211,50,o),
(198,105,o),
(195,136,c),
(191,153,o),
(191,150,o),
(189,88,c),
(189,50,o),
(185,12,o),
(185,9,c),
(185,-5,o),
(178,-8,o),
(178,6,c),
(178,9,o),
(178,9,o),
(169,9,c),
(162,9,o),
(153,12,o),
(149,16,c),
(137,19,o),
(79,23,o),
(63,19,c),
(50,19,o),
(36,19,o),
(34,26,c),
(34,26,o),
(30,30,o),
(27,30,c),
(20,30,o),
(18,37,o),
(20,40,c),
(23,43,o),
(23,57,o),
(20,92,c),
(18,160,o),
(18,346,o),
(23,470,c),
(23,528,o),
(27,600,o),
(27,631,c),
(27,669,o),
(27,690,o),
(30,693,c),
(34,703,o),
(43,703,o),
(56,690,c),
(63,683,o),
(81,669,o),
(97,659,c),
(175,600,o),
(304,494,o),
(340,459,c),
(347,452,o),
(353,449,o),
(353,449,c),
(356,449,o),
(356,504,o),
(350,545,c),
(350,559,o),
(344,597,o),
(340,631,c),
(333,683,o),
(331,697,o),
(333,690,c),
(337,690,o),
(353,621,o),
(356,611,c),
(356,593,o),
(360,590,o),
(360,600,c),
(360,607,o),
(363,624,o),
(366,638,c),
(366,659,o),
(366,669,o),
(366,673,c),
(363,676,o),
(363,683,o),
(369,686,c),
(373,690,o),
(376,690,o),
(396,690,c),
(405,690,o),
(421,690,o),
(425,686,c),
(427,686,o),
(447,686,o),
(466,683,c),
(489,683,o),
(499,683,o),
(502,679,c),
(506,676,o),
(511,676,o),
(521,683,c),
(531,686,o),
(531,686,o),
(535,683,c),
(537,679,o),
(537,666,o),
(531,573,c),
(521,477,o),
(521,456,o),
(521,370,c),
(521,260,o),
(521,257,o),
(547,112,c),
(557,64,o),
(564,23,o),
(564,23,c),
(564,9,o),
(540,92,o),
(528,143,c),
(521,167,o),
(521,167,o),
(524,88,c),
(524,43,o),
(524,2,o),
(524,-5,c),
(524,-15,o),
(524,-18,o),
(518,-18,c),
(518,-22,o),
(515,-22,o),
(515,-22,c),
(515,-29,o),
(508,-25,o),
(483,-1,c)
);
},
{
closed = 1;
nodes = (
(508,43,o),
(508,47,o),
(506,47,c),
(502,47,o),
(499,47,o),
(499,50,c),
(495,50,o),
(499,47,o),
(502,40,c),
(511,30,o),
(515,30,o),
(511,40,c)
);
},
{
closed = 1;
nodes = (
(146,54,o),
(140,54,o),
(137,50,c),
(133,47,o),
(133,47,o),
(140,47,c),
(144,47,o),
(146,47,o),
(146,50,c)
);
},
{
closed = 1;
nodes = (
(59,92,o),
(56,88,o),
(56,88,c),
(52,85,o),
(52,81,o),
(52,78,c),
(52,71,o),
(52,71,o),
(56,81,c),
(56,85,o),
(59,88,o),
(59,92,c)
);
},
{
closed = 1;
nodes = (
(30,95,o),
(30,95,o),
(30,92,c),
(30,88,o),
(30,85,o),
(30,88,c),
(30,88,o),
(30,92,o),
(30,95,c)
);
},
{
closed = 1;
nodes = (
(156,136,o),
(156,133,o),
(160,112,c),
(162,95,l),
(162,112,l),
(162,122,o),
(162,133,o),
(162,133,c)
);
},
{
closed = 1;
nodes = (
(130,126,o),
(130,126,o),
(127,119,c),
(121,112,o),
(121,109,o),
(127,112,c),
(130,112,o),
(130,116,o),
(130,119,c)
);
},
{
closed = 1;
nodes = (
(88,136,o),
(88,136,o),
(85,136,c),
(81,133,o),
(79,133,o),
(79,129,c),
(79,129,o),
(79,126,o),
(79,122,c),
(79,119,o),
(79,119,o),
(85,126,c),
(88,129,o),
(88,133,o),
(88,136,c)
);
},
{
closed = 1;
nodes = (
(34,147,o),
(34,147,o),
(34,143,c),
(34,140,o),
(34,140,o),
(34,140,c),
(34,140,o),
(34,143,o),
(34,147,c)
);
},
{
closed = 1;
nodes = (
(398,143,o),
(392,147,o),
(389,153,c),
(376,164,l),
(385,153,l),
(396,143,o),
(398,140,o),
(398,143,c)
);
},
{
closed = 1;
nodes = (
(114,177,o),
(111,177,o),
(111,164,c),
(111,153,o),
(111,153,o),
(117,153,c),
(121,157,o),
(121,157,o),
(117,167,c)
);
},
{
closed = 1;
nodes = (
(502,177,o),
(502,184,o),
(499,184,c),
(499,184,o),
(499,177,o),
(499,171,c),
(502,157,o),
(506,157,o),
(502,174,c)
);
},
{
closed = 1;
nodes = (
(418,191,o),
(414,198,o),
(411,205,c),
(405,212,o),
(402,212,o),
(402,208,c),
(402,205,o),
(405,198,o),
(411,195,c),
(421,184,o),
(425,184,o),
(421,191,c)
);
},
{
closed = 1;
nodes = (
(340,236,o),
(337,239,o),
(333,239,c),
(328,243,o),
(328,243,o),
(333,236,c),
(340,229,o),
(344,229,o),
(340,236,c)
);
},
{
closed = 1;
nodes = (
(85,318,o),
(81,339,o),
(81,332,c),
(81,322,o),
(95,229,o),
(95,236,c),
(95,239,o),
(92,267,o),
(88,294,c)
);
},
{
closed = 1;
nodes = (
(337,315,o),
(333,318,o),
(333,308,c),
(331,287,o),
(331,267,o),
(337,260,c),
(337,257,o),
(340,257,o),
(340,257,c),
(340,257,o),
(340,270,o),
(337,287,c)
);
},
{
closed = 1;
nodes = (
(502,346,o),
(502,346,o),
(499,325,c),
(499,305,o),
(499,281,o),
(502,281,c),
(502,281,o),
(502,298,o),
(502,315,c)
);
},
{
closed = 1;
nodes = (
(389,291,o),
(389,294,o),
(389,298,c),
(385,301,o),
(385,298,o),
(385,294,c),
(385,291,o),
(385,287,o),
(389,287,c),
(389,287,o),
(389,287,o),
(389,291,c)
);
},
{
closed = 1;
nodes = (
(441,315,o),
(425,339,o),
(421,339,c),
(414,339,o),
(418,322,o),
(431,308,c),
(437,301,o),
(443,294,o),
(443,294,c),
(443,294,o),
(443,298,o),
(443,301,c)
);
},
{
closed = 1;
nodes = (
(149,322,o),
(149,318,o),
(149,312,c),
(149,305,o),
(149,305,o),
(149,308,c),
(149,308,o),
(149,315,o),
(149,318,c)
);
},
{
closed = 1;
nodes = (
(356,325,o),
(353,322,o),
(353,315,c),
(353,308,o),
(356,305,o),
(356,308,c),
(356,312,o),
(356,318,o),
(356,322,c)
);
},
{
closed = 1;
nodes = (
(266,325,o),
(263,329,o),
(259,332,c),
(253,336,o),
(253,336,o),
(259,329,c),
(266,322,o),
(266,322,o),
(266,322,c)
);
},
{
closed = 1;
nodes = (
(36,353,o),
(36,349,o),
(36,346,c),
(36,339,o),
(36,336,o),
(40,339,c),
(40,342,o),
(40,346,o),
(40,349,c)
);
},
{
closed = 1;
nodes = (
(360,370,o),
(360,370,o),
(353,373,c),
(347,377,o),
(347,377,o),
(347,373,c),
(350,370,o),
(350,363,o),
(350,360,c),
(350,356,o),
(356,342,o),
(356,346,c),
(356,346,o),
(360,353,o),
(360,360,c)
);
},
{
closed = 1;
nodes = (
(392,360,o),
(380,363,o),
(380,356,c),
(380,353,o),
(385,353,o),
(392,353,c),
(392,349,o),
(392,353,o),
(392,353,c)
);
},
{
closed = 1;
nodes = (
(182,356,o),
(182,356,o),
(178,356,c),
(178,353,o),
(178,353,o),
(182,353,c),
(182,353,o),
(185,353,o),
(185,356,c)
);
},
{
closed = 1;
nodes = (
(263,387,o),
(263,391,o),
(259,391,c),
(256,391,o),
(256,367,o),
(259,363,c),
(263,360,o),
(263,360,o),
(263,360,c),
(263,360,o),
(263,367,o),
(263,373,c)
);
},
{
closed = 1;
nodes = (
(240,428,o),
(240,425,o),
(240,422,c),
(240,418,o),
(240,418,o),
(240,422,c),
(243,422,o),
(243,425,o),
(240,425,c)
);
},
{
closed = 1;
nodes = (
(276,428,o),
(276,428,o),
(276,425,c),
(276,422,o),
(279,418,o),
(282,418,c),
(282,418,o),
(282,422,o),
(279,425,c)
);
},
{
closed = 1;
nodes = (
(149,456,o),
(146,459,o),
(140,459,c),
(137,463,o),
(137,459,o),
(137,452,c),
(137,449,o),
(140,442,o),
(140,435,c),
(140,425,o),
(140,425,o),
(140,435,c),
(144,442,o),
(144,449,o),
(146,449,c)
);
},
{
closed = 1;
nodes = (
(356,435,o),
(353,439,o),
(347,442,c),
(340,449,o),
(337,449,o),
(340,446,c),
(340,442,o),
(353,432,o),
(356,432,c),
(356,432,o),
(356,432,o),
(356,435,c)
);
},
{
closed = 1;
nodes = (
(221,442,o),
(221,442,o),
(221,439,c),
(221,435,o),
(221,432,o),
(221,435,c),
(224,439,o),
(224,439,o),
(221,442,c)
);
},
{
closed = 1;
nodes = (
(95,449,o),
(95,446,o),
(95,442,c),
(95,439,o),
(95,435,o),
(95,439,c),
(97,439,o),
(97,442,o),
(97,446,c)
);
},
{
closed = 1;
nodes = (
(392,449,o),
(392,456,o),
(392,466,c),
(392,483,o),
(392,483,o),
(385,487,c),
(380,490,o),
(380,490,o),
(380,511,c),
(380,532,o),
(380,532,o),
(376,514,c),
(376,508,o),
(373,487,o),
(373,470,c),
(373,442,o),
(373,442,o),
(380,442,c),
(382,442,o),
(389,446,o),
(389,446,c)
);
},
{
closed = 1;
nodes = (
(243,446,o),
(243,449,o),
(240,449,c),
(240,449,o),
(237,449,o),
(237,449,c),
(237,446,o),
(240,442,o),
(240,442,c),
(243,442,o),
(243,446,o),
(243,446,c)
);
},
{
closed = 1;
nodes = (
(95,511,o),
(95,528,o),
(95,528,c),
(92,528,o),
(92,511,o),
(92,490,c),
(92,466,o),
(95,452,o),
(95,452,c),
(97,452,o),
(97,463,o),
(95,490,c)
);
},
{
closed = 1;
nodes = (
(221,463,o),
(218,463,o),
(218,459,c),
(218,452,o),
(221,452,o),
(221,452,c),
(221,456,o),
(221,459,o),
(221,463,c)
);
},
{
closed = 1;
nodes = (
(43,566,o),
(43,580,o),
(46,580,c),
(46,583,o),
(50,587,o),
(46,590,c),
(46,597,o),
(43,593,o),
(43,583,c),
(43,576,o),
(40,549,o),
(40,521,c),
(40,477,o),
(40,477,o),
(43,490,c),
(46,501,o),
(46,514,o),
(46,542,c)
);
},
{
closed = 1;
nodes = (
(431,518,o),
(431,521,o),
(431,521,c),
(427,518,o),
(431,514,o),
(431,511,c),
(434,501,o),
(437,501,o),
(434,514,c)
);
},
{
closed = 1;
nodes = (
(205,545,o),
(195,552,o),
(185,559,c),
(173,569,l),
(182,559,l),
(191,549,o),
(198,542,o),
(205,542,c),
(207,542,o),
(207,542,o),
(205,545,c)
);
},
{
closed = 1;
nodes = (
(156,552,o),
(156,552,o),
(153,556,c),
(149,559,o),
(149,559,o),
(153,556,c),
(156,549,o),
(156,549,o),
(156,549,c)
);
},
{
closed = 1;
nodes = (
(111,604,o),
(104,607,o),
(104,604,c),
(104,604,o),
(104,600,o),
(104,597,c),
(108,587,o),
(114,583,o),
(117,587,c),
(121,590,o),
(121,590,o),
(114,597,c)
);
},
{
closed = 1;
nodes = (
(434,600,o),
(434,604,o),
(434,607,c),
(434,611,o),
(431,607,o),
(427,600,c),
(427,593,o),
(434,590,o),
(434,600,c)
);
},
{
closed = 1;
nodes = (
(518,659,o),
(515,662,o),
(511,662,c),
(511,662,o),
(508,662,o),
(508,659,c),
(508,659,o),
(506,659,o),
(502,655,c),
(492,655,o),
(492,655,o),
(499,638,c),
(506,631,o),
(506,621,o),
(506,618,c),
(506,614,o),
(511,607,o),
(511,611,c),
(515,611,o),
(515,621,o),
(515,638,c)
);
},
{
closed = 1;
nodes = (
(75,638,o),
(69,648,o),
(65,645,c),
(65,645,o),
(69,628,o),
(72,621,c),
(79,618,o),
(79,618,o),
(75,628,c)
);
},
{
closed = 1;
nodes = (
(408,662,o),
(408,662,o),
(402,662,c),
(396,666,o),
(396,666,o),
(398,655,c),
(398,645,o),
(405,645,o),
(405,655,c)
);
},
{
closed = 1;
nodes = (
(441,655,o),
(441,659,o),
(437,659,c),
(434,659,o),
(434,655,o),
(434,652,c),
(434,648,o),
(434,648,o),
(434,648,c),
(437,648,o),
(437,648,o),
(437,652,c)
);
},
{
closed = 1;
nodes = (
(466,655,o),
(463,659,o),
(459,659,c),
(457,659,o),
(457,655,o),
(463,655,c),
(473,648,o),
(473,648,o),
(466,655,c)
);
},
{
closed = 1;
nodes = (
(380,666,o),
(376,666,o),
(376,666,c),
(376,669,o),
(373,666,o),
(373,666,c),
(373,659,o),
(376,659,o),
(376,662,c)
);
}
);
width = 578;
}
);
unicode = 78;
},
{
glyphname = O;
lastChange = "2026-05-04 04:35:04 +0000";
layers = (
{
layerId = m01;
shapes = (
{
closed = 1;
nodes = (
(214,-1,o),
(200,2,o),
(191,6,c),
(142,26,o),
(94,78,o),
(72,140,c),
(52,191,o),
(49,205,o),
(42,236,c),
(33,284,o),
(29,325,o),
(33,377,c),
(36,397,o),
(39,422,o),
(39,432,c),
(42,439,o),
(42,446,o),
(42,446,c),
(42,446,o),
(29,404,o),
(20,370,c),
(13,353,o),
(11,349,o),
(13,367,c),
(20,432,o),
(33,473,o),
(52,518,c),
(68,549,o),
(81,573,o),
(110,611,c),
(137,645,o),
(155,662,o),
(182,679,c),
(214,697,o),
(233,700,o),
(265,700,c),
(301,700,o),
(317,697,o),
(349,679,c),
(407,648,o),
(452,604,o),
(476,542,c),
(501,470,o),
(508,373,o),
(495,287,c),
(492,274,o),
(492,263,o),
(492,263,c),
(492,263,o),
(498,274,o),
(501,291,c),
(514,336,o),
(533,387,o),
(537,384,c),
(537,380,o),
(533,363,o),
(528,346,c),
(524,325,o),
(521,308,o),
(521,305,c),
(524,301,o),
(504,260,o),
(479,202,c),
(469,174,o),
(443,129,o),
(430,105,c),
(418,85,o),
(366,30,o),
(359,30,c),
(356,30,o),
(324,12,o),
(326,12,c),
(330,12,o),
(343,12,o),
(356,12,c),
(398,19,o),
(391,16,o),
(340,2,c),
(294,-12,o),
(240,-15,o),
(220,-5,c)
);
},
{
closed = 1;
nodes = (
(240,30,o),
(240,33,o),
(240,37,c),
(236,43,o),
(236,43,o),
(236,33,c),
(233,23,o),
(233,23,o),
(240,23,c),
(243,23,o),
(243,23,o),
(243,26,c)
);
},
{
closed = 1;
nodes = (
(297,33,o),
(294,37,o),
(292,37,c),
(288,40,o),
(288,40,o),
(285,40,c),
(285,37,o),
(281,37,o),
(281,37,c),
(278,37,o),
(275,33,o),
(275,30,c),
(272,26,o),
(275,26,o),
(281,26,c),
(288,30,o),
(294,30,o),
(294,30,c)
);
},
{
closed = 1;
nodes = (
(200,40,o),
(198,43,o),
(198,40,c),
(194,33,o),
(194,30,o),
(204,30,c),
(207,30,o),
(204,33,o),
(204,37,c)
);
},
{
closed = 1;
nodes = (
(220,88,o),
(220,92,o),
(217,88,c),
(214,85,o),
(211,85,o),
(207,85,c),
(204,88,o),
(200,88,o),
(200,85,c),
(200,81,o),
(214,64,o),
(217,64,c),
(217,64,o),
(220,71,o),
(220,78,c)
);
},
{
closed = 1;
nodes = (
(275,122,o),
(263,92,o),
(263,88,c),
(263,85,o),
(265,88,o),
(269,98,c),
(272,105,o),
(275,112,o),
(275,116,c)
);
},
{
closed = 1;
nodes = (
(155,136,o),
(155,136,o),
(152,119,c),
(149,109,o),
(149,102,o),
(152,98,c),
(152,95,o),
(155,92,o),
(155,92,c),
(155,92,o),
(155,102,o),
(155,116,c)
);
},
{
closed = 1;
nodes = (
(117,105,o),
(114,109,o),
(114,109,c),
(110,109,o),
(114,105,o),
(114,102,c),
(117,98,o),
(120,95,o),
(120,95,c),
(120,95,o),
(120,98,o),
(117,102,c)
);
},
{
closed = 1;
nodes = (
(353,116,o),
(356,129,o),
(356,133,c),
(356,147,o),
(356,147,o),
(353,140,c),
(353,136,o),
(349,126,o),
(346,119,c),
(343,112,o),
(343,102,o),
(340,102,c),
(340,98,o),
(340,98,o),
(343,98,c),
(343,98,o),
(346,105,o),
(349,112,c)
);
},
{
closed = 1;
nodes = (
(191,171,o),
(191,174,o),
(184,157,c),
(184,153,o),
(184,147,o),
(188,136,c),
(188,129,o),
(191,122,o),
(191,122,c),
(191,122,o),
(191,133,o),
(191,147,c)
);
},
{
closed = 1;
nodes = (
(443,195,o),
(463,253,o),
(459,253,c),
(459,257,o),
(443,219,o),
(434,184,c),
(430,171,o),
(424,157,o),
(420,153,c),
(420,153,o),
(418,143,o),
(411,136,c),
(407,126,o),
(407,122,o),
(411,129,c),
(414,133,o),
(424,150,o),
(430,167,c)
);
},
{
closed = 1;
nodes = (
(333,205,o),
(333,208,o),
(330,205,c),
(330,202,o),
(326,177,o),
(330,177,c),
(330,177,o),
(330,188,o),
(333,195,c)
);
},
{
closed = 1;
nodes = (
(78,191,o),
(78,191,o),
(78,188,c),
(78,184,o),
(78,184,o),
(78,184,c),
(78,184,o),
(78,188,o),
(78,188,c)
);
},
{
closed = 1;
nodes = (
(72,236,o),
(68,239,o),
(68,229,c),
(68,219,o),
(74,195,o),
(74,195,c),
(74,195,o),
(74,205,o),
(74,215,c)
);
},
{
closed = 1;
nodes = (
(269,239,o),
(269,239,o),
(269,239,c),
(265,239,o),
(259,212,o),
(263,205,c),
(263,202,o),
(269,229,o),
(269,236,c)
);
},
{
closed = 1;
nodes = (
(133,267,o),
(133,267,o),
(133,267,c),
(130,267,o),
(126,257,o),
(130,246,c),
(130,236,o),
(130,236,o),
(133,246,c),
(133,253,o),
(133,260,o),
(133,263,c)
);
},
{
closed = 1;
nodes = (
(78,422,o),
(78,422,o),
(74,415,c),
(74,411,o),
(74,408,o),
(74,404,c),
(74,401,o),
(74,401,o),
(74,404,c),
(78,408,o),
(78,415,o),
(78,418,c)
);
},
{
closed = 1;
nodes = (
(81,432,o),
(78,432,o),
(78,428,c),
(78,425,o),
(78,422,o),
(81,425,c),
(81,425,o),
(81,428,o),
(81,428,c)
);
},
{
closed = 1;
nodes = (
(81,442,o),
(81,442,o),
(81,439,c),
(81,435,o),
(81,432,o),
(81,435,c),
(85,435,o),
(85,439,o),
(85,439,c)
);
},
{
closed = 1;
nodes = (
(447,538,o),
(447,538,o),
(450,521,c),
(452,511,o),
(456,501,o),
(459,504,c),
(459,504,o),
(456,511,o),
(452,521,c)
);
},
{
closed = 1;
nodes = (
(434,566,o),
(430,569,o),
(430,569,c),
(430,569,o),
(436,552,o),
(440,549,c),
(443,545,o),
(443,549,o),
(436,559,c)
);
},
{
closed = 1;
nodes = (
(359,631,o),
(359,631,o),
(356,635,c),
(346,638,o),
(346,638,o),
(346,631,c),
(353,624,o),
(346,624,o),
(340,631,c),
(340,635,o),
(337,638,o),
(337,635,c),
(333,635,o),
(343,618,o),
(349,618,c),
(349,618,o),
(353,621,o),
(356,624,c)
);
},
{
closed = 1;
nodes = (
(259,659,o),
(256,659,o),
(256,659,c),
(252,659,o),
(249,655,o),
(249,655,c),
(249,655,o),
(252,652,o),
(256,655,c),
(256,655,o),
(259,655,o),
(259,655,c)
);
},
{
closed = 1;
nodes = (
(288,659,o),
(285,659,o),
(278,659,c),
(265,659,o),
(265,659,o),
(269,655,c),
(272,652,o),
(272,652,o),
(288,659,c)
);
}
);
width = 550;
}
);
unicode = 79;
},
{
glyphname = P;
lastChange = "2026-05-04 04:35:12 +0000";
layers = (
{
layerId = m01;
shapes = (
{
closed = 1;
nodes = (
(173,-1,o),
(169,2,o),
(169,2,c),
(169,6,o),
(166,12,o),
(160,16,c),
(150,26,o),
(150,26,o),
(105,23,c),
(59,23,o),
(56,23,o),
(56,19,c),
(54,16,o),
(54,12,o),
(50,16,c),
(47,16,o),
(43,16,o),
(40,12,c),
(37,9,o),
(37,9,o),
(34,12,c),
(34,16,o),
(30,19,o),
(27,19,c),
(21,23,o),
(18,37,o),
(21,40,c),
(24,43,o),
(24,50,o),
(24,81,c),
(24,105,o),
(27,153,o),
(27,191,c),
(37,346,o),
(37,404,o),
(18,587,c),
(14,631,o),
(11,700,o),
(14,700,c),
(21,693,o),
(30,621,o),
(37,569,c),
(40,552,o),
(40,556,o),
(40,607,c),
(43,638,o),
(43,662,o),
(40,666,c),
(40,669,o),
(40,676,o),
(40,679,c),
(43,690,o),
(50,697,o),
(56,690,c),
(59,690,o),
(72,686,o),
(105,690,c),
(131,690,o),
(182,690,o),
(225,690,c),
(289,690,o),
(299,690,o),
(324,683,c),
(392,673,o),
(428,655,o),
(463,618,c),
(483,600,o),
(493,576,o),
(499,545,c),
(509,504,o),
(493,442,o),
(461,394,c),
(434,353,o),
(380,318,o),
(321,305,c),
(302,301,o),
(302,301,o),
(335,305,c),
(351,305,o),
(383,305,o),
(399,308,c),
(431,312,o),
(438,312,o),
(434,308,c),
(434,308,o),
(383,294,o),
(357,291,c),
(312,281,o),
(247,287,o),
(209,301,c),
(202,305,o),
(195,308,o),
(195,308,c),
(195,308,o),
(189,212,o),
(182,40,c),
(182,26,o),
(179,9,o),
(179,-1,c),
(176,-15,o),
(176,-15,o),
(173,-8,c)
);
},
{
closed = 1;
nodes = (
(59,64,o),
(56,61,o),
(56,50,c),
(54,47,o),
(56,47,o),
(63,47,c),
(72,47,o),
(72,47,o),
(66,54,c)
);
},
{
closed = 1;
nodes = (
(133,57,o),
(131,57,o),
(128,57,c),
(124,50,o),
(124,50,o),
(133,50,c),
(140,50,o),
(140,50,o),
(137,54,c)
);
},
{
closed = 1;
nodes = (
(79,74,o),
(79,74,o),
(76,74,c),
(76,74,o),
(76,74,o),
(76,71,c),
(76,71,o),
(76,71,o),
(79,71,c),
(79,71,o),
(79,71,o),
(79,71,c)
);
},
{
closed = 1;
nodes = (
(140,85,o),
(128,92,o),
(124,92,c),
(124,92,o),
(121,92,o),
(121,88,c),
(121,81,o),
(124,81,o),
(131,81,c),
(137,81,o),
(140,81,o),
(140,85,c)
);
},
{
closed = 1;
nodes = (
(82,140,l),
(82,160,o),
(82,198,o),
(82,222,c),
(82,267,o),
(82,267,o),
(79,208,c),
(76,143,o),
(76,136,o),
(66,136,c),
(63,136,o),
(63,136,o),
(63,122,c),
(63,116,o),
(63,109,o),
(59,105,c),
(59,95,o),
(59,95,o),
(72,98,c),
(85,98,l)
);
},
{
closed = 1;
nodes = (
(47,129,o),
(47,129,o),
(47,122,c),
(47,119,o),
(47,116,o),
(47,119,c),
(47,122,o),
(47,126,o),
(47,129,c)
);
},
{
closed = 1;
nodes = (
(205,339,o),
(198,339,o),
(195,339,c),
(195,336,o),
(198,336,o),
(198,336,c),
(202,336,o),
(205,336,o),
(205,336,c)
);
},
{
closed = 1;
nodes = (
(353,377,o),
(353,380,o),
(351,380,c),
(347,380,o),
(344,377,o),
(340,373,c),
(337,367,o),
(340,367,o),
(347,373,c)
);
},
{
closed = 1;
nodes = (
(441,415,o),
(463,459,o),
(463,470,c),
(463,477,o),
(457,466,o),
(454,452,c),
(454,442,o),
(441,428,o),
(438,428,c),
(434,428,o),
(428,418,o),
(415,397,c),
(409,380,o),
(412,380,o),
(428,401,c)
);
},
{
closed = 1;
nodes = (
(386,418,o),
(386,418,o),
(383,415,c),
(383,415,o),
(383,411,o),
(383,408,c),
(383,408,o),
(383,408,o),
(383,411,c),
(386,411,o),
(386,415,o),
(386,418,c)
);
},
{
closed = 1;
nodes = (
(283,446,o),
(283,456,o),
(279,456,c),
(279,456,o),
(270,428,o),
(273,425,c),
(276,422,o),
(276,422,o),
(279,432,c)
);
},
{
closed = 1;
nodes = (
(234,449,o),
(234,452,o),
(231,452,c),
(231,452,o),
(227,449,o),
(231,446,c),
(231,442,o),
(231,442,o),
(231,442,c),
(234,446,o),
(234,449,o),
(234,449,c)
);
},
{
closed = 1;
nodes = (
(344,466,o),
(344,466,o),
(344,459,c),
(344,456,o),
(344,452,o),
(344,456,c),
(344,459,o),
(344,463,o),
(344,463,c)
);
},
{
closed = 1;
nodes = (
(364,563,o),
(360,563,o),
(353,549,c),
(351,528,o),
(351,525,o),
(357,532,c),
(360,538,o),
(364,545,o),
(364,549,c)
);
},
{
closed = 1;
nodes = (
(321,614,o),
(318,614,o),
(312,611,c),
(308,611,o),
(308,611,o),
(315,611,c),
(315,607,o),
(318,611,o),
(321,611,c)
);
},
{
closed = 1;
nodes = (
(283,628,o),
(283,628,o),
(279,628,c),
(279,628,o),
(276,628,o),
(276,624,c),
(276,624,o),
(279,621,o),
(279,624,c),
(283,624,o),
(283,624,o),
(283,628,c)
);
},
{
closed = 1;
nodes = (
(63,652,o),
(63,652,o),
(63,652,c),
(59,652,o),
(59,652,o),
(59,648,c),
(59,645,o),
(59,645,o),
(59,645,c),
(59,645,o),
(63,645,o),
(63,648,c)
);
},
{
closed = 1;
nodes = (
(218,662,o),
(211,662,o),
(202,662,c),
(189,662,o),
(185,662,o),
(185,659,c),
(185,652,o),
(192,652,o),
(205,655,c),
(209,659,o),
(214,659,o),
(218,662,c)
);
}
);
width = 510;
}
);
unicode = 80;
},
{
glyphname = Q;
lastChange = "2026-05-04 04:35:26 +0000";
layers = (
{
layerId = m01;
shapes = (
{
closed = 1;
nodes = (
(418,-318,o),
(412,-311,o),
(401,-297,c),
(396,-287,o),
(369,-249,o),
(344,-218,c),
(302,-159,o),
(259,-101,o),
(208,-25,c),
(189,2,o),
(185,6,o),
(176,9,c),
(124,23,o),
(66,78,o),
(43,136,c),
(20,184,o),
(14,219,o),
(14,287,c),
(11,329,o),
(11,346,o),
(14,356,c),
(30,439,o),
(39,470,o),
(56,508,c),
(79,566,o),
(111,604,o),
(156,631,c),
(189,652,o),
(201,659,o),
(230,659,c),
(243,662,o),
(256,662,o),
(259,666,c),
(272,673,o),
(318,673,o),
(337,666,c),
(408,648,o),
(453,583,o),
(470,473,c),
(473,442,o),
(473,373,o),
(470,336,c),
(463,257,o),
(434,171,o),
(398,116,c),
(382,88,o),
(353,54,o),
(334,40,c),
(324,33,o),
(321,30,o),
(321,26,c),
(321,23,o),
(347,-43,o),
(379,-125,c),
(408,-204,o),
(437,-280,o),
(437,-287,c),
(447,-321,o),
(444,-331,o),
(425,-321,c)
);
},
{
closed = 1;
nodes = (
(340,-156,o),
(337,-156,o),
(337,-159,c),
(337,-166,o),
(340,-170,o),
(344,-177,c),
(350,-184,o),
(353,-187,o),
(353,-187,c),
(353,-187,o),
(350,-180,o),
(347,-170,c)
);
},
{
closed = 1;
nodes = (
(250,-43,o),
(250,-43,o),
(250,-43,c),
(250,-46,o),
(253,-53,o),
(253,-53,c),
(253,-53,o),
(253,-49,o),
(253,-46,c)
);
},
{
closed = 1;
nodes = (
(302,-8,o),
(292,12,o),
(288,12,c),
(286,12,o),
(288,-8,o),
(295,-15,c),
(298,-25,o),
(304,-32,o),
(308,-29,c),
(308,-29,o),
(308,-25,o),
(304,-18,c)
);
},
{
closed = 1;
nodes = (
(253,74,o),
(253,74,o),
(253,74,c),
(250,74,o),
(250,71,o),
(250,71,c),
(250,67,o),
(253,67,o),
(253,71,c)
);
},
{
closed = 1;
nodes = (
(208,88,o),
(205,92,o),
(201,92,c),
(194,92,o),
(194,92,o),
(201,85,c),
(205,81,o),
(211,81,o),
(208,88,c)
);
},
{
closed = 1;
nodes = (
(350,98,o),
(350,98,o),
(347,95,c),
(344,95,o),
(340,92,o),
(340,92,c),
(340,88,o),
(344,92,o),
(347,95,c)
);
},
{
closed = 1;
nodes = (
(111,129,o),
(111,133,o),
(108,133,c),
(108,133,o),
(108,133,o),
(108,133,c),
(108,129,o),
(108,129,o),
(108,129,c),
(111,129,o),
(111,129,o),
(111,129,c)
);
},
{
closed = 1;
nodes = (
(56,167,o),
(52,177,o),
(50,181,c),
(46,188,o),
(46,188,o),
(46,181,c),
(50,171,o),
(63,143,o),
(63,147,c),
(63,147,o),
(63,153,o),
(59,160,c)
);
},
{
closed = 1;
nodes = (
(279,160,o),
(275,160,o),
(275,157,c),
(272,153,o),
(272,150,o),
(272,150,c),
(275,150,o),
(275,153,o),
(279,153,c)
);
},
{
closed = 1;
nodes = (
(108,205,o),
(101,212,o),
(101,205,c),
(101,205,o),
(104,198,o),
(108,191,c),
(111,184,o),
(114,181,o),
(114,184,c),
(117,188,o),
(117,191,o),
(114,198,c)
);
},
{
closed = 1;
nodes = (
(43,208,o),
(39,222,o),
(39,232,c),
(34,246,o),
(34,250,o),
(36,236,c),
(36,219,o),
(43,188,o),
(46,188,c),
(46,188,o),
(46,195,o),
(46,202,c)
);
},
{
closed = 1;
nodes = (
(108,250,o),
(108,257,o),
(108,260,c),
(108,267,o),
(108,267,o),
(101,263,c),
(95,257,o),
(95,236,o),
(101,236,c),
(104,236,o),
(104,243,o),
(104,246,c)
);
},
{
closed = 1;
nodes = (
(34,263,o),
(34,263,o),
(34,260,c),
(34,257,o),
(34,257,o),
(34,257,c),
(34,257,o),
(34,260,o),
(34,260,c)
);
},
{
closed = 1;
nodes = (
(408,294,o),
(405,298,o),
(405,298,c),
(405,301,o),
(401,301,o),
(401,294,c),
(398,287,o),
(398,287,o),
(401,287,c),
(405,291,o),
(408,291,o),
(408,294,c)
);
},
{
closed = 1;
nodes = (
(34,342,o),
(34,336,o),
(34,322,c),
(34,308,o),
(34,305,o),
(34,312,c),
(34,318,o),
(34,329,o),
(34,336,c)
);
},
{
closed = 1;
nodes = (
(447,432,o),
(444,435,o),
(444,428,c),
(444,422,o),
(444,404,o),
(444,404,c),
(447,404,o),
(447,411,o),
(447,422,c)
);
},
{
closed = 1;
nodes = (
(396,463,o),
(396,466,o),
(396,466,c),
(392,466,o),
(385,449,o),
(385,446,c),
(385,446,o),
(389,442,o),
(389,442,c),
(396,442,o),
(396,446,o),
(396,456,c)
);
},
{
closed = 1;
nodes = (
(444,459,o),
(441,470,o),
(441,480,c),
(437,497,l),
(437,480,l),
(437,463,o),
(437,449,o),
(441,449,c),
(444,449,o),
(444,452,o),
(444,456,c)
);
},
{
closed = 1;
nodes = (
(389,508,o),
(389,511,o),
(389,511,c),
(385,511,o),
(385,508,o),
(385,508,c),
(385,504,o),
(385,504,o),
(389,504,c),
(389,504,o),
(389,504,o),
(389,508,c)
);
},
{
closed = 1;
nodes = (
(185,532,o),
(185,535,o),
(185,549,c),
(185,563,o),
(185,563,o),
(182,559,c),
(178,556,o),
(172,514,o),
(176,514,c),
(176,514,o),
(178,521,o),
(182,525,c)
);
},
{
closed = 1;
nodes = (
(385,607,o),
(382,611,o),
(382,611,c),
(379,607,o),
(389,597,o),
(392,597,c),
(392,597,o),
(392,600,o),
(389,604,c)
);
},
{
closed = 1;
nodes = (
(340,631,o),
(337,635,o),
(331,635,c),
(315,638,o),
(275,638,o),
(282,631,c),
(286,631,o),
(331,631,o),
(337,631,c)
);
}
);
width = 483;
}
);
unicode = 81;
},
{
glyphname = R;
lastChange = "2026-05-04 04:36:12 +0000";
layers = (
{
layerId = m01;
shapes = (
{
closed = 1;
nodes = (
(441,-112,o),
(347,16,o),
(263,132,c),
(241,163,o),
(208,208,o),
(182,242,c),
(172,253,o),
(172,253,o),
(176,167,c),
(176,102,o),
(176,77,o),
(172,53,c),
(172,36,o),
(169,19,o),
(172,16,c),
(176,2,o),
(176,2,o),
(143,2,c),
(131,2,o),
(108,5,o),
(95,5,c),
(86,5,o),
(72,9,o),
(66,9,c),
(53,9,o),
(53,9,o),
(50,-2,c),
(46,-15,o),
(46,-15,o),
(40,-8,c),
(37,-5,o),
(30,-2,o),
(24,2,c),
(14,5,o),
(10,12,o),
(17,22,c),
(24,29,o),
(24,33,o),
(21,57,c),
(17,129,o),
(21,658,o),
(27,665,c),
(37,679,o),
(137,693,o),
(208,689,c),
(260,689,o),
(279,686,o),
(324,669,c),
(370,655,o),
(405,631,o),
(425,607,c),
(450,569,o),
(460,545,o),
(466,504,c),
(470,462,o),
(464,421,o),
(444,387,c),
(415,335,o),
(376,301,o),
(334,287,c),
(324,284,o),
(318,280,o),
(318,277,c),
(318,277,o),
(338,239,o),
(356,194,c),
(379,150,o),
(402,102,o),
(412,81,c),
(418,64,o),
(437,22,o),
(457,-12,c),
(486,-74,o),
(512,-129,o),
(518,-149,c),
(522,-160,o),
(522,-160,o),
(518,-167,c),
(515,-167,o),
(509,-170,o),
(502,-170,c),
(496,-174,o),
(493,-174,o),
(482,-160,c)
);
},
{
closed = 1;
nodes = (
(421,-15,o),
(418,-8,o),
(415,-8,c),
(412,-5,o),
(412,-5,o),
(415,-12,c),
(418,-22,o),
(425,-33,o),
(425,-33,c),
(425,-33,o),
(425,-26,o),
(421,-22,c)
);
},
{
closed = 1;
nodes = (
(386,26,o),
(383,29,o),
(379,29,c),
(376,29,o),
(376,29,o),
(392,12,c),
(399,5,o),
(399,5,o),
(389,19,c)
);
},
{
closed = 1;
nodes = (
(120,53,o),
(120,57,o),
(118,50,c),
(115,47,o),
(111,43,o),
(108,47,c),
(102,47,o),
(102,47,o),
(104,40,c),
(104,33,o),
(108,29,o),
(115,29,c),
(120,29,o),
(120,33,o),
(120,43,c)
);
},
{
closed = 1;
nodes = (
(82,64,o),
(82,67,o),
(79,71,c),
(79,71,o),
(75,67,o),
(75,60,c),
(75,53,o),
(79,50,o),
(79,50,c),
(82,50,o),
(82,53,o),
(82,60,c)
);
},
{
closed = 1;
nodes = (
(356,60,o),
(354,64,o),
(350,64,c),
(347,67,o),
(347,67,o),
(350,64,c),
(354,60,o),
(356,57,o),
(356,60,c)
);
},
{
closed = 1;
nodes = (
(347,71,o),
(344,74,o),
(340,77,c),
(334,88,o),
(334,88,o),
(340,77,c),
(347,71,o),
(347,67,o),
(347,71,c)
);
},
{
closed = 1;
nodes = (
(363,119,o),
(356,129,o),
(356,126,c),
(354,126,o),
(354,122,o),
(356,115,c),
(360,108,o),
(373,84,o),
(373,84,c),
(376,84,o),
(373,88,o),
(373,95,c)
);
},
{
closed = 1;
nodes = (
(322,157,o),
(315,167,o),
(311,170,c),
(308,177,o),
(311,170,o),
(318,157,c),
(324,143,o),
(331,132,o),
(331,132,c),
(331,132,o),
(327,139,o),
(324,150,c)
);
},
{
closed = 1;
nodes = (
(334,177,o),
(334,177,o),
(340,167,c),
(344,160,o),
(344,157,o),
(347,157,c),
(347,157,o),
(344,160,o),
(340,167,c)
);
},
{
closed = 1;
nodes = (
(241,242,o),
(237,253,o),
(234,256,c),
(234,260,o),
(230,263,o),
(228,263,c),
(224,263,o),
(221,263,o),
(221,263,c),
(221,256,o),
(250,218,o),
(253,218,c),
(253,218,o),
(250,225,o),
(246,236,c)
);
},
{
closed = 1;
nodes = (
(276,267,o),
(273,267,o),
(266,267,c),
(263,267,o),
(260,267,o),
(260,267,c),
(260,263,o),
(292,218,o),
(292,218,c),
(292,222,o),
(289,232,o),
(282,242,c)
);
},
{
closed = 1;
nodes = (
(66,232,o),
(66,232,o),
(66,229,c),
(66,225,o),
(66,222,o),
(66,225,c),
(66,225,o),
(66,229,o),
(66,232,c)
);
},
{
closed = 1;
nodes = (
(228,297,o),
(224,297,o),
(221,294,c),
(221,294,o),
(221,294,o),
(224,294,c),
(228,294,o),
(230,294,o),
(228,294,c)
);
},
{
closed = 1;
nodes = (
(115,315,o),
(115,315,o),
(115,308,c),
(115,304,o),
(115,301,o),
(115,304,c),
(115,308,o),
(115,311,o),
(115,315,c)
);
},
{
closed = 1;
nodes = (
(172,315,o),
(172,315,o),
(172,308,c),
(172,304,o),
(172,301,o),
(172,304,c),
(172,308,o),
(172,311,o),
(172,315,c)
);
},
{
closed = 1;
nodes = (
(53,346,o),
(50,342,o),
(50,335,c),
(50,325,o),
(53,322,o),
(53,325,c),
(53,328,o),
(53,335,o),
(53,342,c)
);
},
{
closed = 1;
nodes = (
(324,322,o),
(324,322,o),
(322,322,c),
(322,322,o),
(322,322,o),
(324,322,c),
(324,318,o),
(327,322,o),
(327,322,c)
);
},
{
closed = 1;
nodes = (
(257,328,o),
(253,332,o),
(250,332,c),
(244,339,o),
(244,339,o),
(244,332,c),
(241,328,o),
(241,328,o),
(246,328,c),
(253,328,o),
(257,328,o),
(257,328,c)
);
},
{
closed = 1;
nodes = (
(367,401,o),
(367,404,o),
(367,401,c),
(363,397,o),
(363,394,o),
(363,387,c),
(363,383,o),
(363,380,o),
(367,383,c),
(367,387,o),
(367,390,o),
(367,397,c)
);
},
{
closed = 1;
nodes = (
(431,428,o),
(428,425,o),
(425,418,c),
(421,411,o),
(418,404,o),
(418,404,c),
(418,401,o),
(421,407,o),
(425,411,c),
(428,418,o),
(431,425,o),
(431,428,c)
);
},
{
closed = 1;
nodes = (
(434,521,o),
(428,535,o),
(428,542,c),
(425,545,o),
(421,548,o),
(421,545,c),
(421,542,o),
(425,531,o),
(425,521,c),
(428,507,o),
(428,504,o),
(431,500,c),
(434,500,o),
(434,493,o),
(434,493,c),
(434,490,o),
(437,487,o),
(437,487,c),
(437,490,o),
(437,500,o),
(434,511,c)
);
},
{
closed = 1;
nodes = (
(82,535,o),
(82,531,o),
(82,518,c),
(82,507,o),
(82,500,o),
(82,507,c),
(82,514,o),
(82,524,o),
(82,528,c)
);
},
{
closed = 1;
nodes = (
(266,528,o),
(266,528,o),
(263,524,c),
(263,521,o),
(263,518,o),
(263,514,c),
(263,514,o),
(263,514,o),
(263,518,c),
(266,521,o),
(266,524,o),
(266,524,c)
);
},
{
closed = 1;
nodes = (
(82,548,o),
(82,548,o),
(82,545,c),
(82,542,o),
(82,542,o),
(82,542,c),
(86,542,o),
(86,545,o),
(86,548,c)
);
},
{
closed = 1;
nodes = (
(218,590,o),
(214,586,o),
(214,569,c),
(214,552,l),
(218,569,l),
(221,579,o),
(221,586,o),
(221,586,c)
);
},
{
closed = 1;
nodes = (
(276,579,o),
(276,579,o),
(273,579,c),
(273,579,o),
(270,579,o),
(270,576,c),
(270,576,o),
(273,576,o),
(273,576,c),
(273,576,o),
(273,576,o),
(276,576,c)
);
},
{
closed = 1;
nodes = (
(134,593,o),
(134,597,o),
(134,597,c),
(131,597,o),
(131,593,o),
(131,593,c),
(131,593,o),
(131,590,o),
(131,590,c),
(134,590,o),
(134,593,o),
(134,593,c)
);
},
{
closed = 1;
nodes = (
(150,624,o),
(147,624,o),
(143,624,c),
(134,624,o),
(134,624,o),
(140,621,c),
(147,617,o),
(153,617,o),
(150,621,c)
);
},
{
closed = 1;
nodes = (
(279,634,o),
(270,638,o),
(257,641,c),
(241,645,o),
(228,648,o),
(228,648,c),
(221,652,o),
(221,648,o),
(224,645,c),
(228,645,o),
(237,641,o),
(250,638,c),
(273,631,o),
(282,631,o),
(279,631,c)
);
},
{
closed = 1;
nodes = (
(66,638,o),
(66,641,o),
(66,645,c),
(69,648,o),
(66,648,o),
(59,648,c),
(50,648,o),
(46,648,o),
(46,645,c),
(46,641,o),
(50,638,o),
(50,634,c),
(53,634,o),
(66,634,o),
(66,638,c)
);
},
{
closed = 1;
nodes = (
(91,652,o),
(91,652,o),
(88,652,c),
(86,652,o),
(86,652,o),
(86,648,c),
(86,648,o),
(88,648,o),
(88,648,c),
(88,648,o),
(88,648,o),
(91,648,c)
);
},
{
closed = 1;
nodes = (
(131,655,o),
(127,655,o),
(124,655,c),
(115,655,o),
(115,655,o),
(120,652,c),
(131,648,o),
(134,648,o),
(131,652,c)
);
},
{
closed = 1;
nodes = (
(182,652,o),
(179,652,o),
(176,655,c),
(172,658,o),
(172,658,o),
(172,655,c),
(172,652,o),
(176,648,o),
(179,648,c),
(179,648,o),
(182,652,o),
(182,652,c)
);
}
);
width = 485;
}
);
unicode = 82;
},
{
glyphname = S;
lastChange = "2026-05-04 04:36:26 +0000";
layers = (
{
layerId = m01;
shapes = (
{
closed = 1;
nodes = (
(94,6,o),
(85,14,o),
(75,24,c),
(61,38,o),
(59,43,o),
(61,85,c),
(61,106,o),
(59,132,o),
(59,145,c),
(56,170,o),
(56,185,o),
(65,189,c),
(68,192,o),
(72,192,o),
(94,189,c),
(107,189,o),
(123,185,o),
(133,185,c),
(166,189,o),
(214,199,o),
(223,202,c),
(243,214,o),
(249,227,o),
(236,234,c),
(204,246,o),
(139,281,o),
(101,309,c),
(68,327,o),
(61,334,o),
(85,323,c),
(94,320,o),
(107,313,o),
(117,309,c),
(137,303,l),
(120,320,l),
(78,363,o),
(45,448,o),
(45,509,c),
(49,541,o),
(49,541,o),
(29,501,c),
(23,487,o),
(16,477,o),
(16,477,c),
(13,477,o),
(16,498,o),
(20,516,c),
(36,580,o),
(126,680,o),
(194,704,c),
(220,715,o),
(240,715,o),
(285,708,c),
(308,704,o),
(333,701,o),
(340,697,c),
(353,690,o),
(359,690,o),
(366,697,c),
(373,704,o),
(378,704,o),
(385,694,c),
(389,683,o),
(389,683,o),
(395,687,c),
(405,690,o),
(411,690,o),
(414,680,c),
(414,672,o),
(414,541,o),
(411,523,c),
(407,516,o),
(407,516,o),
(401,516,c),
(398,512,o),
(389,516,o),
(378,519,c),
(373,523,o),
(359,526,o),
(349,530,c),
(340,534,o),
(327,537,o),
(324,541,c),
(314,544,o),
(311,544,o),
(281,544,c),
(249,541,o),
(249,541,o),
(230,530,c),
(211,519,o),
(201,509,o),
(201,494,c),
(201,487,o),
(217,469,o),
(220,469,c),
(227,469,o),
(249,452,o),
(259,441,c),
(263,441,o),
(279,427,o),
(295,417,c),
(330,391,o),
(353,366,o),
(356,360,c),
(356,355,o),
(359,348,o),
(362,348,c),
(369,341,o),
(369,341,o),
(362,355,c),
(343,391,o),
(337,405,o),
(337,409,c),
(340,409,o),
(375,355,o),
(398,323,c),
(401,313,o),
(411,298,o),
(418,291,c),
(430,270,o),
(447,234,o),
(453,206,c),
(456,181,o),
(456,181,o),
(453,157,c),
(434,56,o),
(382,11,o),
(263,3,c),
(240,3,o),
(220,-1,o),
(214,-1,c),
(194,-4,o),
(126,-4,o),
(114,-1,c)
);
},
{
closed = 1;
nodes = (
(171,53,o),
(171,53,o),
(169,53,c),
(166,53,o),
(166,53,o),
(169,53,c),
(175,49,o),
(175,49,o),
(175,53,c)
);
},
{
closed = 1;
nodes = (
(130,113,o),
(126,113,o),
(126,113,c),
(123,110,o),
(126,110,o),
(130,110,c),
(133,110,o),
(133,110,o),
(133,113,c)
);
},
{
closed = 1;
nodes = (
(375,135,o),
(375,135,o),
(373,135,c),
(369,135,o),
(369,132,o),
(369,132,c),
(373,128,o),
(373,124,o),
(373,120,c),
(373,117,o),
(373,120,o),
(375,124,c),
(378,128,o),
(378,132,o),
(378,135,c)
);
},
{
closed = 1;
nodes = (
(130,152,o),
(126,152,o),
(123,152,c),
(117,152,o),
(117,152,o),
(120,145,c),
(123,142,o),
(130,142,o),
(133,142,c),
(137,142,o),
(137,142,o),
(133,149,c)
);
},
{
closed = 1;
nodes = (
(385,167,o),
(385,170,o),
(385,170,c),
(385,170,o),
(378,170,o),
(373,167,c),
(356,163,o),
(356,167,o),
(373,152,c),
(378,149,o),
(378,149,o),
(382,160,c)
);
},
{
closed = 1;
nodes = (
(295,167,o),
(295,167,o),
(292,167,c),
(288,167,o),
(281,167,o),
(279,163,c),
(272,163,o),
(272,163,o),
(281,163,c),
(285,163,o),
(288,163,o),
(292,163,c)
);
},
{
closed = 1;
nodes = (
(233,177,o),
(230,177,o),
(217,170,c),
(207,167,o),
(207,163,o),
(211,163,c),
(214,163,o),
(220,167,o),
(223,170,c)
);
},
{
closed = 1;
nodes = (
(256,185,o),
(252,185,o),
(252,185,c),
(249,181,o),
(252,181,o),
(256,181,c),
(263,185,o),
(263,185,o),
(259,185,c)
);
},
{
closed = 1;
nodes = (
(421,206,o),
(421,206,o),
(418,195,c),
(418,185,o),
(418,181,o),
(421,185,c),
(421,189,o),
(424,192,o),
(421,199,c)
);
},
{
closed = 1;
nodes = (
(401,227,o),
(401,227,o),
(395,234,c),
(389,238,o),
(385,238,o),
(385,231,c),
(385,227,o),
(382,220,o),
(378,217,c),
(366,199,o),
(366,199,o),
(369,199,c),
(373,199,o),
(378,206,o),
(389,214,c)
);
},
{
closed = 1;
nodes = (
(269,220,o),
(269,224,o),
(265,224,c),
(265,224,o),
(265,220,o),
(265,220,c),
(265,220,o),
(265,217,o),
(269,217,c),
(272,217,o),
(272,220,o),
(272,220,c)
);
},
{
closed = 1;
nodes = (
(311,238,o),
(311,238,o),
(308,238,c),
(308,238,o),
(308,238,o),
(308,234,c),
(308,234,o),
(311,234,o),
(311,234,c),
(311,234,o),
(314,234,o),
(311,234,c)
);
},
{
closed = 1;
nodes = (
(246,284,o),
(243,284,o),
(243,281,c),
(236,281,o),
(236,277,o),
(240,277,c),
(243,274,o),
(246,274,o),
(246,281,c),
(246,281,o),
(246,284,o),
(246,284,c)
);
},
{
closed = 1;
nodes = (
(385,288,o),
(385,288,o),
(382,288,c),
(382,288,o),
(382,288,o),
(385,284,c),
(391,281,o),
(391,281,o),
(389,284,c)
);
},
{
closed = 1;
nodes = (
(194,306,o),
(191,309,o),
(191,306,c),
(188,306,o),
(185,309,o),
(182,309,c),
(175,316,o),
(171,316,o),
(175,313,c),
(175,309,o),
(191,303,o),
(194,298,c),
(194,298,o),
(194,303,o),
(194,306,c)
);
},
{
closed = 1;
nodes = (
(362,313,o),
(359,316,o),
(359,316,c),
(359,313,o),
(366,306,o),
(366,306,c),
(369,306,o),
(369,309,o),
(366,309,c)
);
},
{
closed = 1;
nodes = (
(169,491,o),
(169,494,o),
(169,498,c),
(169,501,o),
(169,501,o),
(162,491,c),
(155,484,o),
(155,477,o),
(155,477,c),
(159,473,o),
(162,477,o),
(162,480,c),
(166,487,o),
(166,491,o),
(169,491,c)
);
},
{
closed = 1;
nodes = (
(142,583,o),
(142,583,o),
(126,569,c),
(120,563,o),
(114,548,o),
(110,544,c),
(104,526,o),
(104,526,o),
(114,541,c),
(117,548,o),
(123,563,o),
(130,569,c)
);
},
{
closed = 1;
nodes = (
(220,558,o),
(220,558,o),
(214,558,c),
(211,558,o),
(207,558,o),
(207,555,c),
(204,548,o),
(207,548,o),
(214,555,c)
);
},
{
closed = 1;
nodes = (
(369,583,o),
(369,587,o),
(366,583,c),
(356,580,o),
(356,580,o),
(359,576,c),
(369,573,o),
(369,576,o),
(369,580,c)
);
},
{
closed = 1;
nodes = (
(204,615,o),
(204,615,o),
(201,615,c),
(201,620,o),
(198,620,o),
(191,615,c),
(182,612,o),
(182,612,o),
(191,612,c),
(198,612,o),
(204,612,o),
(204,615,c)
);
},
{
closed = 1;
nodes = (
(459,680,o)
);
}
);
width = 470;
}
);
unicode = 83;
},
{
glyphname = T;
lastChange = "2026-05-04 04:36:37 +0000";
layers = (
{
layerId = m01;
shapes = (
{
closed = 1;
nodes = (
(290,5,o),
(270,5,o),
(247,5,c),
(215,2,o),
(209,5,o),
(209,5,c),
(209,9,o),
(212,132,o),
(212,280,c),
(212,548,o),
(212,548,o),
(202,548,c),
(199,548,o),
(166,552,o),
(131,552,c),
(22,559,o),
(11,559,o),
(8,562,c),
(8,566,o),
(8,569,o),
(8,583,c),
(11,590,o),
(11,617,o),
(11,638,c),
(15,679,l),
(2,683,l),
(-14,683,o),
(-18,686,o),
(-14,693,c),
(-11,700,o),
(-8,700,o),
(8,700,c),
(18,696,o),
(67,696,o),
(115,696,c),
(206,696,o),
(206,696,o),
(206,700,c),
(209,710,o),
(218,710,o),
(222,703,c),
(222,696,o),
(225,696,o),
(276,700,c),
(306,700,o),
(335,700,o),
(344,700,c),
(351,700,o),
(400,700,o),
(448,700,c),
(516,700,o),
(545,700,o),
(551,700,c),
(573,707,o),
(580,700,o),
(573,672,c),
(573,665,o),
(571,631,o),
(571,600,c),
(568,538,o),
(568,535,o),
(555,531,c),
(551,531,o),
(516,531,o),
(474,535,c),
(432,538,o),
(390,542,o),
(380,542,c),
(361,542,l),
(361,473,l),
(354,201,o),
(354,98,o),
(364,29,c),
(364,22,o),
(364,12,o),
(364,12,c),
(364,12,o),
(351,9,o),
(338,9,c),
(319,9,o),
(309,5,o),
(309,2,c),
(306,-2,o),
(303,-2,o),
(292,2,c)
);
},
{
closed = 1;
nodes = (
(351,29,o),
(351,29,o),
(348,26,c),
(344,22,o),
(344,19,o),
(348,19,c),
(351,16,o),
(351,16,o),
(351,22,c)
);
},
{
closed = 1;
nodes = (
(244,26,o),
(241,26,o),
(241,22,c),
(241,22,o),
(244,19,o),
(247,19,c),
(251,19,o),
(251,19,o),
(247,22,c)
);
},
{
closed = 1;
nodes = (
(319,22,o),
(315,22,o),
(312,22,c),
(312,19,o),
(312,19,o),
(315,19,c),
(319,19,o),
(322,19,o),
(319,22,c)
);
},
{
closed = 1;
nodes = (
(348,47,o),
(348,43,o),
(348,40,c),
(348,36,o),
(348,36,o),
(348,36,c),
(348,40,o),
(348,43,o),
(348,43,c)
);
},
{
closed = 1;
nodes = (
(319,84,o),
(319,84,o),
(315,71,c),
(312,50,o),
(315,43,o),
(319,43,c),
(322,43,o),
(322,43,o),
(325,43,c),
(325,43,o),
(322,50,o),
(322,64,c)
);
},
{
closed = 1;
nodes = (
(276,57,o),
(276,60,o),
(270,64,c),
(267,64,o),
(263,67,o),
(263,71,c),
(263,74,o),
(260,71,o),
(260,64,c),
(260,60,o),
(258,53,o),
(258,50,c),
(258,43,o),
(258,43,o),
(267,47,c),
(276,47,o),
(276,47,o),
(276,50,c)
);
},
{
closed = 1;
nodes = (
(344,60,o),
(344,60,o),
(344,53,c),
(344,50,o),
(344,47,o),
(344,50,c),
(344,53,o),
(344,57,o),
(344,57,c)
);
},
{
closed = 1;
nodes = (
(231,139,o),
(228,136,o),
(228,95,c),
(225,64,o),
(225,64,o),
(228,64,c),
(231,67,o),
(231,81,o),
(231,98,c)
);
},
{
closed = 1;
nodes = (
(338,88,o),
(338,88,o),
(338,81,c),
(341,74,o),
(341,67,o),
(341,67,c),
(341,64,o),
(341,67,o),
(341,71,c),
(344,74,o),
(341,81,o),
(341,84,c)
);
},
{
closed = 1;
nodes = (
(280,129,o),
(276,136,o),
(276,139,c),
(276,146,o),
(276,146,o),
(276,139,c),
(274,132,o),
(276,129,o),
(280,126,c),
(287,119,o),
(287,122,o),
(283,129,c)
);
},
{
closed = 1;
nodes = (
(258,181,o),
(258,181,o),
(258,181,c),
(254,181,o),
(258,170,o),
(260,170,c),
(260,170,o),
(260,174,o),
(260,177,c)
);
},
{
closed = 1;
nodes = (
(254,232,o),
(254,232,o),
(254,222,c),
(254,215,o),
(254,212,o),
(254,215,c),
(258,218,o),
(258,225,o),
(254,229,c)
);
},
{
closed = 1;
nodes = (
(231,222,o),
(228,222,o),
(228,218,c),
(228,215,o),
(231,212,o),
(231,215,c),
(231,215,o),
(231,218,o),
(231,218,c)
);
},
{
closed = 1;
nodes = (
(231,548,o),
(231,548,o),
(231,548,c),
(231,548,o),
(231,514,o),
(231,476,c),
(235,404,l),
(235,476,l),
(235,514,o),
(235,548,o),
(235,548,c)
);
},
{
closed = 1;
nodes = (
(332,542,o),
(332,545,o),
(328,545,c),
(325,545,o),
(325,542,o),
(325,504,c),
(325,466,o),
(325,466,o),
(325,490,c),
(328,504,o),
(328,521,o),
(328,531,c)
);
},
{
closed = 1;
nodes = (
(247,545,o),
(247,548,o),
(247,545,c),
(244,545,o),
(244,531,o),
(247,531,c),
(247,531,o),
(247,535,o),
(247,538,c)
);
},
{
closed = 1;
nodes = (
(545,569,o),
(545,573,o),
(545,573,c),
(542,573,o),
(539,569,o),
(535,566,c),
(528,559,o),
(528,559,o),
(535,559,c),
(542,559,o),
(542,559,o),
(542,566,c)
);
},
{
closed = 1;
nodes = (
(458,586,o),
(458,586,o),
(451,586,c),
(448,583,o),
(448,583,o),
(454,583,c),
(461,583,o),
(461,583,o),
(461,583,c)
);
},
{
closed = 1;
nodes = (
(115,597,o),
(108,597,o),
(102,593,c),
(92,590,o),
(86,590,o),
(79,590,c),
(73,593,o),
(63,593,o),
(56,590,c),
(47,590,o),
(54,590,o),
(83,586,c),
(118,586,o),
(118,586,o),
(121,590,c),
(125,597,o),
(125,597,o),
(118,597,c)
);
},
{
closed = 1;
nodes = (
(545,634,o),
(542,634,o),
(539,631,c),
(535,628,o),
(535,628,o),
(539,621,c),
(542,617,o),
(542,614,o),
(542,610,c),
(539,607,o),
(539,603,o),
(542,600,c),
(542,597,o),
(545,597,o),
(545,607,c),
(545,610,o),
(545,621,o),
(545,624,c)
);
},
{
closed = 1;
nodes = (
(432,610,o),
(422,610,o),
(406,610,c),
(380,610,o),
(380,610,o),
(396,607,c),
(425,603,o),
(429,603,o),
(429,607,c)
);
},
{
closed = 1;
nodes = (
(73,631,o),
(70,631,o),
(56,624,c),
(44,617,o),
(44,614,o),
(54,614,c),
(63,614,o),
(63,617,o),
(67,624,c)
);
},
{
closed = 1;
nodes = (
(254,628,o),
(251,628,o),
(251,628,c),
(247,628,o),
(251,628,o),
(254,628,c),
(258,628,o),
(258,628,o),
(258,628,c)
);
},
{
closed = 1;
nodes = (
(280,634,o),
(280,634,o),
(276,634,c),
(274,634,o),
(274,631,o),
(274,631,c),
(274,631,o),
(274,628,o),
(276,631,c),
(280,631,o),
(280,631,o),
(280,631,c)
);
},
{
closed = 1;
nodes = (
(44,648,o),
(38,645,o),
(38,641,c),
(38,638,o),
(40,638,o),
(40,641,c),
(44,641,o),
(44,645,o),
(44,645,c)
);
},
{
closed = 1;
nodes = (
(54,655,o),
(51,655,o),
(51,655,c),
(44,655,o),
(44,648,o),
(47,648,c),
(51,648,o),
(54,652,o),
(54,652,c)
);
},
{
closed = 1;
nodes = (
(60,676,o),
(60,676,o),
(44,676,c),
(31,676,o),
(31,676,o),
(31,672,c),
(31,665,o),
(38,665,o),
(51,669,c)
);
},
{
closed = 1;
nodes = (
(322,672,o),
(344,676,o),
(344,676,c),
(348,676,o),
(325,676,o),
(296,676,c),
(267,676,o),
(238,676,o),
(235,676,c),
(228,676,o),
(225,672,o),
(225,672,c),
(225,669,o),
(231,669,o),
(247,669,c),
(251,669,o),
(274,669,o),
(299,672,c)
);
},
{
closed = 1;
nodes = (
(115,676,o),
(105,676,o),
(96,676,c),
(83,676,o),
(79,672,o),
(83,672,c),
(86,669,o),
(108,672,o),
(112,672,c)
);
},
{
closed = 1;
nodes = (
(548,672,o),
(551,676,o),
(551,679,c),
(551,683,o),
(551,683,o),
(539,683,c),
(528,683,o),
(526,683,o),
(528,679,c),
(532,679,o),
(539,676,o),
(542,676,c),
(545,669,o),
(548,669,o),
(548,672,c)
);
},
{
closed = 1;
nodes = (
(384,683,o),
(367,679,o),
(364,676,c),
(361,676,o),
(364,676,o),
(370,676,c),
(377,676,o),
(380,679,o),
(384,679,c)
);
}
);
width = 583;
}
);
unicode = 84;
},
{
glyphname = U;
lastChange = "2026-05-04 04:36:48 +0000";
layers = (
{
layerId = m01;
shapes = (
{
closed = 1;
nodes = (
(140,2,o),
(123,2,o),
(117,5,c),
(104,9,o),
(81,19,o),
(81,22,c),
(81,22,o),
(104,22,o),
(142,16,c),
(169,12,o),
(214,12,o),
(207,12,c),
(203,16,o),
(188,16,o),
(169,19,c),
(129,22,o),
(107,29,o),
(88,43,c),
(59,60,o),
(39,98,o),
(30,150,c),
(26,170,o),
(26,273,o),
(30,297,c),
(32,311,o),
(32,342,o),
(32,373,c),
(36,432,o),
(36,432,o),
(32,387,c),
(26,328,o),
(19,232,o),
(16,232,c),
(14,229,o),
(14,242,o),
(14,322,c),
(14,418,o),
(16,476,o),
(26,579,c),
(36,669,o),
(36,672,o),
(36,672,c),
(32,672,o),
(32,683,o),
(39,689,c),
(43,693,o),
(48,693,o),
(169,693,c),
(327,689,o),
(398,689,o),
(421,693,c),
(437,693,o),
(443,696,o),
(443,693,c),
(446,689,o),
(450,689,o),
(453,693,c),
(456,696,o),
(459,696,o),
(462,696,c),
(469,696,o),
(469,648,o),
(466,559,c),
(466,487,o),
(466,466,o),
(469,504,c),
(469,524,o),
(482,597,o),
(482,600,c),
(486,600,o),
(486,552,o),
(486,535,c),
(482,504,o),
(479,459,o),
(472,435,c),
(472,425,o),
(466,394,o),
(462,366,c),
(453,280,o),
(434,170,o),
(421,132,c),
(414,108,o),
(394,64,o),
(385,57,c),
(378,50,o),
(333,22,o),
(320,16,c),
(284,2,o),
(201,-5,o),
(152,-2,c)
);
},
{
closed = 1;
nodes = (
(327,57,o),
(330,60,o),
(330,60,c),
(330,60,o),
(311,53,o),
(304,50,c),
(298,43,o),
(304,43,o),
(317,53,c)
);
},
{
closed = 1;
nodes = (
(356,112,o),
(353,115,o),
(353,112,c),
(349,105,o),
(349,71,o),
(353,74,c),
(353,74,o),
(356,84,o),
(356,95,c)
);
},
{
closed = 1;
nodes = (
(246,95,o),
(246,95,o),
(250,91,c),
(252,84,o),
(255,84,o),
(266,81,c),
(266,81,o),
(262,84,o),
(259,88,c)
);
},
{
closed = 1;
nodes = (
(288,105,o),
(272,112,o),
(272,108,c),
(272,105,o),
(284,98,o),
(288,98,c),
(288,98,o),
(291,98,o),
(288,98,c)
);
},
{
closed = 1;
nodes = (
(394,150,o),
(394,150,o),
(392,146,c),
(388,139,o),
(388,136,o),
(392,139,c),
(394,143,o),
(394,146,o),
(394,150,c)
);
},
{
closed = 1;
nodes = (
(394,160,o),
(394,160,o),
(394,157,c),
(394,157,o),
(394,153,o),
(394,153,c),
(398,157,o),
(398,157,o),
(394,160,c)
);
},
{
closed = 1;
nodes = (
(401,181,o),
(398,181,o),
(398,177,c),
(398,174,o),
(401,170,o),
(401,174,c),
(401,174,o),
(401,177,o),
(401,177,c)
);
},
{
closed = 1;
nodes = (
(162,191,o),
(158,194,o),
(158,194,c),
(158,194,o),
(158,191,o),
(158,187,c),
(162,177,o),
(165,177,o),
(162,187,c)
);
},
{
closed = 1;
nodes = (
(162,205,o),
(158,208,o),
(158,212,c),
(156,222,o),
(156,222,o),
(156,212,c),
(156,205,o),
(156,201,o),
(158,201,c),
(158,201,o),
(162,201,o),
(162,201,c)
);
},
{
closed = 1;
nodes = (
(207,212,o),
(203,215,o),
(203,212,c),
(203,212,o),
(203,208,o),
(203,208,c),
(203,205,o),
(207,205,o),
(207,205,c),
(207,205,o),
(207,208,o),
(207,208,c)
);
},
{
closed = 1;
nodes = (
(349,229,o),
(349,232,o),
(349,239,c),
(349,242,o),
(349,246,o),
(346,246,c),
(340,249,o),
(340,246,o),
(343,232,c),
(343,222,o),
(346,218,o),
(349,225,c)
);
},
{
closed = 1;
nodes = (
(126,308,o),
(126,308,o),
(120,311,c),
(117,315,o),
(117,315,o),
(117,304,c),
(117,297,o),
(117,294,o),
(117,294,c),
(117,294,o),
(120,297,o),
(120,301,c)
);
},
{
closed = 1;
nodes = (
(194,322,o),
(191,322,o),
(188,322,c),
(185,322,o),
(185,322,o),
(188,318,c),
(194,315,o),
(194,315,o),
(194,318,c)
);
},
{
closed = 1;
nodes = (
(140,373,o),
(140,370,o),
(140,366,c),
(140,359,o),
(140,359,o),
(140,359,c),
(140,363,o),
(140,366,o),
(140,370,c)
);
},
{
closed = 1;
nodes = (
(194,363,o),
(191,366,o),
(191,366,c),
(188,366,o),
(185,363,o),
(185,363,c),
(185,363,o),
(188,359,o),
(191,359,c),
(191,359,o),
(194,363,o),
(194,363,c)
);
},
{
closed = 1;
nodes = (
(136,387,o),
(136,383,o),
(136,380,c),
(136,377,o),
(136,377,o),
(136,377,c),
(136,380,o),
(136,383,o),
(136,383,c)
);
},
{
closed = 1;
nodes = (
(194,414,o),
(191,418,o),
(191,407,c),
(188,397,o),
(188,394,o),
(191,394,c),
(194,397,o),
(194,401,o),
(194,404,c)
);
},
{
closed = 1;
nodes = (
(359,473,o),
(359,473,o),
(356,462,c),
(356,456,o),
(353,445,o),
(353,442,c),
(353,432,o),
(353,432,o),
(356,438,c),
(356,442,o),
(359,449,o),
(359,459,c)
);
},
{
closed = 1;
nodes = (
(233,490,o),
(233,493,o),
(233,497,c),
(233,497,o),
(233,500,o),
(230,500,c),
(227,500,o),
(223,497,o),
(223,497,c),
(223,493,o),
(223,490,o),
(223,487,c),
(223,487,o),
(223,483,o),
(227,483,c),
(230,483,o),
(233,487,o),
(233,487,c)
);
},
{
closed = 1;
nodes = (
(311,504,o),
(311,507,o),
(311,507,c),
(307,507,o),
(307,507,o),
(307,507,c),
(307,507,o),
(307,500,o),
(304,497,c),
(301,487,o),
(304,490,o),
(311,500,c)
);
},
{
closed = 1;
nodes = (
(243,531,o),
(243,531,o),
(236,531,c),
(230,531,o),
(227,528,o),
(227,521,c),
(227,518,o),
(236,521,o),
(239,524,c)
);
},
{
closed = 1;
nodes = (
(156,545,o),
(156,545,o),
(156,545,c),
(152,545,o),
(152,542,o),
(152,542,c),
(152,535,o),
(152,535,o),
(156,538,c),
(156,542,o),
(156,542,o),
(156,545,c)
);
},
{
closed = 1;
nodes = (
(301,603,o),
(301,603,o),
(301,603,c),
(298,603,o),
(298,603,o),
(298,603,c),
(298,600,o),
(298,600,o),
(301,600,c),
(301,600,o),
(301,600,o),
(301,603,c)
);
},
{
closed = 1;
nodes = (
(123,614,o),
(123,614,o),
(120,617,c),
(117,621,o),
(117,621,o),
(120,628,c),
(123,631,o),
(123,634,o),
(120,634,c),
(120,638,o),
(117,641,o),
(120,645,c),
(120,655,o),
(120,655,o),
(107,655,c),
(97,655,o),
(97,655,o),
(97,645,c),
(97,638,o),
(97,638,o),
(100,641,c),
(100,645,o),
(104,645,o),
(107,645,c),
(113,645,o),
(113,645,o),
(113,628,c),
(113,607,o),
(113,603,o),
(120,610,c)
);
},
{
closed = 1;
nodes = (
(62,652,o),
(62,648,o),
(62,638,c),
(62,628,o),
(62,621,o),
(62,628,c),
(62,631,o),
(62,641,o),
(62,648,c)
);
},
{
closed = 1;
nodes = (
(317,662,o),
(313,662,o),
(313,662,c),
(311,662,o),
(311,662,o),
(307,658,c),
(307,658,o),
(311,655,o),
(311,655,c),
(313,655,o),
(317,658,o),
(317,658,c)
);
},
{
closed = 1;
nodes = (
(382,669,o),
(382,669,o),
(372,665,c),
(369,665,o),
(359,665,o),
(356,665,c),
(346,665,o),
(346,665,o),
(349,662,c),
(353,655,o),
(372,655,o),
(376,662,c)
);
},
{
closed = 1;
nodes = (
(421,672,o),
(421,672,o),
(417,672,c),
(417,672,o),
(417,672,o),
(417,669,c),
(417,669,o),
(421,665,o),
(421,665,c),
(421,665,o),
(421,669,o),
(421,669,c)
);
}
);
width = 497;
}
);
unicode = 85;
},
{
glyphname = V;
lastChange = "2026-05-04 04:36:54 +0000";
layers = (
{
layerId = m01;
shapes = (
{
closed = 1;
nodes = (
(284,-22,o),
(280,-12,o),
(277,2,c),
(277,5,o),
(270,22,o),
(264,36,c),
(244,77,o),
(219,143,o),
(190,218,c),
(147,332,o),
(134,363,o),
(134,359,c),
(134,359,o),
(141,335,o),
(147,311,c),
(157,263,o),
(160,253,o),
(154,256,c),
(151,260,o),
(122,356,o),
(102,421,c),
(82,500,o),
(70,535,o),
(57,573,c),
(44,607,o),
(15,672,o),
(12,672,c),
(12,676,o),
(12,693,o),
(15,693,c),
(18,700,o),
(80,700,o),
(380,696,c),
(542,696,o),
(590,696,o),
(594,693,c),
(597,689,o),
(597,683,o),
(594,679,c),
(590,672,o),
(581,634,o),
(581,631,c),
(581,624,o),
(581,621,o),
(577,621,c),
(574,621,o),
(571,610,o),
(565,597,c),
(558,583,o),
(545,548,o),
(532,518,c),
(520,487,o),
(506,459,o),
(509,462,c),
(509,462,o),
(513,469,o),
(520,476,c),
(532,497,o),
(561,531,o),
(561,528,c),
(561,528,o),
(536,483,o),
(509,435,c),
(490,407,o),
(442,304,o),
(412,229,c),
(354,77,o),
(338,43,o),
(325,26,c),
(318,16,o),
(306,-15,o),
(306,-19,c),
(309,-19,o),
(302,-26,o),
(300,-26,c),
(300,-26,o),
(296,-26,o),
(293,-26,c)
);
},
{
closed = 1;
nodes = (
(306,47,o),
(306,47,o),
(300,47,c),
(296,47,o),
(293,50,o),
(286,57,c),
(284,60,o),
(280,60,o),
(280,60,c),
(280,57,o),
(293,22,o),
(296,22,c),
(296,22,o),
(300,26,o),
(302,33,c)
);
},
{
closed = 1;
nodes = (
(257,167,o),
(254,170,o),
(254,170,c),
(251,170,o),
(251,167,o),
(254,157,c),
(257,146,o),
(261,150,o),
(257,160,c)
);
},
{
closed = 1;
nodes = (
(370,232,o),
(370,232,o),
(367,225,c),
(361,205,o),
(361,198,o),
(367,212,c),
(370,222,o),
(374,229,o),
(370,232,c)
);
},
{
closed = 1;
nodes = (
(196,315,o),
(192,315,o),
(196,315,c),
(203,294,o),
(203,291,o),
(203,294,c),
(203,297,o),
(203,301,o),
(199,308,c)
);
},
{
closed = 1;
nodes = (
(183,380,o),
(186,380,o),
(180,373,c),
(176,363,o),
(176,363,o),
(186,346,c),
(190,335,o),
(196,328,o),
(196,328,c),
(196,328,o),
(196,339,o),
(192,349,c)
);
},
{
closed = 1;
nodes = (
(306,359,o),
(306,359,o),
(302,363,c),
(302,363,o),
(300,359,o),
(300,359,c),
(300,356,o),
(302,352,o),
(302,352,c),
(306,352,o),
(306,352,o),
(306,356,c)
);
},
{
closed = 1;
nodes = (
(254,377,o),
(254,380,o),
(251,380,c),
(251,380,o),
(251,380,o),
(251,380,c),
(251,377,o),
(251,377,o),
(251,377,c),
(254,377,o),
(254,377,o),
(254,377,c)
);
},
{
closed = 1;
nodes = (
(313,411,o),
(309,411,o),
(309,407,c),
(309,404,o),
(313,404,o),
(313,404,c),
(313,404,o),
(313,407,o),
(313,411,c)
);
},
{
closed = 1;
nodes = (
(354,504,o),
(351,507,o),
(351,507,c),
(351,507,o),
(347,504,o),
(347,500,c),
(347,497,o),
(351,493,o),
(351,493,c),
(351,493,o),
(351,497,o),
(351,500,c)
);
},
{
closed = 1;
nodes = (
(490,521,o),
(490,521,o),
(490,511,c),
(487,504,o),
(487,504,o),
(490,511,c),
(493,514,o),
(493,518,o),
(493,521,c)
);
},
{
closed = 1;
nodes = (
(219,528,o),
(215,531,o),
(199,531,c),
(192,531,o),
(186,531,o),
(186,531,c),
(186,531,o),
(186,528,o),
(190,528,c),
(190,521,o),
(192,521,o),
(206,524,c)
);
},
{
closed = 1;
nodes = (
(176,559,o),
(176,562,o),
(180,566,c),
(183,569,o),
(180,573,o),
(176,573,c),
(174,573,o),
(174,569,o),
(170,569,c),
(170,562,o),
(174,552,o),
(176,552,c),
(180,552,o),
(180,555,o),
(180,559,c)
);
},
{
closed = 1;
nodes = (
(105,610,o),
(105,610,o),
(109,603,c),
(109,600,o),
(109,600,o),
(111,600,c),
(111,600,o),
(111,603,o),
(109,607,c)
);
},
{
closed = 1;
nodes = (
(471,628,o),
(471,628,o),
(468,628,c),
(461,628,o),
(457,624,o),
(455,617,c),
(455,610,o),
(455,607,o),
(455,607,c),
(455,607,o),
(457,614,o),
(464,617,c)
);
},
{
closed = 1;
nodes = (
(432,631,o),
(426,631,o),
(422,624,c),
(422,614,o),
(422,610,o),
(426,610,c),
(432,610,o),
(432,610,o),
(432,621,c)
);
},
{
closed = 1;
nodes = (
(329,638,o),
(329,638,o),
(325,638,c),
(322,638,o),
(318,638,o),
(322,634,c),
(322,631,o),
(322,628,o),
(322,624,c),
(322,617,o),
(322,617,o),
(325,624,c),
(329,631,o),
(329,634,o),
(329,638,c)
);
},
{
closed = 1;
nodes = (
(289,634,o),
(289,638,o),
(289,638,c),
(289,638,o),
(284,638,o),
(273,638,c),
(261,641,o),
(257,638,o),
(257,634,c),
(257,631,o),
(257,631,o),
(261,631,c),
(270,634,o),
(273,631,o),
(273,624,c),
(273,617,o),
(284,621,o),
(286,628,c)
);
},
{
closed = 1;
nodes = (
(53,641,o),
(53,645,o),
(50,645,c),
(50,645,o),
(53,641,o),
(53,638,c),
(57,631,o),
(57,628,o),
(57,628,c),
(57,624,o),
(60,624,o),
(60,628,c),
(60,628,o),
(60,631,o),
(57,638,c)
);
},
{
closed = 1;
nodes = (
(232,628,o),
(235,631,o),
(235,634,c),
(235,641,o),
(235,641,o),
(228,641,c),
(219,641,o),
(219,641,o),
(219,638,c),
(219,634,o),
(221,631,o),
(221,631,c),
(221,624,o),
(232,624,o),
(232,628,c)
);
},
{
closed = 1;
nodes = (
(96,638,o),
(96,641,o),
(93,641,c),
(86,641,o),
(86,641,o),
(89,634,c),
(89,631,o),
(96,631,o),
(96,638,c)
);
},
{
closed = 1;
nodes = (
(154,638,o),
(151,638,o),
(147,638,c),
(147,638,o),
(144,634,o),
(144,634,c),
(141,634,o),
(141,634,o),
(141,634,c),
(141,631,o),
(144,631,o),
(147,631,c),
(151,631,o),
(154,631,o),
(154,634,c)
);
},
{
closed = 1;
nodes = (
(529,655,o),
(529,655,o),
(516,655,c),
(509,655,o),
(490,655,o),
(473,655,c),
(457,655,o),
(444,655,o),
(444,655,c),
(448,655,o),
(493,648,o),
(509,648,c),
(516,648,o),
(522,648,o),
(525,652,c)
);
},
{
closed = 1;
nodes = (
(50,669,o),
(50,672,o),
(48,672,c),
(41,672,o),
(41,669,o),
(44,658,c),
(48,652,o),
(50,648,o),
(50,648,c),
(50,648,o),
(50,655,o),
(50,662,c)
);
},
{
closed = 1;
nodes = (
(167,665,o),
(167,665,o),
(134,669,c),
(102,672,o),
(96,672,o),
(102,665,c),
(105,658,o),
(109,658,o),
(115,662,c),
(122,662,o),
(134,662,o),
(144,662,c)
);
},
{
closed = 1;
nodes = (
(567,672,o),
(567,672,o),
(565,669,c),
(561,669,o),
(561,665,o),
(561,662,c),
(561,658,o),
(561,658,o),
(565,665,c)
);
},
{
closed = 1;
nodes = (
(89,672,o),
(86,672,o),
(82,672,c),
(80,672,o),
(77,672,o),
(77,669,c),
(77,669,o),
(86,669,o),
(89,672,c)
);
}
);
width = 609;
}
);
unicode = 86;
},
{
glyphname = W;
lastChange = "2026-05-04 04:37:03 +0000";
layers = (
{
layerId = m01;
shapes = (
{
closed = 1;
nodes = (
(520,-15,o),
(484,19,o),
(484,22,c),
(484,26,o),
(478,36,o),
(471,50,c),
(462,64,o),
(448,91,o),
(439,108,c),
(430,129,o),
(414,160,o),
(403,177,c),
(394,194,o),
(381,222,o),
(374,236,c),
(365,260,o),
(342,297,o),
(339,297,c),
(339,297,o),
(313,239,o),
(297,191,c),
(277,139,o),
(245,60,o),
(242,64,c),
(242,67,o),
(255,119,o),
(268,153,c),
(271,167,o),
(277,181,o),
(277,184,c),
(277,187,o),
(271,174,o),
(261,153,c),
(252,136,o),
(232,95,o),
(216,64,c),
(200,33,o),
(190,9,o),
(190,5,c),
(190,2,o),
(178,-12,o),
(174,-12,c),
(174,-12,o),
(171,-8,o),
(165,-5,c),
(158,2,o),
(158,9,o),
(151,22,c),
(151,29,o),
(149,43,o),
(145,47,c),
(138,64,o),
(113,170,o),
(86,291,c),
(80,315,o),
(74,349,o),
(64,373,c),
(41,459,o),
(12,583,o),
(12,586,c),
(12,590,o),
(23,562,o),
(32,528,c),
(45,493,o),
(52,466,o),
(52,466,c),
(55,466,o),
(48,493,o),
(41,524,c),
(25,617,o),
(19,655,o),
(19,665,c),
(19,676,o),
(19,679,o),
(25,683,c),
(32,686,o),
(41,686,o),
(109,689,c),
(184,689,o),
(306,686,o),
(371,683,c),
(391,679,o),
(401,679,o),
(407,683,c),
(416,686,o),
(416,686,o),
(401,689,c),
(394,689,o),
(378,689,o),
(368,689,c),
(358,689,o),
(349,693,o),
(349,693,c),
(349,700,o),
(507,700,o),
(598,696,c),
(684,689,o),
(684,689,o),
(675,669,c),
(668,655,o),
(668,655,o),
(675,641,c),
(682,638,o),
(684,631,o),
(684,628,c),
(684,628,o),
(682,628,o),
(678,634,c),
(675,638,o),
(672,641,o),
(672,641,c),
(668,645,o),
(666,624,o),
(659,600,c),
(652,559,o),
(652,552,o),
(655,531,c),
(655,528,o),
(655,524,o),
(655,528,c),
(652,528,o),
(652,521,o),
(650,504,c),
(646,493,o),
(646,493,o),
(666,542,c),
(675,562,o),
(682,579,o),
(682,583,c),
(688,590,o),
(675,542,o),
(646,438,c),
(614,335,o),
(598,256,o),
(588,170,c),
(585,150,o),
(581,126,o),
(581,115,c),
(565,40,o),
(556,-12,o),
(549,-22,c),
(546,-29,o),
(542,-29,o),
(529,-22,c)
);
},
{
closed = 1;
nodes = (
(184,60,o),
(184,60,o),
(180,60,c),
(180,60,o),
(180,60,o),
(180,57,c),
(180,57,o),
(180,57,o),
(180,57,c),
(180,57,o),
(184,57,o),
(184,57,c)
);
},
{
closed = 1;
nodes = (
(495,150,o),
(495,184,o),
(495,208,c),
(495,239,o),
(495,249,o),
(491,246,c),
(491,242,o),
(488,157,o),
(491,115,c),
(495,102,o),
(495,98,o),
(495,102,c),
(497,105,o),
(497,119,o),
(495,136,c)
);
},
{
closed = 1;
nodes = (
(180,153,o),
(178,153,o),
(174,153,c),
(171,157,o),
(171,153,o),
(171,150,c),
(171,143,o),
(167,139,o),
(167,136,c),
(165,132,o),
(165,129,o),
(165,122,c),
(167,108,o),
(167,108,o),
(174,129,c),
(178,139,o),
(180,150,o),
(180,150,c)
);
},
{
closed = 1;
nodes = (
(462,143,o),
(462,143,o),
(465,132,c),
(465,129,o),
(465,126,o),
(468,126,c),
(468,126,o),
(468,129,o),
(465,132,c)
);
},
{
closed = 1;
nodes = (
(226,143,o),
(226,143,o),
(223,143,c),
(223,143,o),
(219,139,o),
(219,139,c),
(219,136,o),
(223,136,o),
(223,139,c)
);
},
{
closed = 1;
nodes = (
(145,256,o),
(142,270,o),
(138,253,c),
(135,246,o),
(145,198,o),
(149,198,c),
(149,198,o),
(149,212,o),
(145,225,c)
);
},
{
closed = 1;
nodes = (
(448,256,o),
(448,260,o),
(443,260,c),
(436,263,o),
(436,263,o),
(430,260,c),
(426,256,o),
(423,253,o),
(423,253,c),
(419,253,o),
(423,242,o),
(430,236,c),
(443,215,o),
(443,215,o),
(446,246,c)
);
},
{
closed = 1;
nodes = (
(145,373,o),
(145,373,o),
(142,359,c),
(138,349,o),
(138,346,o),
(142,335,c),
(142,325,o),
(145,318,o),
(145,318,c),
(145,318,o),
(145,332,o),
(145,346,c)
);
},
{
closed = 1;
nodes = (
(378,342,o),
(374,346,o),
(371,335,c),
(368,335,o),
(368,332,o),
(365,332,c),
(362,335,o),
(362,328,o),
(365,325,c),
(368,318,o),
(371,322,o),
(374,332,c)
);
},
{
closed = 1;
nodes = (
(203,373,o),
(203,370,o),
(203,366,c),
(203,363,o),
(203,363,o),
(203,366,c),
(203,366,o),
(203,370,o),
(203,370,c)
);
},
{
closed = 1;
nodes = (
(212,425,o),
(210,428,o),
(210,428,c),
(203,428,o),
(203,425,o),
(203,411,c),
(203,404,o),
(203,394,o),
(203,390,c),
(203,387,o),
(203,394,o),
(207,404,c),
(212,414,o),
(212,425,o),
(212,425,c)
);
},
{
closed = 1;
nodes = (
(171,456,o),
(167,459,o),
(167,456,c),
(165,456,o),
(165,445,o),
(165,435,c),
(165,418,o),
(165,418,o),
(167,428,c),
(167,435,o),
(171,442,o),
(171,449,c)
);
},
{
closed = 1;
nodes = (
(145,473,o),
(145,469,o),
(145,466,c),
(145,462,o),
(145,459,o),
(145,462,c),
(145,462,o),
(145,469,o),
(145,469,c)
);
},
{
closed = 1;
nodes = (
(223,518,o),
(226,521,o),
(223,521,c),
(219,528,o),
(219,524,o),
(216,511,c),
(216,504,o),
(216,504,o),
(223,511,c)
);
},
{
closed = 1;
nodes = (
(588,528,o),
(588,528,o),
(585,518,c),
(585,511,o),
(585,511,o),
(588,518,c),
(591,521,o),
(591,528,o),
(591,528,c)
);
},
{
closed = 1;
nodes = (
(129,548,o),
(129,545,o),
(129,542,c),
(129,538,o),
(129,538,o),
(129,542,c),
(132,542,o),
(132,545,o),
(129,545,c)
);
},
{
closed = 1;
nodes = (
(604,559,o),
(601,559,o),
(601,559,c),
(598,559,o),
(598,559,o),
(598,555,c),
(598,552,o),
(601,552,o),
(601,552,c),
(601,552,o),
(601,552,o),
(601,555,c)
);
},
{
closed = 1;
nodes = (
(245,583,o),
(248,586,o),
(248,590,c),
(248,600,o),
(242,597,o),
(239,590,c),
(236,579,o),
(242,573,o),
(245,579,c)
);
},
{
closed = 1;
nodes = (
(329,590,o),
(329,593,o),
(329,593,c),
(326,597,o),
(320,590,o),
(320,586,c),
(320,583,o),
(326,583,o),
(329,590,c)
);
},
{
closed = 1;
nodes = (
(158,607,o),
(158,607,o),
(158,600,c),
(158,593,o),
(158,590,o),
(158,593,c),
(158,593,o),
(161,597,o),
(158,600,c)
);
},
{
closed = 1;
nodes = (
(119,631,o),
(122,631,o),
(122,634,c),
(122,634,o),
(116,634,o),
(113,634,c),
(103,634,o),
(103,634,o),
(103,631,c),
(103,631,o),
(106,628,o),
(109,631,c),
(109,631,o),
(113,631,o),
(116,631,c)
);
},
{
closed = 1;
nodes = (
(329,655,o),
(322,655,o),
(320,655,c),
(313,655,o),
(313,655,o),
(320,655,c),
(329,652,o),
(329,652,o),
(329,655,c)
);
},
{
closed = 1;
nodes = (
(591,662,o),
(591,662,o),
(581,662,c),
(578,662,o),
(569,665,o),
(562,665,c),
(552,665,l),
(562,658,l),
(574,655,o),
(581,652,o),
(588,658,c)
);
},
{
closed = 1;
nodes = (
(226,662,o),
(223,662,o),
(223,662,c),
(219,658,o),
(223,658,o),
(226,658,c),
(229,658,o),
(229,658,o),
(229,662,c)
);
},
{
closed = 1;
nodes = (
(446,662,o),
(443,662,o),
(443,662,c),
(439,658,o),
(439,658,o),
(443,658,c),
(446,658,o),
(446,658,o),
(446,662,c)
);
},
{
closed = 1;
nodes = (
(86,665,o),
(80,665,o),
(70,665,c),
(61,665,o),
(55,665,o),
(55,665,c),
(55,662,o),
(84,665,o),
(84,665,c)
);
},
{
closed = 1;
nodes = (
(468,665,o),
(462,665,o),
(459,662,c),
(452,662,o),
(459,662,o),
(468,662,c),
(475,662,o),
(478,662,o),
(475,665,c)
);
}
);
width = 698;
}
);
unicode = 87;
},
{
glyphname = X;
lastChange = "2026-05-04 04:37:10 +0000";
layers = (
{
layerId = m01;
shapes = (
{
closed = 1;
nodes = (
(142,-26,o),
(230,5,o),
(256,16,c),
(265,16,o),
(185,19,o),
(94,22,c),
(65,22,o),
(39,22,o),
(32,22,c),
(26,22,o),
(16,26,o),
(16,26,c),
(10,29,o),
(10,29,o),
(16,47,c),
(23,53,o),
(32,81,o),
(43,102,c),
(52,122,o),
(59,139,o),
(59,143,c),
(61,143,o),
(68,157,o),
(75,174,c),
(81,191,o),
(91,212,o),
(94,218,c),
(101,236,o),
(101,236,o),
(77,201,c),
(49,157,o),
(36,139,o),
(36,143,c),
(32,150,o),
(75,229,o),
(120,301,c),
(139,332,o),
(155,359,o),
(155,366,c),
(158,373,o),
(162,383,o),
(165,383,c),
(169,397,o),
(169,397,o),
(162,407,c),
(158,414,o),
(155,418,o),
(155,421,c),
(155,421,o),
(149,428,o),
(146,438,c),
(139,445,o),
(136,452,o),
(136,452,c),
(136,456,o),
(133,459,o),
(129,466,c),
(124,473,o),
(117,487,o),
(110,497,c),
(104,511,o),
(101,521,o),
(97,521,c),
(97,521,o),
(94,531,o),
(88,538,c),
(84,548,o),
(77,559,o),
(75,569,c),
(72,576,o),
(65,583,o),
(65,586,c),
(65,586,o),
(59,597,o),
(52,610,c),
(45,621,o),
(39,634,o),
(36,641,c),
(32,645,o),
(29,652,o),
(29,652,c),
(29,655,o),
(26,658,o),
(20,665,c),
(14,679,o),
(14,679,o),
(20,686,c),
(26,696,o),
(32,696,o),
(36,689,c),
(43,686,o),
(45,686,o),
(117,686,c),
(158,686,o),
(194,686,o),
(198,686,c),
(210,693,o),
(427,693,o),
(498,693,c),
(553,689,o),
(553,689,o),
(563,683,c),
(569,676,o),
(569,676,o),
(566,669,c),
(566,665,o),
(547,634,o),
(527,600,c),
(485,528,o),
(469,490,o),
(443,414,c),
(430,383,o),
(421,359,o),
(421,356,c),
(414,349,o),
(423,418,o),
(437,452,c),
(439,466,o),
(443,476,o),
(443,476,c),
(443,476,o),
(417,432,o),
(411,425,c),
(407,418,o),
(405,411,o),
(391,387,c),
(378,366,o),
(378,370,o),
(391,339,c),
(394,332,o),
(401,315,o),
(407,304,c),
(411,291,o),
(414,277,o),
(417,273,c),
(421,270,o),
(423,260,o),
(427,249,c),
(430,239,o),
(434,229,o),
(437,222,c),
(437,215,o),
(443,201,o),
(450,187,c),
(453,174,o),
(463,150,o),
(469,132,c),
(472,115,o),
(482,91,o),
(488,74,c),
(495,57,o),
(501,40,o),
(504,36,c),
(515,29,o),
(511,19,o),
(504,16,c),
(495,12,o),
(488,12,o),
(434,12,c),
(360,16,o),
(340,12,o),
(227,-12,c),
(139,-33,o),
(133,-33,o),
(136,-29,c)
);
},
{
closed = 1;
nodes = (
(104,91,o),
(94,102,o),
(94,95,c),
(91,95,o),
(91,81,o),
(91,67,c),
(88,43,l),
(97,60,l),
(101,67,o),
(104,77,o),
(104,84,c)
);
},
{
closed = 1;
nodes = (
(259,71,o),
(259,74,o),
(259,98,c),
(256,122,o),
(256,122,o),
(250,112,c),
(246,105,o),
(233,67,o),
(230,57,c),
(230,50,o),
(230,50,o),
(239,50,c),
(252,50,o),
(252,50,o),
(256,60,c)
);
},
{
closed = 1;
nodes = (
(456,81,o),
(456,81,o),
(456,84,c),
(453,84,o),
(453,84,o),
(453,81,c),
(453,81,o),
(453,77,o),
(456,77,c),
(456,77,o),
(456,81,o),
(456,81,c)
);
},
{
closed = 1;
nodes = (
(333,184,o),
(336,191,o),
(330,198,c),
(327,205,o),
(327,205,o),
(327,198,c),
(327,191,o),
(313,139,o),
(311,136,c),
(311,132,o),
(308,119,o),
(311,119,c),
(313,119,o),
(317,132,o),
(324,150,c)
);
},
{
closed = 1;
nodes = (
(204,342,o),
(201,339,o),
(198,328,c),
(194,322,o),
(194,322,o),
(198,322,c),
(201,322,o),
(201,328,o),
(204,332,c)
);
},
{
closed = 1;
nodes = (
(311,363,o),
(317,377,o),
(320,387,c),
(324,407,o),
(330,435,o),
(349,493,c),
(349,500,o),
(353,507,o),
(353,511,c),
(353,511,o),
(349,511,o),
(346,507,c),
(343,507,o),
(340,500,o),
(336,476,c),
(333,473,o),
(333,469,o),
(330,473,c),
(327,473,o),
(324,466,o),
(320,442,c),
(317,425,o),
(313,411,o),
(311,407,c),
(308,401,o),
(295,335,o),
(295,328,c),
(295,322,o),
(297,325,o),
(301,335,c),
(301,346,o),
(308,356,o),
(311,359,c)
);
},
{
closed = 1;
nodes = (
(227,390,o),
(227,394,o),
(223,394,c),
(223,390,o),
(223,387,o),
(223,387,c),
(223,383,o),
(223,380,o),
(223,380,c),
(227,380,o),
(227,383,o),
(227,387,c)
);
},
{
closed = 1;
nodes = (
(201,404,o),
(201,401,o),
(201,397,c),
(201,394,o),
(201,394,o),
(201,397,c),
(204,397,o),
(204,401,o),
(201,401,c)
);
},
{
closed = 1;
nodes = (
(288,449,o),
(288,452,o),
(291,456,c),
(291,456,o),
(295,462,o),
(295,469,c),
(295,480,o),
(295,480,o),
(291,480,c),
(284,480,o),
(281,476,o),
(281,452,c),
(279,421,o),
(279,418,o),
(281,432,c),
(284,438,o),
(288,445,o),
(288,449,c)
);
},
{
closed = 1;
nodes = (
(223,480,o),
(223,480,o),
(223,469,c),
(223,462,o),
(223,459,o),
(223,462,c),
(223,466,o),
(223,473,o),
(223,476,c)
);
},
{
closed = 1;
nodes = (
(301,511,o),
(301,511,o),
(295,511,c),
(284,507,o),
(284,507,o),
(284,504,c),
(288,500,o),
(291,504,o),
(301,511,c)
);
},
{
closed = 1;
nodes = (
(430,548,o),
(434,552,o),
(430,548,c),
(427,548,o),
(423,548,o),
(421,545,c),
(411,545,o),
(411,542,o),
(411,531,c),
(411,524,o),
(407,518,o),
(407,518,c),
(405,511,o),
(411,514,o),
(423,538,c)
);
},
{
closed = 1;
nodes = (
(304,531,o),
(311,542,o),
(311,548,c),
(311,552,o),
(311,552,o),
(311,552,c),
(311,552,o),
(308,552,o),
(301,548,c),
(291,548,o),
(288,545,o),
(288,538,c),
(284,531,o),
(288,531,o),
(288,531,c),
(291,531,o),
(295,531,o),
(297,531,c)
);
},
{
closed = 1;
nodes = (
(110,562,o),
(110,559,o),
(113,552,c),
(113,548,o),
(113,548,o),
(117,552,c),
(117,555,o),
(113,559,o),
(113,559,c)
);
},
{
closed = 1;
nodes = (
(252,569,o),
(250,573,o),
(243,569,c),
(233,569,o),
(230,569,o),
(233,562,c),
(236,559,o),
(236,555,o),
(236,552,c),
(239,548,o),
(239,548,o),
(246,552,c),
(250,555,o),
(252,562,o),
(252,566,c)
);
},
{
closed = 1;
nodes = (
(343,562,o),
(340,562,o),
(340,559,c),
(340,555,o),
(343,552,o),
(343,555,c),
(343,555,o),
(343,559,o),
(343,559,c)
);
},
{
closed = 1;
nodes = (
(446,593,o),
(443,590,o),
(439,583,c),
(437,579,o),
(437,579,o),
(443,583,c),
(446,583,o),
(446,586,o),
(446,586,c)
);
},
{
closed = 1;
nodes = (
(288,597,o),
(284,597,o),
(284,597,c),
(281,597,o),
(284,597,o),
(288,597,c),
(291,597,o),
(291,597,o),
(291,597,c)
);
},
{
closed = 1;
nodes = (
(324,600,o),
(327,600,o),
(327,603,c),
(327,607,o),
(317,607,o),
(313,603,c),
(313,600,o),
(311,600,o),
(308,600,c),
(297,597,o),
(297,597,o),
(304,597,c),
(308,597,o),
(313,597,o),
(320,600,c)
);
},
{
closed = 1;
nodes = (
(340,607,o),
(340,607,o),
(336,607,c),
(333,607,o),
(333,607,o),
(333,603,c),
(333,603,o),
(336,603,o),
(336,603,c),
(340,603,o),
(340,603,o),
(340,603,c)
);
},
{
closed = 1;
nodes = (
(472,607,o),
(475,610,o),
(479,614,c),
(488,628,o),
(495,638,o),
(495,641,c),
(495,641,o),
(491,645,o),
(485,645,c),
(472,645,o),
(472,645,o),
(472,638,c),
(475,631,o),
(475,621,o),
(469,614,c),
(466,610,o),
(466,607,o),
(466,607,c),
(469,603,o),
(472,600,o),
(472,603,c)
);
},
{
closed = 1;
nodes = (
(365,610,o),
(362,614,o),
(356,610,c),
(346,610,o),
(343,607,o),
(353,607,c),
(356,607,o),
(362,610,o),
(362,610,c)
);
},
{
closed = 1;
nodes = (
(236,634,o),
(239,638,o),
(239,638,c),
(239,641,o),
(185,638,o),
(175,634,c),
(169,631,o),
(169,634,o),
(171,628,c),
(171,624,o),
(175,624,o),
(201,631,c),
(217,634,o),
(230,634,o),
(233,634,c)
);
},
{
closed = 1;
nodes = (
(91,641,o),
(91,638,o),
(91,634,c),
(91,631,o),
(91,631,o),
(91,634,c),
(91,634,o),
(91,638,o),
(91,638,c)
);
},
{
closed = 1;
nodes = (
(421,641,o),
(417,641,o),
(411,641,c),
(401,641,o),
(398,638,o),
(405,634,c),
(405,634,o),
(417,634,o),
(421,638,c)
);
},
{
closed = 1;
nodes = (
(146,652,o),
(142,652,o),
(126,652,c),
(120,652,o),
(110,652,o),
(110,648,c),
(110,648,o),
(113,648,o),
(117,648,c),
(117,648,o),
(120,648,o),
(120,648,c),
(120,645,o),
(124,645,o),
(129,645,c),
(136,648,o),
(136,645,o),
(136,645,c),
(136,641,o),
(136,641,o),
(139,641,c),
(139,641,o),
(139,645,o),
(142,648,c)
);
},
{
closed = 1;
nodes = (
(256,645,o),
(252,645,o),
(250,641,c),
(250,641,o),
(250,641,o),
(252,641,c),
(256,641,o),
(259,641,o),
(256,641,c)
);
},
{
closed = 1;
nodes = (
(91,645,o),
(91,645,o),
(88,645,c),
(88,645,o),
(88,645,o),
(91,645,c),
(91,645,o),
(94,645,o),
(94,645,c)
);
},
{
closed = 1;
nodes = (
(68,662,o),
(65,665,o),
(59,665,c),
(52,665,o),
(52,665,o),
(55,662,c),
(55,658,o),
(59,655,o),
(61,655,c),
(65,655,o),
(68,658,o),
(68,662,c)
);
}
);
width = 582;
}
);
unicode = 88;
},
{
glyphname = Y;
lastChange = "2026-05-04 04:37:24 +0000";
layers = (
{
layerId = m01;
shapes = (
{
closed = 1;
nodes = (
(314,2,o),
(289,6,o),
(265,6,c),
(240,9,o),
(214,12,o),
(208,12,c),
(198,16,o),
(191,16,o),
(188,16,c),
(185,19,o),
(185,43,o),
(185,164,c),
(182,305,l),
(152,370,l),
(134,408,o),
(120,432,o),
(120,428,c),
(120,425,o),
(127,408,o),
(130,384,c),
(139,349,o),
(139,342,o),
(136,346,c),
(134,349,o),
(101,428,o),
(85,477,c),
(58,549,o),
(36,614,o),
(20,648,c),
(13,666,o),
(10,679,o),
(10,683,c),
(13,690,o),
(24,693,o),
(30,690,c),
(33,690,o),
(40,690,o),
(42,690,c),
(49,693,o),
(110,693,o),
(182,697,c),
(253,697,o),
(314,700,o),
(317,700,c),
(330,703,o),
(489,700,o),
(492,700,c),
(496,697,o),
(498,697,o),
(530,703,c),
(541,703,o),
(541,703,o),
(544,700,c),
(547,697,o),
(547,693,o),
(547,690,c),
(547,686,o),
(537,666,o),
(528,642,c),
(476,542,o),
(472,538,o),
(431,408,c),
(395,298,o),
(392,294,o),
(411,380,c),
(418,404,o),
(420,425,o),
(420,425,c),
(420,425,o),
(415,408,o),
(404,387,c),
(398,367,o),
(382,336,o),
(372,315,c),
(359,277,o),
(356,277,o),
(353,243,c),
(353,222,o),
(350,184,o),
(350,119,c),
(350,67,o),
(350,26,o),
(350,26,c),
(350,26,o),
(334,23,o),
(314,23,c),
(278,23,o),
(278,23,o),
(292,19,c),
(317,12,o),
(353,2,o),
(353,-1,c),
(353,-1,o),
(350,-5,o),
(350,-1,c),
(346,-1,o),
(337,-1,o),
(327,-1,c)
);
},
{
closed = 1;
nodes = (
(220,40,o),
(217,43,o),
(217,47,c),
(214,50,o),
(214,47,o),
(214,43,c),
(214,40,o),
(214,37,o),
(220,37,c),
(224,37,o),
(224,40,o),
(220,40,c)
);
},
{
closed = 1;
nodes = (
(243,67,o),
(243,67,o),
(240,67,c),
(240,67,o),
(237,67,o),
(237,67,c),
(237,64,o),
(240,64,o),
(240,64,c),
(240,64,o),
(240,64,o),
(243,67,c)
);
},
{
closed = 1;
nodes = (
(217,85,o),
(217,88,o),
(217,88,c),
(214,88,o),
(214,85,o),
(214,78,c),
(214,67,o),
(214,67,o),
(217,71,c),
(217,74,o),
(217,78,o),
(217,81,c)
);
},
{
closed = 1;
nodes = (
(224,122,o),
(220,126,o),
(220,129,c),
(217,133,o),
(214,126,o),
(217,122,c),
(220,116,o),
(224,116,o),
(224,122,c)
);
},
{
closed = 1;
nodes = (
(240,153,o),
(240,153,o),
(237,153,c),
(237,153,o),
(237,150,o),
(237,150,c),
(237,147,o),
(237,147,o),
(240,150,c)
);
},
{
closed = 1;
nodes = (
(301,188,o),
(301,195,o),
(301,198,c),
(305,205,o),
(305,205,o),
(301,198,c),
(298,191,o),
(294,181,o),
(298,181,c),
(301,181,o),
(301,181,o),
(301,184,c)
);
},
{
closed = 1;
nodes = (
(220,236,o),
(220,236,o),
(217,236,c),
(217,236,o),
(217,236,o),
(217,232,c),
(217,232,o),
(217,232,o),
(220,232,c),
(220,232,o),
(224,232,o),
(224,232,c)
);
},
{
closed = 1;
nodes = (
(321,315,o),
(317,308,o),
(321,305,c),
(321,301,o),
(321,301,o),
(321,305,c),
(324,308,o),
(324,312,o),
(321,312,c)
);
},
{
closed = 1;
nodes = (
(340,463,o),
(340,463,o),
(337,459,c),
(330,456,o),
(327,452,o),
(334,452,c),
(334,452,o),
(337,456,o),
(337,456,c)
);
},
{
closed = 1;
nodes = (
(415,470,o),
(415,470,o),
(411,470,c),
(411,470,o),
(411,466,o),
(411,466,c),
(411,459,o),
(411,459,o),
(415,466,c)
);
},
{
closed = 1;
nodes = (
(204,532,o),
(204,532,o),
(198,532,c),
(191,532,o),
(182,532,o),
(175,532,c),
(166,528,o),
(166,532,o),
(172,511,c),
(175,504,o),
(175,504,o),
(179,511,c),
(179,518,o),
(182,521,o),
(191,528,c)
);
},
{
closed = 1;
nodes = (
(156,569,o),
(152,566,o),
(156,559,c),
(156,556,o),
(156,556,o),
(159,559,c),
(159,563,o),
(159,563,o),
(159,566,c)
);
},
{
closed = 1;
nodes = (
(334,573,o),
(337,573,o),
(334,573,c),
(330,573,o),
(324,573,o),
(317,569,c),
(308,569,o),
(305,569,o),
(311,566,c),
(317,563,o),
(321,563,o),
(330,569,c)
);
},
{
closed = 1;
nodes = (
(253,590,o),
(249,590,o),
(246,590,c),
(246,587,o),
(246,587,o),
(249,587,c),
(253,587,o),
(256,587,o),
(253,590,c)
);
},
{
closed = 1;
nodes = (
(172,597,o),
(185,600,o),
(201,607,c),
(214,611,o),
(224,614,o),
(217,611,c),
(211,611,o),
(198,611,o),
(185,607,c),
(156,607,o),
(143,600,o),
(156,593,c),
(166,590,o),
(168,590,o),
(172,593,c)
);
},
{
closed = 1;
nodes = (
(343,600,o),
(366,604,o),
(369,604,c),
(369,604,o),
(369,607,o),
(369,611,c),
(369,614,o),
(369,614,o),
(369,614,c),
(369,614,o),
(260,593,o),
(260,590,c),
(253,590,o),
(272,590,o),
(317,597,c)
);
},
{
closed = 1;
nodes = (
(237,614,o),
(233,614,o),
(233,614,c),
(230,614,o),
(230,614,o),
(233,614,c),
(237,614,o),
(237,614,o),
(237,614,c)
);
},
{
closed = 1;
nodes = (
(127,635,o),
(123,638,o),
(114,642,c),
(104,645,o),
(104,645,o),
(107,638,c),
(110,635,o),
(110,631,o),
(114,631,c),
(117,635,o),
(120,635,o),
(120,635,c)
);
},
{
closed = 1;
nodes = (
(437,655,o),
(437,655,o),
(420,655,c),
(411,655,o),
(411,652,o),
(411,648,c),
(418,645,o),
(415,645,o),
(427,652,c)
);
},
{
closed = 1;
nodes = (
(62,659,o),
(58,659,o),
(58,659,c),
(56,659,o),
(56,659,o),
(58,655,c),
(62,648,o),
(65,648,o),
(62,655,c)
);
},
{
closed = 1;
nodes = (
(201,655,o),
(201,655,o),
(195,655,c),
(191,655,o),
(179,655,o),
(168,655,c),
(150,655,o),
(150,655,o),
(162,652,c),
(175,648,o),
(182,648,o),
(195,652,c)
);
},
{
closed = 1;
nodes = (
(489,673,o),
(485,676,o),
(482,676,c),
(472,676,o),
(469,673,o),
(476,666,c),
(482,662,o),
(489,666,o),
(489,673,c)
);
},
{
closed = 1;
nodes = (
(75,683,o),
(69,683,o),
(56,683,c),
(46,683,o),
(40,683,o),
(40,679,c),
(42,679,o),
(49,676,o),
(58,676,c),
(69,676,o),
(75,679,o),
(75,679,c)
);
}
);
width = 560;
}
);
unicode = 89;
},
{
glyphname = Z;
lastChange = "2026-05-04 04:37:32 +0000";
layers = (
{
layerId = m01;
shapes = (
{
closed = 1;
nodes = (
(516,1,o),
(512,5,o),
(512,5,c),
(512,8,o),
(329,5,o),
(186,5,c),
(144,5,o),
(112,5,o),
(112,5,c),
(115,5,o),
(144,8,o),
(179,12,c),
(212,15,o),
(257,22,o),
(280,26,c),
(325,29,o),
(390,43,o),
(393,46,c),
(396,50,o),
(396,50,o),
(393,50,c),
(390,46,o),
(377,46,o),
(367,46,c),
(357,46,o),
(334,43,o),
(316,39,c),
(296,36,o),
(251,29,o),
(212,26,c),
(174,22,o),
(128,15,o),
(115,15,c),
(98,12,o),
(70,8,o),
(47,8,c),
(15,5,o),
(8,5,o),
(5,8,c),
(2,15,o),
(2,29,o),
(8,36,c),
(12,39,o),
(31,74,o),
(50,112,c),
(102,208,o),
(141,277,o),
(160,304,c),
(202,366,o),
(222,397,o),
(222,397,c),
(219,400,o),
(183,356,o),
(147,304,c),
(125,273,o),
(109,249,o),
(105,249,c),
(105,249,o),
(118,280,o),
(154,338,c),
(170,369,o),
(215,442,o),
(241,479,c),
(248,493,o),
(257,507,o),
(257,507,c),
(257,510,o),
(186,507,o),
(179,503,c),
(176,503,o),
(174,503,o),
(174,507,c),
(167,510,o),
(80,507,o),
(57,503,c),
(47,500,o),
(41,500,o),
(37,500,c),
(28,503,o),
(28,541,o),
(34,593,c),
(37,617,o),
(41,648,o),
(37,672,c),
(34,693,o),
(37,696,o),
(47,689,c),
(53,689,o),
(64,689,o),
(80,693,c),
(93,693,o),
(102,693,o),
(105,693,c),
(105,689,o),
(118,689,o),
(141,693,c),
(192,696,o),
(212,696,o),
(235,696,c),
(248,696,o),
(254,699,o),
(251,699,c),
(248,699,o),
(228,703,o),
(212,706,c),
(170,710,o),
(167,713,o),
(167,717,c),
(167,720,o),
(260,717,o),
(361,710,c),
(406,706,o),
(464,703,o),
(490,703,c),
(536,703,o),
(536,703,o),
(545,693,c),
(548,689,o),
(552,682,o),
(552,682,c),
(552,679,o),
(554,675,o),
(558,675,c),
(561,672,o),
(561,672,o),
(554,662,c),
(554,655,o),
(538,627,o),
(522,600,c),
(496,558,o),
(455,479,o),
(428,435,c),
(422,421,l),
(432,435,l),
(435,442,o),
(451,462,o),
(467,479,c),
(484,500,o),
(503,521,o),
(509,531,c),
(516,538,o),
(522,545,o),
(522,545,c),
(525,545,o),
(525,545,o),
(525,541,c),
(522,541,o),
(506,514,o),
(487,486,c),
(442,421,o),
(426,393,o),
(383,338,c),
(345,287,o),
(334,277,o),
(300,215,c),
(273,170,l),
(322,170,l),
(361,167,o),
(500,173,o),
(516,177,c),
(519,177,o),
(519,177,o),
(522,173,c),
(522,170,o),
(480,163,o),
(396,149,c),
(316,139,o),
(296,136,o),
(305,132,c),
(309,132,o),
(309,129,o),
(296,125,c),
(277,118,o),
(286,122,o),
(312,129,c),
(332,132,o),
(380,139,o),
(409,139,c),
(415,139,o),
(419,139,o),
(419,142,c),
(419,142,o),
(428,146,o),
(442,146,c),
(460,149,o),
(519,163,o),
(529,163,c),
(532,167,o),
(532,167,o),
(529,160,c),
(522,156,o),
(522,146,o),
(525,149,c),
(529,149,o),
(532,149,o),
(536,146,c),
(538,142,o),
(538,142,o),
(536,115,c),
(536,98,o),
(532,67,o),
(536,46,c),
(536,15,o),
(536,5,o),
(532,1,c),
(529,-2,o),
(525,-2,o),
(519,1,c)
);
},
{
closed = 1;
nodes = (
(80,63,o),
(80,63,o),
(70,63,c),
(60,63,o),
(60,63,o),
(53,53,c),
(47,43,o),
(47,43,o),
(57,43,c),
(66,39,o),
(66,39,o),
(66,50,c),
(70,57,o),
(70,60,o),
(76,60,c)
);
},
{
closed = 1;
nodes = (
(125,46,o),
(115,46,o),
(105,43,c),
(96,43,o),
(96,43,o),
(122,43,c),
(144,43,o),
(144,43,o),
(134,43,c)
);
},
{
closed = 1;
nodes = (
(509,46,o),
(509,46,o),
(509,60,c),
(509,77,o),
(509,77,o),
(506,70,c),
(503,67,o),
(493,60,o),
(487,57,c),
(474,50,o),
(474,46,o),
(477,46,c),
(480,46,o),
(487,46,o),
(490,46,c),
(490,46,o),
(496,46,o),
(500,46,c)
);
},
{
closed = 1;
nodes = (
(264,60,o),
(273,63,o),
(289,63,c),
(316,67,o),
(316,67,o),
(273,67,c),
(244,67,o),
(225,63,o),
(206,60,c),
(179,57,l),
(219,57,l),
(251,53,o),
(257,57,o),
(260,60,c)
);
},
{
closed = 1;
nodes = (
(351,70,o),
(345,70,o),
(338,70,c),
(334,70,o),
(338,67,o),
(348,67,c),
(357,67,o),
(361,70,o),
(354,70,c)
);
},
{
closed = 1;
nodes = (
(163,74,o),
(167,74,o),
(167,74,c),
(167,77,o),
(147,74,o),
(144,70,c),
(144,70,o),
(150,70,o),
(160,70,c)
);
},
{
closed = 1;
nodes = (
(464,84,o),
(464,84,o),
(458,87,c),
(455,87,o),
(448,87,o),
(444,87,c),
(442,84,o),
(442,84,o),
(444,81,c),
(451,77,o),
(451,77,o),
(458,81,c)
);
},
{
closed = 1;
nodes = (
(89,94,o),
(98,101,o),
(115,108,c),
(128,115,o),
(141,122,o),
(141,122,c),
(141,122,o),
(134,122,o),
(125,118,c),
(112,118,o),
(112,118,o),
(96,101,c),
(86,91,o),
(80,84,o),
(80,84,c),
(82,84,o),
(86,87,o),
(86,91,c)
);
},
{
closed = 1;
nodes = (
(422,94,o),
(422,94,o),
(422,94,c),
(422,98,o),
(338,87,o),
(334,84,c),
(334,84,o),
(351,84,o),
(377,84,c),
(409,87,o),
(419,87,o),
(422,91,c)
);
},
{
closed = 1;
nodes = (
(406,115,o),
(406,115,o),
(403,115,c),
(403,115,o),
(396,115,o),
(390,115,c),
(380,108,l),
(393,112,l),
(399,112,o),
(403,112,o),
(406,112,c)
);
},
{
closed = 1;
nodes = (
(506,115,o),
(506,118,o),
(506,118,c),
(506,122,o),
(503,122,o),
(496,118,c),
(487,112,o),
(487,112,o),
(496,112,c),
(500,115,o),
(506,115,o),
(506,115,c)
);
},
{
closed = 1;
nodes = (
(506,149,o),
(506,153,o),
(503,146,c),
(500,142,o),
(500,142,o),
(503,139,c),
(506,136,o),
(506,136,o),
(506,146,c)
);
},
{
closed = 1;
nodes = (
(215,167,o),
(215,167,o),
(215,170,c),
(215,177,o),
(215,177,o),
(202,170,c),
(190,163,o),
(190,163,o),
(196,163,c),
(199,167,o),
(206,167,o),
(208,167,c)
);
},
{
closed = 1;
nodes = (
(244,235,o),
(244,235,o),
(241,235,c),
(238,235,o),
(235,228,o),
(241,228,c),
(241,228,o),
(241,232,o),
(244,235,c)
);
},
{
closed = 1;
nodes = (
(190,294,o),
(183,290,o),
(174,273,c),
(167,266,o),
(167,263,o),
(174,266,c),
(176,270,o),
(179,277,o),
(183,283,c)
);
},
{
closed = 1;
nodes = (
(270,455,o),
(267,455,o),
(260,438,c),
(254,424,o),
(254,424,o),
(260,431,c),
(267,435,o),
(267,442,o),
(267,448,c)
);
},
{
closed = 1;
nodes = (
(305,479,o),
(309,486,o),
(309,490,c),
(309,490,o),
(312,493,o),
(312,497,c),
(312,500,o),
(312,500,o),
(305,500,c),
(300,500,o),
(300,503,o),
(296,507,c),
(296,510,o),
(296,510,o),
(296,510,c),
(293,510,o),
(289,497,o),
(280,483,c),
(270,459,o),
(270,455,o),
(277,462,c),
(280,466,o),
(289,472,o),
(296,476,c)
);
},
{
closed = 1;
nodes = (
(428,483,o),
(435,497,o),
(438,503,c),
(444,517,o),
(442,514,o),
(422,490,c),
(409,469,o),
(406,459,o),
(412,459,c),
(412,459,o),
(419,466,o),
(422,476,c)
);
},
{
closed = 1;
nodes = (
(76,538,o),
(76,545,o),
(76,548,c),
(80,558,o),
(80,558,o),
(66,552,c),
(53,545,o),
(53,545,o),
(57,538,c),
(57,534,o),
(60,534,o),
(66,534,c),
(70,538,o),
(73,538,o),
(73,538,c)
);
},
{
closed = 1;
nodes = (
(244,545,o),
(251,545,o),
(251,548,c),
(251,552,o),
(238,552,o),
(225,545,c),
(212,541,o),
(215,541,o),
(238,545,c)
);
},
{
closed = 1;
nodes = (
(270,593,o),
(267,593,o),
(267,593,c),
(264,593,o),
(264,593,o),
(267,593,c),
(270,589,o),
(270,593,o),
(270,593,c)
);
},
{
closed = 1;
nodes = (
(364,610,o),
(393,620,o),
(386,624,c),
(380,627,o),
(302,610,o),
(289,600,c),
(270,593,o),
(270,593,o),
(329,603,c)
);
},
{
closed = 1;
nodes = (
(455,600,o),
(455,600,o),
(451,600,c),
(448,600,o),
(444,596,o),
(444,596,c),
(444,593,o),
(451,593,o),
(455,596,c)
);
},
{
closed = 1;
nodes = (
(147,613,o),
(147,617,o),
(144,617,c),
(141,617,o),
(138,620,o),
(138,620,c),
(138,624,o),
(134,624,o),
(131,624,c),
(128,624,o),
(125,627,o),
(122,631,c),
(118,638,o),
(115,641,o),
(112,641,c),
(105,641,o),
(105,641,o),
(105,634,c),
(105,631,o),
(105,620,o),
(105,613,c),
(102,600,o),
(102,600,o),
(112,600,c),
(115,600,o),
(125,603,o),
(134,610,c)
);
},
{
closed = 1;
nodes = (
(122,648,o),
(118,651,o),
(112,651,c),
(105,651,o),
(102,648,o),
(102,648,c),
(105,648,o),
(115,641,o),
(122,641,c),
(122,641,o),
(122,641,o),
(122,644,c)
);
},
{
closed = 1;
nodes = (
(522,668,o),
(519,672,o),
(516,672,c),
(509,672,o),
(509,668,o),
(509,665,c),
(512,662,o),
(509,662,o),
(509,658,c),
(506,658,o),
(506,655,o),
(506,655,c),
(506,651,o),
(509,651,o),
(516,658,c),
(519,662,o),
(522,668,o),
(522,668,c)
);
}
);
width = 562;
}
);
unicode = 90;
},
{
glyphname = a;
lastChange = "2026-05-04 04:04:04 +0000";
layers = (
{
layerId = m01;
shapes = (
{
closed = 1;
nodes = (
);
},
{
closed = 1;
nodes = (
(216,-30,o),
(217,-20,o),
(217,-14,c),
(219,-2,o),
(219,-1,o),
(215,3,c),
(207,9,o),
(207,14,o),
(215,19,c),
(218,22,o),
(222,23,o),
(222,24,c),
(222,24,o),
(227,45,o),
(231,71,c),
(239,111,o),
(241,120,o),
(238,117,c),
(238,117,o),
(221,98,o),
(201,77,c),
(162,35,o),
(147,22,o),
(138,19,c),
(135,18,o),
(126,14,o),
(118,10,c),
(101,-2,o),
(85,-10,o),
(72,-14,c),
(63,-15,o),
(58,-15,o),
(52,-12,c),
(43,-9,o),
(34,2,o),
(34,10,c),
(34,12,o),
(32,13,o),
(30,13,c),
(28,13,o),
(23,16,o),
(21,19,c),
(18,23,o),
(17,30,o),
(18,63,c),
(20,85,o),
(21,107,o),
(21,111,c),
(22,118,l),
(17,108,l),
(9,94,o),
(9,102,o),
(16,127,c),
(20,139,o),
(23,153,o),
(23,161,c),
(24,175,o),
(24,176,o),
(21,175,c),
(17,174,o),
(17,176,o),
(21,184,c),
(23,187,o),
(24,197,o),
(24,215,c),
(24,241,o),
(24,243,o),
(30,247,c),
(38,252,o),
(44,263,o),
(42,263,c),
(41,263,o),
(39,264,o),
(39,266,c),
(39,267,o),
(41,268,o),
(42,268,c),
(43,268,o),
(46,269,o),
(51,270,c),
(56,273,o),
(64,275,o),
(71,276,c),
(77,277,o),
(99,281,o),
(117,286,c),
(137,290,o),
(165,296,o),
(180,298,c),
(196,301,o),
(210,304,o),
(210,304,c),
(211,306,o),
(221,308,o),
(232,309,c),
(244,310,o),
(254,313,o),
(255,314,c),
(260,316,o),
(259,336,o),
(254,352,c),
(252,361,o),
(248,374,o),
(246,381,c),
(243,398,o),
(235,412,o),
(229,417,c),
(223,420,o),
(216,420,o),
(193,420,c),
(160,420,o),
(140,417,o),
(85,403,c),
(65,397,o),
(49,393,o),
(49,393,c),
(43,393,o),
(45,398,o),
(52,401,c),
(58,404,l),
(49,404,l),
(39,404,o),
(38,405,o),
(43,406,c),
(50,410,o),
(49,415,o),
(41,415,c),
(29,416,o),
(27,419,o),
(28,438,c),
(28,449,o),
(27,459,o),
(27,464,c),
(24,469,o),
(24,472,o),
(28,475,c),
(29,476,o),
(32,483,o),
(34,489,c),
(38,498,l),
(51,498,l),
(68,497,o),
(74,498,o),
(74,505,c),
(75,517,o),
(83,518,o),
(137,519,c),
(162,519,o),
(187,521,o),
(193,523,c),
(197,524,o),
(204,524,o),
(209,523,c),
(222,520,o),
(245,518,o),
(268,515,c),
(282,514,o),
(291,512,o),
(296,510,c),
(306,504,o),
(323,484,o),
(327,472,c),
(330,467,o),
(333,460,o),
(337,456,c),
(344,446,o),
(345,425,o),
(342,381,c),
(341,362,o),
(340,330,o),
(340,311,c),
(340,279,o),
(340,276,o),
(344,271,c),
(351,267,o),
(351,254,o),
(346,228,c),
(341,188,o),
(338,126,o),
(337,67,c),
(333,12,o),
(333,4,o),
(330,1,c),
(326,-3,o),
(326,-3,o),
(326,4,c),
(326,12,o),
(323,13,o),
(312,10,c),
(309,7,o),
(308,4,o),
(305,-10,c),
(302,-18,o),
(301,-25,o),
(300,-25,c),
(298,-25,o),
(297,-20,o),
(297,-10,c),
(296,5,l),
(286,4,l),
(280,4,o),
(272,3,o),
(266,2,c),
(261,1,o),
(255,1,o),
(255,2,c),
(255,2,o),
(250,3,o),
(244,2,c),
(232,2,o),
(231,2,o),
(229,-8,c),
(222,-35,o),
(219,-42,o),
(217,-42,c),
(216,-42,o),
(216,-38,o),
(216,-34,c)
);
},
{
closed = 1;
nodes = (
(319,43,o),
(318,47,o),
(318,51,c),
(318,57,l),
(317,51,l),
(312,41,o),
(315,31,o),
(318,31,c),
(320,31,o),
(322,32,o),
(320,38,c)
);
},
{
closed = 1;
nodes = (
(250,59,o),
(250,62,o),
(248,59,c),
(245,54,o),
(243,38,o),
(245,43,c),
(246,44,o),
(248,50,o),
(250,54,c)
);
},
{
closed = 1;
nodes = (
(46,90,o),
(45,88,o),
(44,75,c),
(43,63,l),
(49,74,l),
(51,80,o),
(51,86,o),
(51,87,c)
);
},
{
closed = 1;
nodes = (
(79,203,o),
(80,206,o),
(80,206,c),
(79,206,o),
(74,199,o),
(67,189,c),
(60,179,o),
(55,171,o),
(55,167,c),
(55,161,o),
(57,162,o),
(66,176,c),
(72,186,o),
(78,196,o),
(79,200,c)
);
},
{
closed = 1;
nodes = (
(55,236,o),
(55,236,o),
(53,235,c),
(52,235,o),
(51,234,o),
(51,233,c),
(51,232,o),
(52,230,o),
(53,232,c),
(55,232,o),
(55,234,o),
(55,235,c)
);
},
{
closed = 1;
nodes = (
(66,250,o),
(66,253,o),
(65,255,c),
(64,260,o),
(64,260,o),
(61,255,c),
(56,248,o),
(57,246,o),
(64,249,c)
);
},
{
closed = 1;
nodes = (
(87,269,o),
(83,269,o),
(78,268,c),
(72,268,o),
(68,267,o),
(68,262,c),
(68,254,o),
(72,254,o),
(80,262,c),
(85,266,o),
(88,269,o),
(87,269,c)
);
},
{
closed = 1;
nodes = (
(151,447,l),
(132,446,l),
(115,444,o),
(75,441,o),
(71,438,c),
(67,438,o),
(67,437,o),
(67,436,c),
(71,431,o),
(96,433,o),
(123,439,c)
);
},
{
closed = 1;
nodes = (
(151,481,l),
(135,481,l),
(123,483,o),
(116,481,o),
(88,472,c),
(71,466,o),
(55,460,o),
(53,459,c),
(50,458,o),
(51,458,o),
(55,458,c),
(57,459,o),
(60,459,o),
(63,458,c),
(66,454,o),
(63,454,o),
(109,467,c)
);
}
);
width = 365;
}
);
unicode = 97;
},
{
glyphname = b;
lastChange = "2026-05-04 04:03:52 +0000";
layers = (
{
layerId = m01;
shapes = (
{
closed = 1;
nodes = (
(71,-17,o),
(84,-17,o),
(92,-17,c),
(107,-17,l),
(110,3,l),
(114,21,o),
(115,28,o),
(116,36,c),
(116,39,o),
(117,39,o),
(118,38,c),
(120,36,o),
(121,39,o),
(120,43,c),
(118,49,o),
(118,51,o),
(120,48,c),
(121,46,o),
(122,36,o),
(122,27,c),
(122,19,o),
(123,6,o),
(124,1,c),
(126,-7,o),
(126,-8,o),
(127,-4,c),
(129,7,o),
(133,28,o),
(134,43,c),
(135,53,o),
(136,61,o),
(137,62,c),
(139,65,o),
(140,71,o),
(140,78,c),
(141,84,o),
(141,89,o),
(142,89,c),
(142,91,o),
(150,80,o),
(160,67,c),
(187,28,o),
(206,14,o),
(244,6,c),
(253,3,o),
(267,-1,o),
(274,-6,c),
(304,-19,o),
(326,-16,o),
(346,6,c),
(364,26,o),
(372,51,o),
(372,82,c),
(372,93,o),
(376,112,o),
(386,152,c),
(399,202,o),
(416,270,o),
(416,272,c),
(416,276,o),
(410,267,o),
(403,248,c),
(397,236,o),
(393,226,o),
(393,226,c),
(392,225,o),
(392,238,o),
(392,252,c),
(392,283,o),
(391,294,o),
(379,333,c),
(375,347,o),
(370,368,o),
(369,380,c),
(364,409,o),
(362,419,o),
(347,434,c),
(336,447,l),
(305,447,l),
(261,447,o),
(261,446,o),
(216,401,c),
(198,382,o),
(183,368,o),
(186,372,c),
(188,375,o),
(202,400,o),
(219,425,c),
(234,451,o),
(248,474,o),
(249,477,c),
(252,480,o),
(252,482,o),
(252,482,c),
(248,482,o),
(203,415,o),
(173,366,c),
(147,322,o),
(146,321,o),
(147,331,c),
(149,356,o),
(153,397,o),
(155,466,c),
(157,506,o),
(159,543,o),
(160,547,c),
(161,558,o),
(157,570,o),
(151,570,c),
(149,570,o),
(147,569,o),
(147,567,c),
(144,563,o),
(141,565,o),
(141,571,c),
(141,573,o),
(141,574,o),
(137,573,c),
(135,573,o),
(133,574,o),
(131,577,c),
(128,582,o),
(116,587,o),
(108,587,c),
(104,587,o),
(98,590,o),
(95,592,c),
(82,603,o),
(72,605,o),
(55,598,c),
(43,595,o),
(37,589,o),
(37,580,c),
(37,577,o),
(36,572,o),
(35,571,c),
(33,569,o),
(30,526,o),
(28,477,c),
(23,372,o),
(22,283,o),
(25,282,c),
(26,282,o),
(29,295,o),
(31,321,c),
(42,438,o),
(56,540,o),
(63,547,c),
(64,549,o),
(64,549,o),
(64,545,c),
(63,543,o),
(62,534,o),
(61,526,c),
(61,518,o),
(57,492,o),
(54,467,c),
(50,444,o),
(44,395,o),
(41,360,c),
(37,326,o),
(32,284,o),
(30,268,c),
(25,232,o),
(18,115,o),
(21,93,c),
(21,84,o),
(22,69,o),
(23,62,c),
(25,16,o),
(26,12,o),
(32,-1,c),
(36,-8,o),
(41,-14,o),
(42,-17,c),
(45,-18,o),
(52,-18,o),
(62,-18,c)
);
},
{
closed = 1;
nodes = (
(49,-5,o),
(46,-3,o),
(42,5,c),
(33,20,o),
(36,20,o),
(48,6,c),
(55,-3,o),
(56,-3,o),
(51,-4,c)
);
},
{
closed = 1;
nodes = (
(59,9,o),
(59,9,o),
(63,9,c),
(64,9,o),
(68,8,o),
(69,6,c),
(72,2,o),
(69,2,o),
(63,6,c)
);
},
{
closed = 1;
nodes = (
(46,25,o),
(45,27,o),
(44,29,c),
(43,33,o),
(43,36,o),
(44,36,c),
(44,38,o),
(45,35,o),
(46,32,c),
(48,29,o),
(48,26,o),
(46,26,c)
);
},
{
closed = 1;
nodes = (
(37,67,o),
(37,67,o),
(36,72,c),
(36,77,o),
(36,78,o),
(37,77,c),
(38,75,o),
(38,72,o),
(38,71,c)
);
},
{
closed = 1;
nodes = (
(82,38,o),
(82,39,o),
(82,41,c),
(82,45,o),
(82,46,o),
(83,45,c),
(83,42,o),
(83,40,o),
(83,39,c)
);
},
{
closed = 1;
nodes = (
(48,91,o),
(48,92,o),
(48,95,c),
(48,98,o),
(48,99,o),
(49,98,c),
(49,97,o),
(49,94,o),
(49,92,c)
);
},
{
closed = 1;
nodes = (
(80,46,o),
(72,107,o),
(74,119,c),
(74,131,o),
(74,128,o),
(78,86,c),
(81,67,o),
(82,52,o),
(81,49,c)
);
},
{
closed = 1;
nodes = (
(163,165,o),
(164,169,o),
(168,172,c),
(172,174,o),
(172,174,o),
(170,169,c),
(169,167,o),
(168,165,o),
(167,165,c)
);
},
{
closed = 1;
nodes = (
(300,8,o),
(303,10,o),
(307,12,c),
(317,16,o),
(329,27,o),
(339,40,c),
(347,51,l),
(347,43,l),
(347,34,o),
(338,21,o),
(326,13,c),
(318,7,o),
(300,3,o),
(300,7,c)
);
},
{
closed = 1;
nodes = (
(33,376,o),
(32,379,o),
(32,383,c),
(32,388,o),
(33,389,o),
(33,387,c),
(35,383,o),
(35,380,o),
(33,377,c)
);
},
{
closed = 1;
nodes = (
(163,279,o),
(166,283,o),
(170,288,c),
(174,291,o),
(177,294,o),
(177,292,c),
(177,291,o),
(174,288,o),
(170,283,c),
(166,279,o),
(163,277,o),
(163,278,c)
);
},
{
closed = 1;
nodes = (
(143,287,o),
(143,291,o),
(143,295,c),
(143,298,o),
(149,307,o),
(164,323,c),
(175,337,o),
(185,348,o),
(186,348,c),
(186,348,o),
(181,341,o),
(175,333,c),
(169,324,o),
(159,309,o),
(153,297,c),
(146,287,o),
(142,281,o),
(142,283,c)
);
},
{
closed = 1;
nodes = (
(82,433,o),
(82,434,o),
(82,438,c),
(82,440,o),
(82,441,o),
(83,440,c),
(83,439,o),
(83,436,o),
(83,435,c)
);
},
{
closed = 1;
nodes = (
(207,336,o),
(240,376,o),
(240,373,c),
(240,372,o),
(234,364,o),
(227,356,c),
(220,348,o),
(212,337,o),
(208,331,c),
(201,322,o),
(198,318,o),
(201,326,c)
);
},
{
closed = 1;
nodes = (
(329,95,o),
(331,105,o),
(334,117,c),
(341,144,o),
(352,195,o),
(356,220,c),
(359,246,o),
(359,298,o),
(356,315,c),
(354,321,o),
(351,333,o),
(347,338,c),
(341,353,o),
(346,353,o),
(352,338,c),
(360,323,o),
(363,304,o),
(363,268,c),
(363,216,o),
(356,174,o),
(340,124,c),
(336,107,o),
(331,95,o),
(330,95,c)
);
},
{
closed = 1;
nodes = (
(114,461,o),
(114,462,o),
(114,465,c),
(114,467,o),
(115,467,o),
(115,466,c),
(116,464,o),
(116,462,o),
(115,461,c)
);
},
{
closed = 1;
nodes = (
(116,472,o),
(116,473,o),
(116,475,c),
(116,478,o),
(116,478,o),
(117,477,c),
(117,474,o),
(117,473,o),
(117,472,c)
);
},
{
closed = 1;
nodes = (
(118,480,o),
(118,481,o),
(118,484,c),
(118,486,o),
(118,486,o),
(120,485,c),
(120,484,o),
(120,481,o),
(120,481,c)
);
},
{
closed = 1;
nodes = (
(121,488,o),
(121,490,o),
(120,491,c),
(120,497,o),
(134,543,o),
(135,539,c),
(135,536,o),
(133,525,o),
(129,513,c),
(124,501,o),
(122,491,o),
(121,490,c)
);
},
{
closed = 1;
nodes = (
(376,263,o),
(376,264,o),
(376,269,c),
(376,272,o),
(376,274,o),
(376,272,c),
(377,270,o),
(377,267,o),
(376,264,c)
);
},
{
closed = 1;
nodes = (
(97,553,o),
(96,554,o),
(96,556,c),
(96,558,o),
(95,559,o),
(94,560,c),
(92,560,o),
(94,562,o),
(96,562,c),
(98,562,o),
(101,560,o),
(101,558,c),
(101,557,o),
(100,554,o),
(98,554,c)
);
},
{
closed = 1;
nodes = (
(68,589,o),
(68,589,o),
(74,589,c),
(77,590,o),
(80,589,o),
(80,587,c),
(80,585,o),
(77,585,o),
(71,587,c)
);
},
{
closed = 1;
nodes = (
(120,537,o),
(116,538,o),
(116,551,c),
(116,562,o),
(116,563,o),
(123,560,c),
(126,559,o),
(126,558,o),
(123,550,c)
);
},
{
closed = 1;
nodes = (
(266,401,o),
(269,403,o),
(272,405,c),
(278,408,l),
(272,402,l),
(266,396,o),
(265,395,o),
(266,399,c)
);
}
);
width = 418;
}
);
unicode = 98;
},
{
glyphname = c;
lastChange = "2026-05-04 04:04:22 +0000";
layers = (
{
layerId = m01;
shapes = (
{
closed = 1;
nodes = (
(136,5,o),
(100,25,o),
(75,47,c),
(62,60,l),
(66,52,l),
(67,47,o),
(73,35,o),
(78,27,c),
(82,18,o),
(85,10,o),
(85,10,c),
(82,10,o),
(58,46,o),
(52,58,c),
(12,137,o),
(2,213,o),
(26,285,c),
(40,326,o),
(58,354,o),
(89,385,c),
(117,410,o),
(141,426,o),
(176,436,c),
(199,445,o),
(243,447,o),
(268,441,c),
(287,438,o),
(317,423,o),
(323,415,c),
(327,413,o),
(329,410,o),
(331,410,c),
(333,410,o),
(334,408,o),
(334,405,c),
(334,401,o),
(335,399,o),
(338,397,c),
(347,395,o),
(342,387,o),
(321,361,c),
(295,330,o),
(276,303,o),
(250,258,c),
(239,239,o),
(230,224,o),
(230,224,c),
(229,226,o),
(242,268,o),
(246,275,c),
(249,278,o),
(250,282,o),
(250,282,c),
(249,282,o),
(196,224,o),
(196,222,c),
(195,220,o),
(207,206,o),
(223,190,c),
(252,158,o),
(270,144,o),
(323,108,c),
(361,84,o),
(359,85,o),
(357,84,c),
(357,84,o),
(347,88,o),
(334,93,c),
(311,104,l),
(333,84,l),
(353,65,o),
(368,47,o),
(366,46,c),
(362,42,o),
(333,27,o),
(325,23,c),
(320,21,o),
(315,19,o),
(314,18,c),
(313,15,o),
(310,14,o),
(309,14,c),
(307,14,o),
(300,13,o),
(292,10,c),
(258,-1,o),
(190,-8,o),
(163,-1,c)
);
},
{
closed = 1;
nodes = (
(220,15,o),
(204,16,o),
(204,14,c),
(204,13,o),
(207,12,o),
(213,12,c),
(219,12,o),
(223,13,o),
(223,13,c)
);
},
{
closed = 1;
nodes = (
(259,26,o),
(258,27,o),
(257,27,c),
(256,27,o),
(255,26,o),
(254,25,c),
(254,23,o),
(254,22,o),
(256,22,c),
(257,22,o),
(259,23,o),
(259,25,c)
);
},
{
closed = 1;
nodes = (
(223,33,o),
(220,33,o),
(218,33,c),
(216,33,o),
(216,33,o),
(218,32,c),
(220,30,o),
(223,29,o),
(225,29,c),
(228,29,o),
(228,29,o),
(225,32,c)
);
},
{
closed = 1;
nodes = (
(354,53,o),
(351,54,o),
(346,53,c),
(344,53,o),
(342,52,o),
(340,52,c),
(337,52,o),
(335,51,o),
(334,51,c),
(333,51,o),
(340,46,o),
(342,46,c),
(343,47,o),
(346,48,o),
(349,49,c)
);
},
{
closed = 1;
nodes = (
(64,91,o),
(62,91,o),
(62,88,c),
(62,86,o),
(62,85,o),
(64,86,c),
(65,86,o),
(65,88,o),
(64,89,c)
);
},
{
closed = 1;
nodes = (
(43,131,o),
(41,127,o),
(42,121,c),
(43,118,o),
(45,118,o),
(46,119,c),
(48,121,o),
(48,123,o),
(47,126,c)
);
},
{
closed = 1;
nodes = (
(64,148,o),
(61,145,o),
(64,143,c),
(65,140,o),
(65,140,o),
(66,143,c),
(67,144,o),
(66,146,o),
(66,146,c)
);
},
{
closed = 1;
nodes = (
(244,150,o),
(242,152,o),
(239,154,c),
(235,159,l),
(238,154,l),
(243,150,o),
(244,148,o),
(244,150,c)
);
},
{
closed = 1;
nodes = (
(29,197,o),
(28,196,o),
(28,185,c),
(28,179,o),
(28,177,o),
(29,178,c),
(30,180,o),
(30,184,o),
(30,187,c)
);
},
{
closed = 1;
nodes = (
(27,204,o),
(26,203,o),
(26,200,c),
(26,197,o),
(27,196,o),
(27,198,c),
(28,199,o),
(28,202,o),
(27,203,c)
);
},
{
closed = 1;
nodes = (
(47,239,o),
(46,238,o),
(42,231,c),
(38,224,o),
(36,220,o),
(38,216,c),
(39,210,o),
(39,210,o),
(42,219,c),
(43,224,o),
(45,231,o),
(46,233,c)
);
},
{
closed = 1;
nodes = (
(200,252,o),
(200,252,o),
(197,250,c),
(195,249,o),
(192,246,o),
(192,246,c),
(192,244,o),
(195,245,o),
(197,249,c)
);
},
{
closed = 1;
nodes = (
(43,257,o),
(42,258,o),
(41,258,c),
(40,258,o),
(39,256,o),
(39,254,c),
(39,250,o),
(39,249,o),
(41,251,c),
(42,254,o),
(42,256,o),
(42,257,c)
);
},
{
closed = 1;
nodes = (
(258,313,o),
(257,313,o),
(255,310,c),
(252,308,o),
(250,307,o),
(250,307,c),
(250,304,o),
(252,305,o),
(255,309,c)
);
},
{
closed = 1;
nodes = (
(288,344,o),
(288,344,o),
(284,342,c),
(282,341,o),
(281,338,o),
(281,338,c),
(281,336,o),
(282,337,o),
(285,341,c)
);
},
{
closed = 1;
nodes = (
(113,383,o),
(114,386,o),
(110,381,c),
(102,375,o),
(93,363,o),
(94,363,c),
(95,363,o),
(100,368,o),
(106,375,c)
);
},
{
closed = 1;
nodes = (
(184,413,o),
(186,416,o),
(185,416,c),
(183,416,o),
(167,400,o),
(170,400,c),
(170,400,o),
(174,403,o),
(179,408,c)
);
},
{
closed = 1;
nodes = (
(266,423,o),
(270,427,o),
(268,427,c),
(266,427,o),
(265,426,o),
(264,423,c),
(263,422,o),
(262,421,o),
(261,421,c),
(258,422,o),
(254,418,o),
(249,413,c),
(242,403,o),
(242,403,o),
(248,407,c),
(251,410,o),
(257,415,o),
(262,420,c)
);
},
{
closed = 1;
nodes = (
(318,409,o),
(317,410,o),
(316,410,c),
(314,410,o),
(313,409,o),
(311,408,c),
(311,407,o),
(313,406,o),
(315,406,c),
(317,406,o),
(318,407,o),
(318,408,c)
);
},
{
closed = 1;
nodes = (
(282,423,o),
(283,425,o),
(282,425,c),
(281,425,o),
(277,423,o),
(275,422,c),
(272,420,o),
(272,419,o),
(274,419,c),
(275,419,o),
(277,420,o),
(279,422,c)
);
},
{
closed = 1;
nodes = (
(238,432,o),
(235,429,o),
(231,427,c),
(228,425,o),
(225,422,o),
(225,421,c),
(225,421,o),
(228,422,o),
(231,425,c),
(235,428,o),
(238,431,o),
(238,431,c)
);
},
{
closed = 1;
nodes = (
(220,428,o),
(219,429,o),
(218,429,c),
(216,429,o),
(213,428,o),
(213,427,c),
(212,426,o),
(213,425,o),
(215,425,c),
(217,425,o),
(219,426,o),
(219,427,c)
);
}
);
width = 380;
}
);
unicode = 99;
},
{
glyphname = d;
lastChange = "2026-05-04 04:04:35 +0000";
layers = (
{
layerId = m01;
shapes = (
{
closed = 1;
nodes = (
(293,-5,o),
(293,-4,o),
(287,-4,c),
(280,-4,o),
(273,3,o),
(270,12,c),
(269,16,o),
(270,19,o),
(274,22,c),
(280,27,o),
(280,27,o),
(277,41,c),
(274,60,o),
(271,61,o),
(271,45,c),
(271,35,o),
(271,32,o),
(269,34,c),
(268,36,o),
(267,42,o),
(268,47,c),
(268,53,o),
(267,61,o),
(265,66,c),
(264,72,o),
(263,87,o),
(262,101,c),
(261,127,l),
(256,119,l),
(252,114,o),
(249,105,o),
(248,99,c),
(244,78,o),
(239,64,o),
(237,66,c),
(236,66,o),
(235,72,o),
(236,79,c),
(237,91,l),
(229,77,l),
(224,68,o),
(216,53,o),
(210,42,c),
(198,19,o),
(195,13,o),
(179,-1,c),
(165,-16,o),
(156,-20,o),
(150,-17,c),
(147,-16,o),
(145,-14,o),
(145,-13,c),
(145,-12,o),
(143,-12,o),
(139,-13,c),
(126,-18,o),
(106,-12,o),
(86,3,c),
(75,10,o),
(72,12,o),
(49,15,c),
(44,16,o),
(38,18,o),
(35,18,c),
(31,20,o),
(27,29,o),
(27,39,c),
(27,45,o),
(26,49,o),
(24,53,c),
(19,59,o),
(19,60,o),
(21,140,c),
(22,185,o),
(24,222,o),
(22,222,c),
(22,223,o),
(20,213,o),
(18,203,c),
(15,183,l),
(15,211,l),
(18,246,o),
(20,277,o),
(26,305,c),
(27,317,o),
(29,334,o),
(31,342,c),
(31,357,o),
(31,359,o),
(28,353,c),
(27,349,o),
(26,344,o),
(26,343,c),
(26,342,o),
(25,341,o),
(22,341,c),
(20,341,o),
(21,355,o),
(29,386,c),
(33,399,o),
(37,416,o),
(37,423,c),
(38,434,o),
(40,439,o),
(44,442,c),
(46,445,o),
(49,451,o),
(52,455,c),
(54,460,o),
(57,465,o),
(59,467,c),
(64,473,o),
(93,486,o),
(100,486,c),
(107,486,o),
(117,480,o),
(146,455,c),
(202,408,o),
(208,405,o),
(208,410,c),
(208,413,o),
(160,459,o),
(138,478,c),
(123,492,o),
(118,498,o),
(127,493,c),
(133,490,o),
(143,481,o),
(188,442,c),
(251,386,o),
(256,381,o),
(256,387,c),
(256,388,o),
(244,402,o),
(228,419,c),
(212,434,o),
(201,447,o),
(201,447,c),
(204,447,o),
(231,425,o),
(244,410,c),
(261,393,l),
(260,401,l),
(258,406,o),
(257,456,o),
(257,513,c),
(258,610,o),
(258,617,o),
(262,621,c),
(264,623,o),
(269,625,o),
(273,626,c),
(277,628,o),
(281,630,o),
(282,633,c),
(286,639,l),
(286,633,l),
(287,629,o),
(288,628,o),
(293,629,c),
(296,630,o),
(302,632,o),
(306,636,c),
(313,643,l),
(316,638,l),
(320,632,o),
(332,631,o),
(332,637,c),
(332,639,o),
(333,639,o),
(336,638,c),
(340,637,o),
(342,637,o),
(345,642,c),
(350,649,o),
(362,648,o),
(370,642,c),
(378,636,o),
(378,635,o),
(378,621,c),
(378,551,o),
(378,549,o),
(383,546,c),
(392,541,o),
(394,532,o),
(394,507,c),
(394,487,o),
(394,486,o),
(396,494,c),
(401,511,o),
(402,506,o),
(401,479,c),
(399,427,o),
(387,341,o),
(381,333,c),
(378,327,o),
(369,245,o),
(369,218,c),
(369,207,o),
(370,170,o),
(370,136,c),
(373,88,o),
(372,73,o),
(370,73,c),
(369,73,o),
(368,77,o),
(368,80,c),
(368,84,o),
(367,88,o),
(366,91,c),
(365,94,o),
(363,94,o),
(362,88,c),
(362,84,o),
(361,66,o),
(361,49,c),
(360,19,o),
(360,18,o),
(363,15,c),
(367,13,o),
(368,10,o),
(367,6,c),
(367,-3,o),
(360,-6,o),
(343,-6,c),
(337,-6,o),
(332,-7,o),
(330,-8,c),
(329,-11,o),
(328,-11,o),
(327,-8,c),
(327,-7,o),
(321,-6,o),
(314,-5,c),
(301,-4,l),
(301,-14,l),
(301,-30,o),
(296,-30,o),
(294,-14,c)
);
},
{
closed = 1;
nodes = (
(61,229,o),
(54,225,o),
(54,220,c),
(54,219,o),
(55,211,o),
(55,203,c),
(55,187,l),
(61,205,l),
(65,218,o),
(65,224,o),
(64,225,c)
);
},
{
closed = 1;
nodes = (
(68,435,o),
(67,436,o),
(66,436,c),
(65,436,o),
(64,435,o),
(64,433,c),
(64,431,o),
(62,428,o),
(61,427,c),
(60,426,o),
(60,423,o),
(60,420,c),
(60,414,l),
(62,421,l),
(64,425,o),
(66,429,o),
(67,432,c)
);
},
{
closed = 1;
nodes = (
(324,532,o),
(324,539,o),
(323,539,c),
(321,539,o),
(320,508,o),
(322,506,c),
(324,504,o),
(324,505,o),
(324,523,c)
);
},
{
closed = 1;
nodes = (
(297,602,o),
(298,604,o),
(300,604,c),
(306,606,o),
(300,608,o),
(293,606,c),
(287,605,o),
(287,604,o),
(289,603,c),
(293,602,o),
(293,600,o),
(291,593,c),
(290,586,o),
(291,586,o),
(294,590,c),
(296,592,o),
(297,596,o),
(297,598,c)
);
},
{
closed = 1;
nodes = (
(302,599,o),
(302,599,o),
(302,596,c),
(302,595,o),
(302,592,o),
(303,593,c),
(303,595,o),
(303,596,o),
(303,598,c)
);
},
{
closed = 1;
nodes = (
(278,605,o),
(278,605,o),
(278,603,c),
(278,600,o),
(278,599,o),
(280,600,c),
(280,600,o),
(280,603,o),
(280,604,c)
);
}
);
width = 416;
}
);
unicode = 100;
},
{
glyphname = e;
lastChange = "2026-05-04 04:05:05 +0000";
layers = (
{
layerId = m01;
shapes = (
{
closed = 1;
nodes = (
(196,34,o),
(187,35,o),
(171,36,c),
(130,40,o),
(107,47,o),
(83,64,c),
(69,74,o),
(68,77,o),
(61,96,c),
(58,107,o),
(53,119,o),
(53,120,c),
(53,123,o),
(53,125,o),
(52,129,c),
(50,132,o),
(43,172,o),
(41,193,c),
(37,233,o),
(31,243,o),
(31,211,c),
(31,186,o),
(37,141,o),
(44,120,c),
(47,103,o),
(47,101,o),
(44,107,c),
(28,130,o),
(15,210,o),
(22,260,c),
(24,282,o),
(35,312,o),
(44,331,c),
(46,339,o),
(50,347,o),
(47,351,c),
(46,356,o),
(56,372,o),
(68,385,c),
(74,390,o),
(84,403,o),
(96,418,c),
(114,442,o),
(174,509,o),
(177,509,c),
(182,509,o),
(179,503,o),
(151,471,c),
(136,452,o),
(122,437,o),
(122,435,c),
(122,432,o),
(136,439,o),
(141,443,c),
(144,450,o),
(167,458,o),
(187,459,c),
(197,461,o),
(213,464,o),
(224,465,c),
(249,471,o),
(288,470,o),
(309,463,c),
(336,450,o),
(358,425,o),
(366,396,c),
(369,386,o),
(370,369,o),
(370,329,c),
(371,276,o),
(369,259,o),
(362,256,c),
(361,256,o),
(359,253,o),
(359,250,c),
(359,233,o),
(332,219,o),
(293,211,c),
(283,210,o),
(265,208,o),
(253,204,c),
(241,202,o),
(226,199,o),
(220,199,c),
(213,199,o),
(202,197,o),
(195,196,c),
(179,191,o),
(174,191,o),
(175,194,c),
(177,197,o),
(156,197,o),
(145,194,c),
(139,193,o),
(139,188,o),
(147,165,c),
(156,141,o),
(150,143,o),
(212,148,c),
(242,149,o),
(271,153,o),
(275,154,c),
(281,157,o),
(333,165,o),
(343,165,c),
(363,168,o),
(368,165,o),
(370,157,c),
(371,153,o),
(376,149,o),
(379,148,c),
(385,148,l),
(378,146,l),
(373,143,o),
(373,141,o),
(371,120,c),
(371,108,o),
(371,90,o),
(373,80,c),
(376,57,o),
(373,53,o),
(354,51,c),
(347,50,o),
(336,47,o),
(331,45,c),
(325,44,o),
(316,43,o),
(309,41,c),
(302,41,o),
(298,40,o),
(301,38,c),
(304,35,o),
(290,33,o),
(249,29,c),
(227,28,o),
(209,28,o),
(207,28,c),
(204,28,o),
(200,29,o),
(198,32,c)
);
},
{
closed = 1;
nodes = (
(217,49,o),
(197,49,o),
(197,45,c),
(197,44,o),
(203,43,o),
(212,44,c),
(224,44,o),
(226,44,o),
(224,45,c)
);
},
{
closed = 1;
nodes = (
(189,81,o),
(189,83,o),
(188,83,c),
(188,83,o),
(187,81,o),
(186,80,c),
(186,78,o),
(186,77,o),
(187,77,c),
(188,77,o),
(189,78,o),
(189,80,c)
);
},
{
closed = 1;
nodes = (
(275,98,o),
(264,96,o),
(255,92,c),
(251,91,o),
(253,91,o),
(260,91,c),
(265,92,o),
(271,94,o),
(272,96,c)
);
},
{
closed = 1;
nodes = (
(234,131,o),
(227,131,o),
(213,130,c),
(203,129,o),
(194,128,o),
(192,128,c),
(192,128,o),
(200,125,o),
(211,125,c),
(222,125,o),
(232,128,o),
(233,129,c)
);
},
{
closed = 1;
nodes = (
(77,356,o),
(80,361,o),
(69,352,c),
(61,344,o),
(46,308,o),
(52,312,c),
(53,312,o),
(59,322,o),
(66,334,c)
);
},
{
closed = 1;
nodes = (
(355,363,o),
(354,369,o),
(354,372,c),
(351,385,o),
(344,378,o),
(346,363,c),
(347,355,o),
(348,352,o),
(353,352,c),
(356,352,o),
(358,353,o),
(356,359,c)
);
}
);
width = 406;
}
);
unicode = 101;
},
{
glyphname = f;
lastChange = "2026-05-04 04:05:21 +0000";
layers = (
{
layerId = m01;
shapes = (
{
closed = 1;
nodes = (
(156,-51,o),
(117,-43,o),
(107,-43,c),
(103,-43,o),
(98,-44,o),
(98,-46,c),
(96,-49,o),
(95,-47,o),
(89,-45,c),
(81,-40,o),
(81,-39,o),
(81,-31,c),
(81,-29,o),
(81,-26,o),
(79,-26,c),
(74,-26,o),
(72,-13,o),
(74,41,c),
(75,72,o),
(76,132,o),
(76,173,c),
(77,250,l),
(70,249,l),
(66,248,o),
(56,246,o),
(48,246,c),
(33,246,o),
(31,248,o),
(27,252,c),
(25,255,o),
(24,258,o),
(24,261,c),
(26,267,o),
(23,271,o),
(19,271,c),
(17,271,o),
(15,272,o),
(13,274,c),
(11,277,o),
(11,355,o),
(12,361,c),
(15,366,o),
(20,367,o),
(26,363,c),
(29,361,o),
(33,361,o),
(52,363,c),
(75,366,l),
(76,380,l),
(76,387,o),
(75,409,o),
(72,438,c),
(69,477,o),
(64,550,o),
(64,580,c),
(64,602,o),
(68,589,o),
(72,553,c),
(75,533,o),
(77,515,o),
(78,513,c),
(79,512,o),
(81,518,o),
(81,526,c),
(84,560,o),
(104,583,o),
(148,603,c),
(207,630,o),
(262,638,o),
(310,626,c),
(334,619,o),
(353,611,o),
(363,602,c),
(366,597,o),
(370,595,o),
(371,595,c),
(377,595,o),
(378,587,o),
(380,560,c),
(381,544,o),
(384,527,o),
(384,521,c),
(385,512,o),
(385,510,o),
(378,504,c),
(374,499,o),
(369,497,o),
(366,497,c),
(364,497,o),
(358,494,o),
(352,493,c),
(341,488,o),
(281,474,o),
(265,471,c),
(253,468,o),
(248,472,o),
(259,475,c),
(271,479,o),
(263,479,o),
(251,475,c),
(241,472,o),
(236,472,o),
(235,473,c),
(234,474,o),
(229,474,o),
(220,471,c),
(207,466,l),
(207,373,l),
(266,374,l),
(298,374,o),
(328,375,o),
(333,375,c),
(340,376,o),
(344,375,o),
(347,374,c),
(351,370,o),
(351,369,o),
(348,346,c),
(347,331,o),
(346,315,o),
(347,308,c),
(348,297,o),
(348,295,o),
(345,292,c),
(341,290,o),
(340,288,o),
(341,281,c),
(343,269,o),
(339,265,o),
(324,265,c),
(315,265,o),
(311,264,o),
(310,262,c),
(307,258,o),
(300,258,o),
(260,258,c),
(215,257,l),
(215,212,l),
(215,187,o),
(216,151,o),
(219,131,c),
(222,92,o),
(232,7,o),
(234,-4,c),
(235,-8,o),
(234,-11,o),
(233,-11,c),
(233,-11,o),
(227,8,o),
(222,32,c),
(217,54,o),
(213,75,o),
(213,78,c),
(210,89,o),
(214,10,o),
(217,-13,c),
(220,-30,o),
(220,-39,o),
(219,-41,c),
(217,-43,o),
(209,-44,o),
(201,-45,c),
(177,-49,o),
(173,-50,o),
(173,-53,c),
(173,-57,o),
(167,-57,o),
(161,-53,c)
);
},
{
closed = 1;
nodes = (
(188,-4,o),
(187,0,o),
(186,0,c),
(184,0,o),
(183,-4,o),
(183,-8,c),
(183,-12,o),
(184,-16,o),
(186,-16,c),
(187,-16,o),
(188,-12,o),
(188,-8,c)
);
},
{
closed = 1;
nodes = (
(111,-4,o),
(109,-1,o),
(107,0,c),
(103,1,o),
(102,1,o),
(102,-4,c),
(102,-7,o),
(103,-8,o),
(107,-8,c),
(109,-8,o),
(111,-7,o),
(111,-6,c)
);
},
{
closed = 1;
nodes = (
(136,15,o),
(136,15,o),
(135,13,c),
(134,10,o),
(133,7,o),
(133,5,c),
(133,1,l),
(135,5,l),
(135,7,o),
(136,10,o),
(136,13,c)
);
},
{
closed = 1;
nodes = (
(192,203,o),
(188,215,o),
(188,179,c),
(188,152,o),
(189,133,o),
(192,136,c),
(193,136,o),
(193,148,o),
(193,163,c)
);
},
{
closed = 1;
nodes = (
(141,236,o),
(140,248,o),
(138,251,c),
(137,255,o),
(137,243,o),
(137,223,c),
(137,199,o),
(137,192,o),
(138,198,c),
(140,203,o),
(141,215,o),
(141,225,c)
);
},
{
closed = 1;
nodes = (
(189,251,o),
(188,250,o),
(188,246,c),
(188,243,o),
(189,242,o),
(189,243,c),
(190,244,o),
(190,248,o),
(189,249,c)
);
},
{
closed = 1;
nodes = (
(51,277,o),
(50,277,o),
(48,274,c),
(43,269,o),
(44,265,o),
(49,264,c),
(56,264,o),
(59,271,o),
(53,275,c)
);
},
{
closed = 1;
nodes = (
(331,283,o),
(330,283,o),
(328,283,c),
(326,282,o),
(325,281,o),
(325,281,c),
(325,281,o),
(326,279,o),
(328,279,c),
(330,279,o),
(331,281,o),
(331,282,c)
);
},
{
closed = 1;
nodes = (
(310,314,o),
(312,318,o),
(314,323,c),
(319,331,l),
(313,328,l),
(310,326,o),
(308,323,o),
(308,321,c),
(310,320,o),
(308,316,o),
(306,314,c),
(304,310,o),
(304,310,o),
(306,310,c),
(308,310,o),
(310,311,o),
(310,313,c)
);
},
{
closed = 1;
nodes = (
(75,329,o),
(74,329,o),
(71,327,c),
(70,326,o),
(68,324,o),
(68,323,c),
(68,323,o),
(70,323,o),
(71,323,c),
(74,323,o),
(75,324,o),
(75,327,c)
);
},
{
closed = 1;
nodes = (
(44,330,o),
(43,331,o),
(42,331,c),
(39,331,o),
(38,330,o),
(39,329,c),
(39,328,o),
(40,327,o),
(42,327,c),
(42,327,o),
(43,328,o),
(44,329,c)
);
},
{
closed = 1;
nodes = (
(155,464,o),
(154,461,o),
(154,458,c),
(154,453,o),
(155,452,o),
(155,454,c),
(156,455,o),
(156,459,o),
(155,461,c)
);
},
{
closed = 1;
nodes = (
(160,486,o),
(160,490,o),
(157,490,c),
(157,490,o),
(156,485,o),
(156,479,c),
(156,465,o),
(157,466,o),
(158,479,c)
);
},
{
closed = 1;
nodes = (
(232,490,o),
(230,491,o),
(219,488,c),
(215,487,o),
(212,486,o),
(210,484,c),
(209,480,o),
(208,480,o),
(221,485,c)
);
},
{
closed = 1;
nodes = (
(115,499,o),
(114,500,o),
(112,500,c),
(111,500,o),
(111,499,o),
(111,497,c),
(111,495,o),
(111,494,o),
(111,494,c),
(112,494,o),
(114,495,o),
(114,497,c)
);
},
{
closed = 1;
nodes = (
(229,511,o),
(233,513,o),
(238,514,c),
(242,515,o),
(246,517,o),
(245,517,c),
(245,518,o),
(238,517,o),
(229,514,c),
(216,511,o),
(214,510,o),
(213,506,c),
(213,501,o),
(213,501,o),
(220,504,c),
(225,505,o),
(228,507,o),
(229,510,c)
);
},
{
closed = 1;
nodes = (
(253,519,o),
(251,519,o),
(249,519,c),
(248,518,o),
(248,518,o),
(251,518,c),
(253,518,o),
(254,518,o),
(254,519,c)
);
},
{
closed = 1;
nodes = (
(367,539,l),
(364,534,l),
(360,531,o),
(360,528,o),
(361,527,c),
(366,525,o),
(367,526,o),
(367,533,c)
);
},
{
closed = 1;
nodes = (
(136,541,o),
(137,544,o),
(136,544,c),
(135,546,o),
(115,539,o),
(115,537,c),
(115,536,o),
(115,533,o),
(114,531,c),
(112,528,o),
(114,528,o),
(122,533,c),
(127,537,o),
(133,540,o),
(135,541,c)
);
},
{
closed = 1;
nodes = (
(177,559,o),
(175,559,o),
(163,554,c),
(158,553,o),
(154,551,o),
(154,550,c),
(154,547,o),
(164,551,o),
(173,556,c)
);
}
);
width = 390;
}
);
unicode = 102;
},
{
glyphname = g;
lastChange = "2026-05-04 04:05:49 +0000";
layers = (
{
layerId = m01;
shapes = (
{
closed = 1;
nodes = (
(57,-196,o),
(8,-192,o),
(2,-190,c),
(-1,-189,o),
(-5,-188,o),
(-9,-186,c),
(-18,-185,o),
(-23,-172,o),
(-25,-149,c),
(-27,-138,o),
(-28,-127,o),
(-28,-125,c),
(-28,-123,o),
(-29,-121,o),
(-33,-121,c),
(-36,-123,o),
(-37,-121,o),
(-38,-116,c),
(-38,-111,o),
(-37,-109,o),
(-34,-105,c),
(-28,-101,o),
(-28,-99,o),
(-27,-81,c),
(-25,-61,l),
(-16,-60,l),
(-10,-60,o),
(5,-57,o),
(19,-53,c),
(35,-50,o),
(51,-46,o),
(58,-45,c),
(65,-45,o),
(94,-40,o),
(120,-37,c),
(146,-32,o),
(168,-29,o),
(168,-31,c),
(172,-33,o),
(165,-35,o),
(140,-42,c),
(126,-47,o),
(114,-52,o),
(113,-53,c),
(111,-54,o),
(108,-55,o),
(104,-55,c),
(98,-55,o),
(70,-64,o),
(76,-64,c),
(84,-64,o),
(126,-55,o),
(136,-51,c),
(155,-44,o),
(178,-32,o),
(192,-21,c),
(213,-6,o),
(234,19,o),
(237,34,c),
(238,38,o),
(239,41,o),
(240,41,c),
(241,41,o),
(241,43,o),
(253,118,c),
(258,151,o),
(261,179,o),
(262,183,c),
(264,185,o),
(255,176,o),
(246,162,c),
(209,109,o),
(174,72,o),
(148,59,c),
(137,54,o),
(133,53,o),
(116,53,c),
(100,53,o),
(96,54,o),
(83,60,c),
(58,72,o),
(34,89,o),
(29,96,c),
(26,98,o),
(25,105,o),
(25,112,c),
(25,118,o),
(23,133,o),
(19,146,c),
(13,169,l),
(10,144,l),
(6,120,o),
(2,113,o),
(2,129,c),
(2,143,o),
(9,217,o),
(12,256,c),
(21,321,o),
(29,369,o),
(43,427,c),
(57,484,o),
(70,516,o),
(84,530,c),
(91,537,o),
(93,537,o),
(107,537,c),
(126,537,o),
(139,533,o),
(141,530,c),
(141,529,o),
(149,523,o),
(159,518,c),
(182,506,o),
(196,492,o),
(215,464,c),
(231,440,o),
(241,420,o),
(252,393,c),
(255,384,o),
(258,378,o),
(259,380,c),
(259,381,o),
(267,413,o),
(277,450,c),
(294,518,l),
(303,518,l),
(307,518,o),
(327,520,o),
(346,523,c),
(366,525,o),
(392,528,o),
(404,528,c),
(425,528,o),
(426,528,o),
(432,522,c),
(435,518,o),
(436,517,o),
(435,517,c),
(431,518,o),
(430,512,o),
(425,473,c),
(412,375,o),
(412,368,o),
(412,260,c),
(412,197,o),
(411,159,o),
(410,161,c),
(405,165,o),
(392,256,o),
(391,299,c),
(391,306,o),
(390,299,o),
(388,277,c),
(383,216,o),
(380,177,o),
(379,93,c),
(378,26,o),
(378,7,o),
(380,2,c),
(385,-5,o),
(386,-66,o),
(383,-83,c),
(375,-123,o),
(339,-152,o),
(280,-168,c),
(254,-173,o),
(207,-180,o),
(175,-183,c),
(153,-184,l),
(206,-189,l),
(254,-192,o),
(261,-192,o),
(259,-195,c),
(258,-196,o),
(123,-198,o),
(95,-197,c)
);
},
{
closed = 1;
nodes = (
(98,-172,o),
(106,-170,o),
(102,-168,c),
(102,-168,o),
(88,-169,o),
(71,-172,c),
(55,-175,o),
(47,-177,o),
(54,-176,c),
(59,-176,o),
(74,-175,o),
(83,-173,c)
);
},
{
closed = 1;
nodes = (
(-9,-158,o),
(-10,-159,o),
(-9,-163,c),
(-8,-168,o),
(-8,-169,o),
(-7,-165,c),
(-7,-163,o),
(-7,-160,o),
(-8,-159,c)
);
},
{
closed = 1;
nodes = (
(106,-143,o),
(104,-143,o),
(102,-144,c),
(101,-144,o),
(101,-145,o),
(103,-145,c),
(106,-145,o),
(107,-144,o),
(107,-144,c)
);
},
{
closed = 1;
nodes = (
(116,-140,o),
(114,-140,o),
(113,-142,c),
(111,-142,o),
(113,-143,o),
(115,-143,c),
(118,-143,o),
(120,-142,o),
(118,-142,c)
);
},
{
closed = 1;
nodes = (
(272,-123,o),
(271,-121,o),
(268,-131,c),
(267,-134,o),
(266,-138,o),
(267,-138,c),
(268,-138,o),
(270,-136,o),
(271,-132,c)
);
},
{
closed = 1;
nodes = (
(2,-119,l),
(-4,-112,o),
(-7,-112,o),
(-10,-118,c),
(-12,-123,o),
(-8,-125,o),
(0,-125,c),
(6,-125,l)
);
},
{
closed = 1;
nodes = (
(313,-101,o),
(313,-103,o),
(308,-113,c),
(304,-124,l),
(310,-119,l),
(313,-114,o),
(314,-112,o),
(314,-107,c)
);
},
{
closed = 1;
nodes = (
(88,-79,o),
(83,-79,o),
(80,-79,c),
(76,-79,o),
(78,-80,o),
(84,-80,c),
(90,-80,o),
(93,-79,o),
(90,-79,c)
);
},
{
closed = 1;
nodes = (
(130,-70,o),
(133,-67,o),
(131,-66,c),
(130,-65,o),
(102,-74,o),
(100,-77,c),
(95,-81,o),
(120,-77,o),
(127,-72,c)
);
},
{
closed = 1;
nodes = (
(69,-64,o),
(68,-64,o),
(65,-64,c),
(64,-65,o),
(64,-65,o),
(67,-65,c),
(69,-66,o),
(70,-65,o),
(70,-65,c)
);
},
{
closed = 1;
nodes = (
(299,59,o),
(299,58,o),
(298,57,c),
(297,54,o),
(296,52,o),
(296,51,c),
(296,50,o),
(297,51,o),
(298,52,c),
(299,54,o),
(299,57,o),
(299,58,c)
);
},
{
closed = 1;
nodes = (
(90,73,o),
(87,74,o),
(83,77,c),
(80,79,o),
(77,79,o),
(78,78,c),
(78,77,o),
(82,74,o),
(84,73,c),
(90,71,o),
(90,71,o),
(90,72,c)
);
},
{
closed = 1;
nodes = (
(181,132,o),
(181,133,o),
(180,135,c),
(179,135,o),
(178,133,o),
(176,131,c),
(173,126,o),
(176,125,o),
(180,130,c)
);
},
{
closed = 1;
nodes = (
(331,145,o),
(330,144,o),
(330,139,c),
(330,136,o),
(331,135,o),
(331,136,c),
(332,138,o),
(332,142,o),
(331,144,c)
);
},
{
closed = 1;
nodes = (
(271,157,o),
(270,156,o),
(270,152,c),
(270,150,o),
(271,149,o),
(271,150,c),
(272,151,o),
(272,153,o),
(271,156,c)
);
},
{
closed = 1;
nodes = (
(285,218,o),
(284,222,o),
(280,215,c),
(278,211,o),
(272,171,o),
(272,164,c),
(272,162,o),
(274,170,o),
(275,181,c),
(278,192,o),
(281,205,o),
(283,209,c)
);
},
{
closed = 1;
nodes = (
(91,175,o),
(91,176,o),
(90,175,c),
(89,175,o),
(88,171,o),
(88,169,c),
(88,165,o),
(88,165,o),
(90,168,c),
(91,170,o),
(91,172,o),
(91,174,c)
);
},
{
closed = 1;
nodes = (
(284,231,o),
(288,240,o),
(288,242,c),
(288,244,o),
(285,240,o),
(279,231,c),
(259,202,o),
(259,199,o),
(278,223,c)
);
},
{
closed = 1;
nodes = (
(373,276,o),
(372,275,o),
(372,271,c),
(372,268,o),
(373,267,o),
(373,268,c),
(375,269,o),
(375,271,o),
(373,274,c)
);
},
{
closed = 1;
nodes = (
(340,385,o),
(343,389,o),
(343,393,c),
(344,399,o),
(344,398,o),
(339,391,c),
(333,379,o),
(333,378,o),
(336,378,c),
(337,378,o),
(339,380,o),
(340,382,c)
);
},
{
closed = 1;
nodes = (
(67,419,o),
(65,423,o),
(64,423,c),
(63,423,o),
(57,404,o),
(58,398,c),
(58,394,o),
(64,408,o),
(65,417,c)
);
},
{
closed = 1;
nodes = (
(195,474,o),
(186,486,o),
(185,486,c),
(183,486,o),
(186,484,o),
(207,457,c),
(215,445,o),
(225,435,o),
(226,435,c),
(228,435,o),
(219,447,o),
(207,460,c)
);
},
{
closed = 1;
nodes = (
(371,477,o),
(372,478,o),
(369,474,c),
(364,471,o),
(356,459,o),
(358,459,c),
(359,459,o),
(363,464,o),
(366,469,c)
);
},
{
closed = 1;
nodes = (
(325,492,o),
(324,492,o),
(321,491,c),
(317,491,o),
(314,484,o),
(317,482,c),
(318,480,o),
(319,482,o),
(323,489,c)
);
},
{
closed = 1;
nodes = (
(391,513,o),
(392,515,o),
(391,515,c),
(390,517,o),
(367,512,o),
(367,510,c),
(367,507,o),
(384,509,o),
(389,511,c)
);
},
{
closed = 1;
nodes = (
(127,516,o),
(126,517,o),
(124,517,c),
(123,517,o),
(121,517,o),
(118,518,c),
(116,519,o),
(115,518,o),
(115,515,c),
(115,511,o),
(116,511,o),
(121,512,c),
(123,512,o),
(127,513,o),
(127,515,c)
);
}
);
width = 450;
}
);
unicode = 103;
},
{
glyphname = h;
lastChange = "2026-05-04 04:06:21 +0000";
layers = (
{
layerId = m01;
shapes = (
{
closed = 1;
nodes = (
(248,-14,o),
(246,-13,o),
(243,-13,c),
(240,-13,o),
(236,-12,o),
(233,-11,c),
(230,-9,o),
(183,-13,o),
(124,-23,c),
(79,-29,o),
(74,-27,o),
(73,-14,c),
(72,-11,o),
(72,-7,o),
(72,-6,c),
(72,-6,o),
(71,-5,o),
(68,-5,c),
(65,-5,o),
(47,7,o),
(46,10,c),
(45,11,o),
(43,8,o),
(42,1,c),
(40,-18,o),
(36,-13,o),
(33,11,c),
(32,23,o),
(29,33,o),
(28,34,c),
(27,35,o),
(28,260,o),
(29,298,c),
(30,325,l),
(24,301,l),
(21,286,o),
(19,275,o),
(17,273,c),
(14,270,o),
(16,292,o),
(29,396,c),
(34,433,o),
(35,447,o),
(36,551,c),
(37,612,o),
(37,665,o),
(37,666,c),
(37,669,o),
(37,677,o),
(37,685,c),
(36,705,o),
(39,708,o),
(62,716,c),
(80,722,o),
(80,722,o),
(109,720,c),
(152,717,o),
(152,716,o),
(145,659,c),
(144,645,o),
(140,619,o),
(139,600,c),
(137,583,o),
(132,541,o),
(127,511,c),
(122,479,o),
(119,452,o),
(119,450,c),
(119,449,o),
(121,456,o),
(125,467,c),
(132,492,o),
(140,511,o),
(142,511,c),
(145,511,o),
(145,512,o),
(141,495,c),
(139,487,o),
(138,461,o),
(137,428,c),
(135,375,l),
(141,383,l),
(157,407,o),
(191,439,o),
(230,467,c),
(246,480,o),
(289,507,o),
(297,509,c),
(305,513,o),
(299,506,o),
(282,492,c),
(264,476,o),
(263,475,o),
(266,472,c),
(269,469,o),
(270,469,o),
(272,471,c),
(273,472,o),
(279,472,o),
(284,472,c),
(311,468,o),
(331,447,o),
(342,414,c),
(347,400,o),
(348,391,o),
(349,342,c),
(351,312,o),
(351,286,o),
(350,285,c),
(350,284,o),
(349,227,o),
(349,158,c),
(350,23,o),
(349,-9,o),
(344,-5,c),
(342,-4,o),
(340,-4,o),
(335,-7,c),
(329,-11,o),
(323,-11,o),
(309,-11,c),
(299,-11,o),
(283,-12,o),
(273,-13,c),
(256,-14,l),
(255,-22,l),
(251,-42,o),
(248,-43,o),
(248,-25,c)
);
},
{
closed = 1;
nodes = (
(315,36,o),
(314,34,o),
(314,27,c),
(314,21,o),
(315,17,o),
(315,21,c),
(315,24,o),
(315,29,o),
(315,33,c)
);
},
{
closed = 1;
nodes = (
(163,40,o),
(163,41,o),
(160,47,c),
(159,52,o),
(158,55,o),
(157,55,c),
(155,55,o),
(155,56,o),
(157,59,c),
(157,61,o),
(154,58,o),
(151,50,c),
(147,45,o),
(144,39,o),
(144,39,c),
(144,37,o),
(146,37,o),
(150,39,c),
(152,39,o),
(155,40,o),
(158,40,c)
);
},
{
closed = 1;
nodes = (
(301,73,l),
(296,60,l),
(294,50,o),
(292,47,o),
(295,45,c),
(297,42,o),
(297,42,o),
(298,47,c),
(299,49,o),
(301,56,o),
(301,62,c)
);
},
{
closed = 1;
nodes = (
(279,384,o),
(279,388,o),
(278,388,c),
(275,387,o),
(273,366,o),
(277,366,c),
(278,366,o),
(279,370,o),
(279,377,c)
);
},
{
closed = 1;
nodes = (
(118,445,o),
(117,443,o),
(117,441,c),
(117,439,o),
(117,437,o),
(118,439,c),
(119,439,o),
(119,441,o),
(118,442,c)
);
},
{
closed = 1;
nodes = (
(248,449,o),
(250,452,o),
(248,456,c),
(246,461,o),
(244,460,o),
(235,452,c),
(230,447,o),
(229,445,o),
(231,446,c),
(233,447,o),
(238,448,o),
(242,448,c)
);
},
{
closed = 1;
nodes = (
(127,581,o),
(127,591,o),
(128,594,c),
(130,602,l),
(125,597,l),
(119,593,o),
(119,591,o),
(122,568,c),
(124,558,o),
(127,561,o),
(127,574,c)
);
},
{
closed = 1;
nodes = (
(104,633,o),
(102,638,o),
(101,636,c),
(101,633,o),
(99,624,o),
(99,614,c),
(98,604,o),
(98,599,o),
(99,602,c),
(100,604,o),
(101,613,o),
(102,623,c)
);
},
{
closed = 1;
nodes = (
(42,679,o),
(42,679,o),
(42,677,c),
(41,675,o),
(42,673,o),
(43,673,c),
(43,675,o),
(43,677,o),
(43,678,c)
);
}
);
width = 379;
}
);
unicode = 104;
},
{
glyphname = i;
lastChange = "2026-05-04 04:06:50 +0000";
layers = (
{
layerId = m01;
shapes = (
{
closed = 1;
nodes = (
(194,-23,o),
(182,3,o),
(178,13,c),
(176,19,l),
(171,13,l),
(167,7,o),
(164,7,o),
(150,6,c),
(141,6,o),
(134,4,o),
(134,3,c),
(131,1,o),
(131,1,o),
(128,3,c),
(125,6,o),
(121,6,o),
(102,3,c),
(58,-1,o),
(36,1,o),
(23,13,c),
(17,17,l),
(20,42,l),
(25,97,o),
(32,146,o),
(44,211,c),
(50,244,o),
(52,253,o),
(54,251,c),
(56,251,o),
(54,237,o),
(53,220,c),
(49,174,o),
(49,173,o),
(57,213,c),
(63,243,o),
(65,246,o),
(82,249,c),
(86,249,o),
(93,251,o),
(96,252,c),
(99,255,o),
(103,255,o),
(112,253,c),
(128,251,o),
(139,246,o),
(141,239,c),
(141,237,o),
(144,224,o),
(148,211,c),
(151,197,o),
(157,167,o),
(162,145,c),
(167,121,o),
(175,86,o),
(183,58,c),
(198,8,o),
(208,-34,o),
(204,-38,c),
(203,-39,o),
(201,-37,o),
(197,-32,c)
);
},
{
closed = 1;
nodes = (
(58,49,o),
(58,49,o),
(56,43,c),
(53,36,o),
(53,33,o),
(56,34,c),
(57,35,o),
(58,39,o),
(58,42,c)
);
},
{
closed = 1;
nodes = (
(147,38,o),
(144,39,o),
(144,39,c),
(141,36,o),
(142,33,o),
(145,33,c),
(147,33,o),
(148,34,o),
(147,36,c)
);
},
{
closed = 1;
nodes = (
(47,282,o),
(30,298,o),
(21,320,c),
(13,342,o),
(14,406,o),
(24,433,c),
(30,448,o),
(44,464,o),
(53,464,c),
(57,464,o),
(62,465,o),
(63,467,c),
(66,471,o),
(82,482,o),
(96,489,c),
(106,495,l),
(75,494,l),
(49,493,o),
(43,493,o),
(44,495,c),
(45,501,o),
(75,508,o),
(99,510,c),
(136,512,o),
(147,507,o),
(168,480,c),
(197,443,o),
(198,393,o),
(172,343,c),
(157,314,o),
(124,285,o),
(98,278,c),
(84,275,o),
(80,275,o),
(69,277,c)
);
},
{
closed = 1;
nodes = (
(76,340,o),
(72,343,o),
(69,348,c),
(63,355,o),
(60,354,o),
(65,342,c),
(66,337,o),
(76,334,o),
(76,338,c)
);
}
);
width = 218;
}
);
unicode = 105;
},
